STARTFONT 2.3
FONT -FontForge-Rajdhani-Book-R-Normal--11-110-72-72-P-67-ISO10646-1
SIZE 11 72 72  4
FONTBOUNDINGBOX 28 15 -5 -4
COMMENT "Generated by fontforge, http://fontforge.sourceforge.net"
COMMENT "Copyright (c) 2014 Indian Type Foundry (info@indiantypefoundry.com)"
STARTPROPERTIES 41
FOUNDRY "FontForge"
FAMILY_NAME "Rajdhani"
WEIGHT_NAME "Book"
SLANT "R"
SETWIDTH_NAME "Normal"
ADD_STYLE_NAME ""
PIXEL_SIZE 11
POINT_SIZE 110
RESOLUTION_X 72
RESOLUTION_Y 72
SPACING "P"
AVERAGE_WIDTH 67
CHARSET_REGISTRY "ISO10646"
CHARSET_ENCODING "1"
FONTNAME_REGISTRY ""
CHARSET_COLLECTIONS "ISO8859-2 ISO8859-9 ISO8859-4 ISO10646-1"
BITS_PER_PIXEL 4
FONT_NAME "Rajdhani-Regular"
FACE_NAME "Rajdhani Regular"
COPYRIGHT "Copyright (c) 2014 Indian Type Foundry (info@indiantypefoundry.com)"
FONT_VERSION "1.201;PS 1.0;hotconv 1.0.78;makeotf.lib2.5.61930; ttfautohint (v1.1) -l 7 -r 28 -G 50 -x 13 -D latn -f deva -w G"
FONT_ASCENT 9
FONT_DESCENT 2
UNDERLINE_POSITION -1
UNDERLINE_THICKNESS 1
X_HEIGHT 5
CAP_HEIGHT 7
DEFAULT_CHAR 3
RAW_ASCENT 800
RAW_DESCENT 200
NORM_SPACE 3
RELATIVE_WEIGHT 40
RELATIVE_SETWIDTH 50
SUPERSCRIPT_X 0
SUPERSCRIPT_Y 3
SUPERSCRIPT_SIZE 6
SUBSCRIPT_X 0
SUBSCRIPT_Y 0
SUBSCRIPT_SIZE 6
AVG_LOWERCASE_WIDTH 50
AVG_UPPERCASE_WIDTH 57
ENDPROPERTIES
CHARS 1043
STARTCHAR NULL.dup1
ENCODING 0
SWIDTH 0 0
DWIDTH 0 0
BBX 1 1 0 0
BITMAP
00
ENDCHAR
STARTCHAR CR
ENCODING 13
SWIDTH 0 0
DWIDTH 0 0
BBX 1 1 0 0
BITMAP
00
ENDCHAR
STARTCHAR space
ENCODING 32
SWIDTH 267 0
DWIDTH 3 0
BBX 1 1 0 0
BITMAP
00
ENDCHAR
STARTCHAR exclam
ENCODING 33
SWIDTH 237 0
DWIDTH 3 0
BBX 1 8 1 0
BITMAP
90
90
90
80
70
00
50
80
ENDCHAR
STARTCHAR quotedbl
ENCODING 34
SWIDTH 330 0
DWIDTH 4 0
BBX 3 3 0 5
BITMAP
4380
4360
1120
ENDCHAR
STARTCHAR numbersign
ENCODING 35
SWIDTH 677 0
DWIDTH 7 0
BBX 7 8 0 0
BITMAP
00070520
00250700
05B88B60
00701600
00705200
39A8B810
06107000
07016000
ENDCHAR
STARTCHAR dollar
ENCODING 36
SWIDTH 504 0
DWIDTH 6 0
BBX 5 12 0 -2
BITMAP
001000
005200
088940
360080
350040
260000
078940
000090
350080
098850
005200
001000
ENDCHAR
STARTCHAR percent
ENCODING 37
SWIDTH 717 0
DWIDTH 8 0
BBX 8 8 0 0
BITMAP
37820600
70255200
61257000
17725000
00062771
00076125
00437025
00703782
ENDCHAR
STARTCHAR ampersand
ENCODING 38
SWIDTH 597 0
DWIDTH 7 0
BBX 6 8 0 0
BITMAP
028840
071080
081070
069000
049B87
350A20
3501B0
098868
ENDCHAR
STARTCHAR quotesingle
ENCODING 39
SWIDTH 186 0
DWIDTH 2 0
BBX 2 3 0 5
BITMAP
44
33
01
ENDCHAR
STARTCHAR parenleft
ENCODING 40
SWIDTH 283 0
DWIDTH 3 0
BBX 3 9 0 -1
BITMAP
1820
5300
6200
6200
6200
6200
6200
4400
0720
ENDCHAR
STARTCHAR parenright
ENCODING 41
SWIDTH 283 0
DWIDTH 3 0
BBX 3 9 0 -1
BITMAP
3810
0350
0260
0260
0260
0260
0260
0440
3700
ENDCHAR
STARTCHAR asterisk
ENCODING 42
SWIDTH 406 0
DWIDTH 4 0
BBX 4 3 0 5
BITMAP
0060
1665
0651
ENDCHAR
STARTCHAR plus
ENCODING 43
SWIDTH 523 0
DWIDTH 6 0
BBX 5 5 0 1
BITMAP
005200
006200
28A970
006200
003100
ENDCHAR
STARTCHAR comma
ENCODING 44
SWIDTH 191 0
DWIDTH 2 0
BBX 2 3 0 -1
BITMAP
45
44
20
ENDCHAR
STARTCHAR hyphen
ENCODING 45
SWIDTH 312 0
DWIDTH 3 0
BBX 3 1 0 3
BITMAP
4870
ENDCHAR
STARTCHAR period
ENCODING 46
SWIDTH 191 0
DWIDTH 2 0
BBX 2 2 0 0
BITMAP
23
45
ENDCHAR
STARTCHAR slash
ENCODING 47
SWIDTH 396 0
DWIDTH 4 0
BBX 4 8 0 0
BITMAP
0018
0054
0080
0080
0450
0810
0900
3500
ENDCHAR
STARTCHAR zero
ENCODING 48
SWIDTH 514 0
DWIDTH 6 0
BBX 5 8 0 0
BITMAP
098860
450090
440080
440080
440080
440080
450090
098860
ENDCHAR
STARTCHAR one
ENCODING 49
SWIDTH 317 0
DWIDTH 3 0
BBX 3 8 0 0
BITMAP
1980
4180
0080
0080
0080
0080
0080
0080
ENDCHAR
STARTCHAR two
ENCODING 50
SWIDTH 478 0
DWIDTH 5 0
BBX 5 8 0 0
BITMAP
198930
530080
210080
000930
019300
0A2000
450000
5A8850
ENDCHAR
STARTCHAR three
ENCODING 51
SWIDTH 496 0
DWIDTH 5 0
BBX 5 8 0 0
BITMAP
098840
450080
320080
000080
005A30
000080
440080
198850
ENDCHAR
STARTCHAR four
ENCODING 52
SWIDTH 520 0
DWIDTH 6 0
BBX 6 8 0 0
BITMAP
000960
003860
008360
036260
090260
370260
5989B2
000260
ENDCHAR
STARTCHAR five
ENCODING 53
SWIDTH 482 0
DWIDTH 5 0
BBX 5 8 0 0
BITMAP
4A8840
440000
440000
497820
120080
110080
450080
098940
ENDCHAR
STARTCHAR six
ENCODING 54
SWIDTH 497 0
DWIDTH 5 0
BBX 5 8 0 0
BITMAP
198830
540000
530000
598820
530090
530080
540090
198950
ENDCHAR
STARTCHAR seven
ENCODING 55
SWIDTH 380 0
DWIDTH 4 0
BBX 4 8 0 0
BITMAP
788C
0009
0045
0091
0090
0450
0910
0900
ENDCHAR
STARTCHAR eight
ENCODING 56
SWIDTH 519 0
DWIDTH 6 0
BBX 5 8 0 0
BITMAP
098860
350080
440080
260080
0A8970
350080
450080
198870
ENDCHAR
STARTCHAR nine
ENCODING 57
SWIDTH 497 0
DWIDTH 5 0
BBX 5 8 0 0
BITMAP
198940
530080
630080
540080
0788A0
000080
000080
088940
ENDCHAR
STARTCHAR colon
ENCODING 58
SWIDTH 191 0
DWIDTH 2 0
BBX 2 6 0 0
BITMAP
45
23
00
00
23
45
ENDCHAR
STARTCHAR semicolon
ENCODING 59
SWIDTH 191 0
DWIDTH 2 0
BBX 2 7 0 -1
BITMAP
45
23
00
00
35
44
31
ENDCHAR
STARTCHAR less
ENCODING 60
SWIDTH 513 0
DWIDTH 6 0
BBX 5 5 0 1
BITMAP
000030
027840
3B2000
016850
000020
ENDCHAR
STARTCHAR equal
ENCODING 61
SWIDTH 531 0
DWIDTH 6 0
BBX 5 3 0 2
BITMAP
188870
000000
188870
ENDCHAR
STARTCHAR greater
ENCODING 62
SWIDTH 531 0
DWIDTH 6 0
BBX 5 5 0 1
BITMAP
130000
058610
0004B0
167500
110000
ENDCHAR
STARTCHAR question
ENCODING 63
SWIDTH 473 0
DWIDTH 5 0
BBX 5 8 0 0
BITMAP
098910
360360
120450
002900
008100
004000
006000
009000
ENDCHAR
STARTCHAR at
ENCODING 64
SWIDTH 753 0
DWIDTH 8 0
BBX 8 8 0 -1
BITMAP
00677770
07388725
06620806
15800806
15610915
06176770
07200000
00677500
ENDCHAR
STARTCHAR A
ENCODING 65
SWIDTH 533 0
DWIDTH 6 0
BBX 6 8 0 0
BITMAP
008600
008800
026810
072440
080080
1B88B0
440062
800026
ENDCHAR
STARTCHAR B
ENCODING 66
SWIDTH 546 0
DWIDTH 6 0
BBX 6 8 0 0
BITMAP
1B8880
170071
170062
170080
1C8890
170063
170053
1B8890
ENDCHAR
STARTCHAR C
ENCODING 67
SWIDTH 542 0
DWIDTH 6 0
BBX 6 8 0 0
BITMAP
088890
260054
360022
360000
360000
360022
260054
088890
ENDCHAR
STARTCHAR D
ENCODING 68
SWIDTH 557 0
DWIDTH 6 0
BBX 6 8 0 0
BITMAP
1B8890
170044
170044
170044
170044
170044
170044
1B8890
ENDCHAR
STARTCHAR E
ENCODING 69
SWIDTH 481 0
DWIDTH 5 0
BBX 5 8 0 0
BITMAP
1B8840
170000
170000
170000
1C8820
170000
170000
1B8840
ENDCHAR
STARTCHAR F
ENCODING 70
SWIDTH 459 0
DWIDTH 5 0
BBX 5 8 0 0
BITMAP
1B8840
170000
170000
170000
1C8820
170000
170000
170000
ENDCHAR
STARTCHAR G
ENCODING 71
SWIDTH 539 0
DWIDTH 6 0
BBX 6 8 0 0
BITMAP
088880
260081
360041
360000
3607A1
360072
260071
088880
ENDCHAR
STARTCHAR H
ENCODING 72
SWIDTH 570 0
DWIDTH 6 0
BBX 6 8 0 0
BITMAP
170035
170035
170035
170035
1C88A5
170035
170035
170035
ENDCHAR
STARTCHAR I
ENCODING 73
SWIDTH 230 0
DWIDTH 3 0
BBX 1 8 1 0
BITMAP
80
80
80
80
80
80
80
80
ENDCHAR
STARTCHAR J
ENCODING 74
SWIDTH 499 0
DWIDTH 5 0
BBX 5 8 0 0
BITMAP
000080
000080
000080
000080
000080
700080
800080
398930
ENDCHAR
STARTCHAR K
ENCODING 75
SWIDTH 530 0
DWIDTH 6 0
BBX 6 8 0 0
BITMAP
170091
170650
171900
17A200
1C6700
190720
170090
170054
ENDCHAR
STARTCHAR L
ENCODING 76
SWIDTH 451 0
DWIDTH 5 0
BBX 5 8 0 0
BITMAP
170000
170000
170000
170000
170000
170000
170000
1C8850
ENDCHAR
STARTCHAR M
ENCODING 77
SWIDTH 696 0
DWIDTH 8 0
BBX 7 8 0 0
BITMAP
1D0004B0
1C400890
17801880
17716380
17268080
17096080
17021080
17000080
ENDCHAR
STARTCHAR N
ENCODING 78
SWIDTH 579 0
DWIDTH 6 0
BBX 6 8 0 0
BITMAP
1A0016
1D3027
189027
176327
170927
170557
1700A7
170046
ENDCHAR
STARTCHAR O
ENCODING 79
SWIDTH 553 0
DWIDTH 6 0
BBX 6 8 0 0
BITMAP
088890
260053
360044
360044
360044
360044
260053
088890
ENDCHAR
STARTCHAR P
ENCODING 80
SWIDTH 524 0
DWIDTH 6 0
BBX 6 8 0 0
BITMAP
1B8880
170071
170072
170081
1C8860
170000
170000
170000
ENDCHAR
STARTCHAR Q
ENCODING 81
SWIDTH 556 0
DWIDTH 6 0
BBX 6 10 0 -2
BITMAP
088890
270054
260044
260044
260044
260044
270054
088890
000810
000270
ENDCHAR
STARTCHAR R
ENCODING 82
SWIDTH 534 0
DWIDTH 6 0
BBX 6 8 0 0
BITMAP
1B8880
170081
170072
170081
1B8A50
170540
170090
170072
ENDCHAR
STARTCHAR S
ENCODING 83
SWIDTH 562 0
DWIDTH 6 0
BBX 6 8 0 0
BITMAP
088890
180053
170011
098300
0027B1
020054
180054
088890
ENDCHAR
STARTCHAR T
ENCODING 84
SWIDTH 420 0
DWIDTH 5 0
BBX 5 8 0 0
BITMAP
68C830
008000
008000
008000
008000
008000
008000
008000
ENDCHAR
STARTCHAR U
ENCODING 85
SWIDTH 552 0
DWIDTH 6 0
BBX 6 8 0 0
BITMAP
260053
270053
270053
270053
270053
270053
180062
088880
ENDCHAR
STARTCHAR V
ENCODING 86
SWIDTH 500 0
DWIDTH 6 0
BBX 6 8 0 0
BITMAP
800071
540090
170080
080440
081810
044800
009700
00B300
ENDCHAR
STARTCHAR W
ENCODING 87
SWIDTH 794 0
DWIDTH 9 0
BBX 9 8 0 0
BITMAP
8101C00540
6305A10720
3608440900
0808070900
0817081800
0844074500
0691059200
03B001D000
ENDCHAR
STARTCHAR X
ENCODING 88
SWIDTH 504 0
DWIDTH 6 0
BBX 6 8 0 0
BITMAP
540090
090450
045900
00A500
01A700
062810
080270
630081
ENDCHAR
STARTCHAR Y
ENCODING 89
SWIDTH 493 0
DWIDTH 5 0
BBX 5 8 0 0
BITMAP
810090
270280
090720
036800
00B300
008000
008000
008000
ENDCHAR
STARTCHAR Z
ENCODING 90
SWIDTH 482 0
DWIDTH 5 0
BBX 5 8 0 0
BITMAP
3999A0
000640
000900
007300
019000
082000
190000
7A8870
ENDCHAR
STARTCHAR bracketleft
ENCODING 91
SWIDTH 287 0
DWIDTH 3 0
BBX 3 9 0 -1
BITMAP
4930
4300
4300
4300
4300
4300
4300
4300
3830
ENDCHAR
STARTCHAR backslash
ENCODING 92
SWIDTH 396 0
DWIDTH 4 0
BBX 4 8 0 0
BITMAP
3500
0900
0810
0450
0080
0080
0054
0018
ENDCHAR
STARTCHAR bracketright
ENCODING 93
SWIDTH 287 0
DWIDTH 3 0
BBX 3 9 0 -1
BITMAP
2850
0250
0250
0250
0250
0250
0250
0250
2840
ENDCHAR
STARTCHAR asciicircum
ENCODING 94
SWIDTH 465 0
DWIDTH 5 0
BBX 5 4 0 4
BITMAP
01B300
072800
170720
210130
ENDCHAR
STARTCHAR underscore
ENCODING 95
SWIDTH 372 0
DWIDTH 4 0
BBX 4 1 0 -1
BITMAP
6777
ENDCHAR
STARTCHAR grave
ENCODING 96
SWIDTH 269 0
DWIDTH 3 0
BBX 3 2 0 6
BITMAP
1900
0310
ENDCHAR
STARTCHAR a
ENCODING 97
SWIDTH 502 0
DWIDTH 6 0
BBX 5 6 0 0
BITMAP
0988A0
450080
440080
440080
450090
098890
ENDCHAR
STARTCHAR b
ENCODING 98
SWIDTH 504 0
DWIDTH 6 0
BBX 5 8 0 0
BITMAP
250000
360000
3A8860
360080
360080
360080
360080
2B8860
ENDCHAR
STARTCHAR c
ENCODING 99
SWIDTH 394 0
DWIDTH 4 0
BBX 4 6 0 0
BITMAP
0987
4500
4400
4400
4500
0987
ENDCHAR
STARTCHAR d
ENCODING 100
SWIDTH 504 0
DWIDTH 6 0
BBX 5 8 0 0
BITMAP
000080
000080
098890
450090
440080
440080
450090
098890
ENDCHAR
STARTCHAR e
ENCODING 101
SWIDTH 492 0
DWIDTH 5 0
BBX 5 6 0 0
BITMAP
098940
450080
440080
497770
440000
098850
ENDCHAR
STARTCHAR f
ENCODING 102
SWIDTH 303 0
DWIDTH 3 0
BBX 4 8 0 0
BITMAP
0581
0900
5C81
0800
0800
0800
0800
0800
ENDCHAR
STARTCHAR g
ENCODING 103
SWIDTH 506 0
DWIDTH 6 0
BBX 5 8 0 -2
BITMAP
0988A0
350080
450080
450080
2600A0
078790
000090
078940
ENDCHAR
STARTCHAR h
ENCODING 104
SWIDTH 507 0
DWIDTH 6 0
BBX 5 8 0 0
BITMAP
260000
360000
3A8950
360090
360080
360080
360080
250080
ENDCHAR
STARTCHAR i
ENCODING 105
SWIDTH 210 0
DWIDTH 2 0
BBX 2 8 0 0
BITMAP
26
13
26
27
27
27
27
26
ENDCHAR
STARTCHAR j
ENCODING 106
SWIDTH 210 0
DWIDTH 2 0
BBX 3 10 -1 -2
BITMAP
0260
0130
0260
0270
0270
0270
0270
0270
0360
4910
ENDCHAR
STARTCHAR k
ENCODING 107
SWIDTH 431 0
DWIDTH 5 0
BBX 5 8 0 0
BITMAP
250000
360000
360730
362800
369100
368200
361900
250550
ENDCHAR
STARTCHAR l
ENCODING 108
SWIDTH 210 0
DWIDTH 2 0
BBX 2 8 0 0
BITMAP
26
27
27
27
27
27
27
26
ENDCHAR
STARTCHAR m
ENCODING 109
SWIDTH 769 0
DWIDTH 8 0
BBX 8 6 0 0
BITMAP
2A896894
36019009
36008008
36008008
36008008
25008008
ENDCHAR
STARTCHAR n
ENCODING 110
SWIDTH 507 0
DWIDTH 6 0
BBX 5 6 0 0
BITMAP
2A8950
360090
360080
360080
360080
250080
ENDCHAR
STARTCHAR o
ENCODING 111
SWIDTH 496 0
DWIDTH 5 0
BBX 5 6 0 0
BITMAP
098950
450080
440080
440080
450080
098950
ENDCHAR
STARTCHAR p
ENCODING 112
SWIDTH 504 0
DWIDTH 6 0
BBX 5 8 0 -2
BITMAP
2A8860
360080
360080
360080
360080
3A8860
360000
250000
ENDCHAR
STARTCHAR q
ENCODING 113
SWIDTH 502 0
DWIDTH 6 0
BBX 5 8 0 -2
BITMAP
0988A0
450080
440080
440080
450090
098890
000080
000080
ENDCHAR
STARTCHAR r
ENCODING 114
SWIDTH 313 0
DWIDTH 3 0
BBX 4 6 0 0
BITMAP
2A81
3700
3600
3600
3600
2500
ENDCHAR
STARTCHAR s
ENCODING 115
SWIDTH 431 0
DWIDTH 5 0
BBX 5 6 0 0
BITMAP
3A8700
630000
196000
003A00
000720
388A00
ENDCHAR
STARTCHAR t
ENCODING 116
SWIDTH 347 0
DWIDTH 4 0
BBX 4 7 0 0
BITMAP
0800
6C82
0800
0800
0800
0900
0583
ENDCHAR
STARTCHAR u
ENCODING 117
SWIDTH 507 0
DWIDTH 6 0
BBX 5 6 0 0
BITMAP
350080
450080
450080
450080
350090
098890
ENDCHAR
STARTCHAR v
ENCODING 118
SWIDTH 416 0
DWIDTH 5 0
BBX 5 6 0 0
BITMAP
800530
630800
270800
083600
077100
03B000
ENDCHAR
STARTCHAR w
ENCODING 119
SWIDTH 683 0
DWIDTH 8 0
BBX 8 6 0 0
BITMAP
800A2062
62086080
26257080
08617350
08705810
05801C00
ENDCHAR
STARTCHAR x
ENCODING 120
SWIDTH 413 0
DWIDTH 5 0
BBX 5 6 0 0
BITMAP
630900
093600
05A000
06A100
182700
720810
ENDCHAR
STARTCHAR y
ENCODING 121
SWIDTH 459 0
DWIDTH 5 0
BBX 5 8 0 -2
BITMAP
810080
450450
080810
080800
057600
01D100
008000
393000
ENDCHAR
STARTCHAR z
ENCODING 122
SWIDTH 405 0
DWIDTH 4 0
BBX 4 6 0 0
BITMAP
488C
0036
0090
0640
1900
8A88
ENDCHAR
STARTCHAR braceleft
ENCODING 123
SWIDTH 298 0
DWIDTH 3 0
BBX 3 9 0 -1
BITMAP
0640
0700
0700
0700
6600
0700
0700
0700
0440
ENDCHAR
STARTCHAR bar
ENCODING 124
SWIDTH 207 0
DWIDTH 2 0
BBX 2 8 0 0
BITMAP
15
15
15
15
15
15
15
15
ENDCHAR
STARTCHAR braceright
ENCODING 125
SWIDTH 298 0
DWIDTH 3 0
BBX 3 9 0 -1
BITMAP
4600
0700
0800
0700
0560
0700
0800
0800
4400
ENDCHAR
STARTCHAR asciitilde
ENCODING 126
SWIDTH 523 0
DWIDTH 6 0
BBX 5 1 0 3
BITMAP
167650
ENDCHAR
STARTCHAR uni00A0
ENCODING 160
SWIDTH 267 0
DWIDTH 3 0
BBX 1 1 0 0
BITMAP
00
ENDCHAR
STARTCHAR exclamdown
ENCODING 161
SWIDTH 237 0
DWIDTH 3 0
BBX 1 8 1 0
BITMAP
80
60
00
70
80
90
90
90
ENDCHAR
STARTCHAR cent
ENCODING 162
SWIDTH 414 0
DWIDTH 5 0
BBX 5 9 0 -1
BITMAP
001000
006200
098810
450000
440000
440000
450000
098810
006200
ENDCHAR
STARTCHAR sterling
ENCODING 163
SWIDTH 528 0
DWIDTH 6 0
BBX 5 8 0 0
BITMAP
058870
080080
080020
080000
4C8500
080000
080000
5C8880
ENDCHAR
STARTCHAR yen
ENCODING 165
SWIDTH 499 0
DWIDTH 5 0
BBX 6 8 0 0
BITMAP
810081
370190
0A0640
063A00
48AB70
47B770
008000
008000
ENDCHAR
STARTCHAR brokenbar
ENCODING 166
SWIDTH 201 0
DWIDTH 2 0
BBX 2 8 0 0
BITMAP
25
25
25
01
01
25
25
25
ENDCHAR
STARTCHAR section
ENCODING 167
SWIDTH 454 0
DWIDTH 5 0
BBX 5 8 0 0
BITMAP
1A8800
540000
5A6200
533A20
293350
025A50
000440
288910
ENDCHAR
STARTCHAR dieresis
ENCODING 168
SWIDTH 345 0
DWIDTH 4 0
BBX 4 2 0 6
BITMAP
4471
2230
ENDCHAR
STARTCHAR copyright
ENCODING 169
SWIDTH 723 0
DWIDTH 8 0
BBX 8 8 0 0
BITMAP
08777780
34000052
34477342
34700442
34700042
34701642
34277152
08777780
ENDCHAR
STARTCHAR guillemotleft
ENCODING 171
SWIDTH 431 0
DWIDTH 5 0
BBX 4 4 0 1
BITMAP
0134
1755
2661
0447
ENDCHAR
STARTCHAR registered
ENCODING 174
SWIDTH 439 0
DWIDTH 5 0
BBX 5 3 0 5
BITMAP
28C700
448510
155500
ENDCHAR
STARTCHAR macron
ENCODING 175
SWIDTH 358 0
DWIDTH 4 0
BBX 4 1 0 7
BITMAP
2771
ENDCHAR
STARTCHAR degree
ENCODING 176
SWIDTH 298 0
DWIDTH 3 0
BBX 3 3 0 5
BITMAP
1840
2350
1630
ENDCHAR
STARTCHAR plusminus
ENCODING 177
SWIDTH 523 0
DWIDTH 6 0
BBX 5 5 0 1
BITMAP
006200
18A970
006200
002100
288870
ENDCHAR
STARTCHAR acute
ENCODING 180
SWIDTH 269 0
DWIDTH 3 0
BBX 3 2 0 6
BITMAP
0910
1200
ENDCHAR
STARTCHAR paragraph
ENCODING 182
SWIDTH 513 0
DWIDTH 6 0
BBX 5 8 0 0
BITMAP
3EB890
7F6080
7F6080
3E6080
026080
026080
026080
025070
ENDCHAR
STARTCHAR periodcentered
ENCODING 183
SWIDTH 207 0
DWIDTH 2 0
BBX 2 2 0 3
BITMAP
24
26
ENDCHAR
STARTCHAR cedilla
ENCODING 184
SWIDTH 257 0
DWIDTH 3 0
BBX 2 3 0 -2
BITMAP
03
28
16
ENDCHAR
STARTCHAR guillemotright
ENCODING 187
SWIDTH 431 0
DWIDTH 5 0
BBX 4 4 0 1
BITMAP
2240
0747
0458
2561
ENDCHAR
STARTCHAR questiondown
ENCODING 191
SWIDTH 473 0
DWIDTH 5 0
BBX 5 8 0 0
BITMAP
009000
006000
004000
008000
074000
270130
360360
098910
ENDCHAR
STARTCHAR Agrave
ENCODING 192
SWIDTH 532 0
DWIDTH 6 0
BBX 6 10 0 0
BITMAP
028000
003000
008600
008800
026810
072440
080080
1B88B0
440062
800026
ENDCHAR
STARTCHAR Aacute
ENCODING 193
SWIDTH 532 0
DWIDTH 6 0
BBX 6 10 0 0
BITMAP
000910
001300
008600
008800
026810
072440
080080
1B88B0
440062
800026
ENDCHAR
STARTCHAR Acircumflex
ENCODING 194
SWIDTH 532 0
DWIDTH 6 0
BBX 6 10 0 0
BITMAP
007600
003300
008600
008800
026810
072440
080080
1B88B0
440062
800026
ENDCHAR
STARTCHAR Atilde
ENCODING 195
SWIDTH 532 0
DWIDTH 6 0
BBX 6 10 0 0
BITMAP
022600
016310
008600
008800
026810
072440
080080
1B88B0
440062
800026
ENDCHAR
STARTCHAR Adieresis
ENCODING 196
SWIDTH 532 0
DWIDTH 6 0
BBX 6 10 0 0
BITMAP
034710
022310
008600
008800
026810
072440
080080
1B88B0
440062
800026
ENDCHAR
STARTCHAR Aring
ENCODING 197
SWIDTH 532 0
DWIDTH 6 0
BBX 6 11 0 0
BITMAP
005400
005500
006600
00B800
008800
026810
072440
080080
1B88B0
440062
800026
ENDCHAR
STARTCHAR AE
ENCODING 198
SWIDTH 773 0
DWIDTH 9 0
BBX 8 8 0 0
BITMAP
0006D886
00098000
00638000
00908000
0530B884
0B88A000
54008000
9000B886
ENDCHAR
STARTCHAR Ccedilla
ENCODING 199
SWIDTH 542 0
DWIDTH 6 0
BBX 6 10 0 -2
BITMAP
088890
260054
360022
360000
360000
360022
260054
088890
004600
002600
ENDCHAR
STARTCHAR Egrave
ENCODING 200
SWIDTH 481 0
DWIDTH 5 0
BBX 5 10 0 0
BITMAP
027000
004000
1B8840
170000
170000
170000
1C8820
170000
170000
1B8840
ENDCHAR
STARTCHAR Eacute
ENCODING 201
SWIDTH 481 0
DWIDTH 5 0
BBX 5 10 0 0
BITMAP
001900
003100
1B8840
170000
170000
170000
1C8820
170000
170000
1B8840
ENDCHAR
STARTCHAR Ecircumflex
ENCODING 202
SWIDTH 481 0
DWIDTH 5 0
BBX 5 10 0 0
BITMAP
008400
022300
1B8840
170000
170000
170000
1C8820
170000
170000
1B8840
ENDCHAR
STARTCHAR Edieresis
ENCODING 203
SWIDTH 481 0
DWIDTH 5 0
BBX 5 10 0 0
BITMAP
062800
031400
1B8840
170000
170000
170000
1C8820
170000
170000
1B8840
ENDCHAR
STARTCHAR Igrave
ENCODING 204
SWIDTH 230 0
DWIDTH 3 0
BBX 2 10 0 0
BITMAP
91
13
08
08
08
08
08
08
08
08
ENDCHAR
STARTCHAR Iacute
ENCODING 205
SWIDTH 231 0
DWIDTH 3 0
BBX 2 10 1 0
BITMAP
64
40
80
80
80
80
80
80
80
80
ENDCHAR
STARTCHAR Icircumflex
ENCODING 206
SWIDTH 229 0
DWIDTH 3 0
BBX 3 10 0 0
BITMAP
4800
3220
0800
0800
0800
0800
0800
0800
0800
0800
ENDCHAR
STARTCHAR Idieresis
ENCODING 207
SWIDTH 230 0
DWIDTH 3 0
BBX 3 10 0 0
BITMAP
8260
4130
0800
0800
0800
0800
0800
0800
0800
0800
ENDCHAR
STARTCHAR Eth
ENCODING 208
SWIDTH 514 0
DWIDTH 6 0
BBX 6 8 0 0
BITMAP
0C8891
080044
080035
080035
6C8235
080035
080044
0C8891
ENDCHAR
STARTCHAR Ntilde
ENCODING 209
SWIDTH 579 0
DWIDTH 6 0
BBX 6 10 0 0
BITMAP
003520
006230
1A0016
1D3027
189027
176327
170927
170557
1700A7
170046
ENDCHAR
STARTCHAR Ograve
ENCODING 210
SWIDTH 553 0
DWIDTH 6 0
BBX 6 10 0 0
BITMAP
019000
002100
088890
260053
360044
360044
360044
360044
260053
088890
ENDCHAR
STARTCHAR Oacute
ENCODING 211
SWIDTH 553 0
DWIDTH 6 0
BBX 6 10 0 0
BITMAP
000910
001300
088890
260053
360044
360044
360044
360044
260053
088890
ENDCHAR
STARTCHAR Ocircumflex
ENCODING 212
SWIDTH 553 0
DWIDTH 6 0
BBX 6 10 0 0
BITMAP
006700
003300
088890
260053
360044
360044
360044
360044
260053
088890
ENDCHAR
STARTCHAR Otilde
ENCODING 213
SWIDTH 553 0
DWIDTH 6 0
BBX 6 10 0 0
BITMAP
012610
007220
088890
260053
360044
360044
360044
360044
260053
088890
ENDCHAR
STARTCHAR Odieresis
ENCODING 214
SWIDTH 553 0
DWIDTH 6 0
BBX 6 10 0 0
BITMAP
026530
013310
088890
260053
360044
360044
360044
360044
260053
088890
ENDCHAR
STARTCHAR multiply
ENCODING 215
SWIDTH 493 0
DWIDTH 5 0
BBX 4 4 1 2
BITMAP
1000
8382
0D50
8282
ENDCHAR
STARTCHAR Oslash
ENCODING 216
SWIDTH 559 0
DWIDTH 6 0
BBX 6 8 0 0
BITMAP
088895
270094
260484
260744
266144
285044
2B0054
498890
ENDCHAR
STARTCHAR Ugrave
ENCODING 217
SWIDTH 552 0
DWIDTH 6 0
BBX 6 10 0 0
BITMAP
009000
002200
260053
270053
270053
270053
270053
270053
180062
088880
ENDCHAR
STARTCHAR Uacute
ENCODING 218
SWIDTH 552 0
DWIDTH 6 0
BBX 6 10 0 0
BITMAP
000910
001300
260053
270053
270053
270053
270053
270053
180062
088880
ENDCHAR
STARTCHAR Ucircumflex
ENCODING 219
SWIDTH 552 0
DWIDTH 6 0
BBX 6 10 0 0
BITMAP
006700
003300
260053
270053
270053
270053
270053
270053
180062
088880
ENDCHAR
STARTCHAR Udieresis
ENCODING 220
SWIDTH 552 0
DWIDTH 6 0
BBX 6 10 0 0
BITMAP
026530
013310
260053
270053
270053
270053
270053
270053
180062
088880
ENDCHAR
STARTCHAR Yacute
ENCODING 221
SWIDTH 493 0
DWIDTH 5 0
BBX 5 10 0 0
BITMAP
001900
003100
810090
270280
090720
036800
00B300
008000
008000
008000
ENDCHAR
STARTCHAR Thorn
ENCODING 222
SWIDTH 501 0
DWIDTH 6 0
BBX 4 8 1 0
BITMAP
8000
9000
A894
8008
8008
8008
A882
8000
ENDCHAR
STARTCHAR germandbls
ENCODING 223
SWIDTH 540 0
DWIDTH 6 0
BBX 6 8 0 0
BITMAP
088870
170080
260071
260080
262980
260072
260062
264890
ENDCHAR
STARTCHAR agrave
ENCODING 224
SWIDTH 502 0
DWIDTH 6 0
BBX 5 8 0 0
BITMAP
009000
001100
0988A0
450080
440080
440080
450090
098890
ENDCHAR
STARTCHAR aacute
ENCODING 225
SWIDTH 502 0
DWIDTH 6 0
BBX 5 8 0 0
BITMAP
001900
001100
0988A0
450080
440080
440080
450090
098890
ENDCHAR
STARTCHAR acircumflex
ENCODING 226
SWIDTH 502 0
DWIDTH 6 0
BBX 5 8 0 0
BITMAP
007600
002200
0988A0
450080
440080
440080
450090
098890
ENDCHAR
STARTCHAR atilde
ENCODING 227
SWIDTH 504 0
DWIDTH 6 0
BBX 5 8 0 0
BITMAP
033810
016210
0988A0
450080
440080
440080
450090
098890
ENDCHAR
STARTCHAR adieresis
ENCODING 228
SWIDTH 502 0
DWIDTH 6 0
BBX 5 8 0 0
BITMAP
035620
022310
0988A0
450080
440080
440080
450090
098890
ENDCHAR
STARTCHAR aring
ENCODING 229
SWIDTH 502 0
DWIDTH 6 0
BBX 5 9 0 0
BITMAP
005300
013500
005300
0988A0
450080
440080
440080
450090
098890
ENDCHAR
STARTCHAR ae
ENCODING 230
SWIDTH 795 0
DWIDTH 9 0
BBX 9 6 0 0
BITMAP
0688888700
0000900800
0777900710
3500B77900
4400900000
0988888800
ENDCHAR
STARTCHAR ccedilla
ENCODING 231
SWIDTH 394 0
DWIDTH 4 0
BBX 4 8 0 -2
BITMAP
0987
4500
4400
4400
4500
0987
0082
0043
ENDCHAR
STARTCHAR egrave
ENCODING 232
SWIDTH 492 0
DWIDTH 5 0
BBX 5 8 0 0
BITMAP
027000
002000
098940
450080
440080
497770
440000
098850
ENDCHAR
STARTCHAR eacute
ENCODING 233
SWIDTH 492 0
DWIDTH 5 0
BBX 5 8 0 0
BITMAP
003700
002000
098940
450080
440080
497770
440000
098850
ENDCHAR
STARTCHAR ecircumflex
ENCODING 234
SWIDTH 492 0
DWIDTH 5 0
BBX 5 8 0 0
BITMAP
008500
011200
098940
450080
440080
497770
440000
098850
ENDCHAR
STARTCHAR edieresis
ENCODING 235
SWIDTH 492 0
DWIDTH 5 0
BBX 5 8 0 0
BITMAP
062800
031400
098940
450080
440080
497770
440000
098850
ENDCHAR
STARTCHAR igrave
ENCODING 236
SWIDTH 210 0
DWIDTH 2 0
BBX 2 8 0 0
BITMAP
90
11
26
27
27
27
27
26
ENDCHAR
STARTCHAR iacute
ENCODING 237
SWIDTH 208 0
DWIDTH 2 0
BBX 3 8 0 0
BITMAP
0720
0200
2600
2700
2700
2700
2700
2600
ENDCHAR
STARTCHAR icircumflex
ENCODING 238
SWIDTH 210 0
DWIDTH 2 0
BBX 3 8 0 0
BITMAP
5700
2210
2600
2700
2700
2700
2700
2600
ENDCHAR
STARTCHAR idieresis
ENCODING 239
SWIDTH 210 0
DWIDTH 2 0
BBX 3 8 0 0
BITMAP
8350
4220
2600
2700
2700
2700
2700
2600
ENDCHAR
STARTCHAR eth
ENCODING 240
SWIDTH 488 0
DWIDTH 5 0
BBX 5 8 0 0
BITMAP
036810
01A500
040830
088890
350190
440080
450080
098940
ENDCHAR
STARTCHAR ntilde
ENCODING 241
SWIDTH 507 0
DWIDTH 6 0
BBX 5 8 0 0
BITMAP
053700
025300
2A8950
360090
360080
360080
360080
250080
ENDCHAR
STARTCHAR ograve
ENCODING 242
SWIDTH 496 0
DWIDTH 5 0
BBX 5 8 0 0
BITMAP
037000
002000
098950
450080
440080
440080
450080
098950
ENDCHAR
STARTCHAR oacute
ENCODING 243
SWIDTH 496 0
DWIDTH 5 0
BBX 5 8 0 0
BITMAP
001800
002000
098950
450080
440080
440080
450080
098950
ENDCHAR
STARTCHAR ocircumflex
ENCODING 244
SWIDTH 496 0
DWIDTH 5 0
BBX 5 8 0 0
BITMAP
008400
011200
098950
450080
440080
440080
450080
098950
ENDCHAR
STARTCHAR otilde
ENCODING 245
SWIDTH 496 0
DWIDTH 5 0
BBX 5 8 0 0
BITMAP
054700
035300
098950
450080
440080
440080
450080
098950
ENDCHAR
STARTCHAR odieresis
ENCODING 246
SWIDTH 496 0
DWIDTH 5 0
BBX 5 8 0 0
BITMAP
061800
031400
098950
450080
440080
440080
450080
098950
ENDCHAR
STARTCHAR divide
ENCODING 247
SWIDTH 510 0
DWIDTH 6 0
BBX 5 4 0 2
BITMAP
006000
000000
177750
006000
ENDCHAR
STARTCHAR oslash
ENCODING 248
SWIDTH 521 0
DWIDTH 6 0
BBX 6 6 0 0
BITMAP
088883
2602C0
262890
278080
2B0090
588860
ENDCHAR
STARTCHAR ugrave
ENCODING 249
SWIDTH 507 0
DWIDTH 6 0
BBX 5 8 0 0
BITMAP
037000
002000
350080
450080
450080
450080
350090
098890
ENDCHAR
STARTCHAR uacute
ENCODING 250
SWIDTH 507 0
DWIDTH 6 0
BBX 5 8 0 0
BITMAP
001900
002000
350080
450080
450080
450080
350090
098890
ENDCHAR
STARTCHAR ucircumflex
ENCODING 251
SWIDTH 507 0
DWIDTH 6 0
BBX 5 8 0 0
BITMAP
008500
011200
350080
450080
450080
450080
350090
098890
ENDCHAR
STARTCHAR udieresis
ENCODING 252
SWIDTH 507 0
DWIDTH 6 0
BBX 5 8 0 0
BITMAP
062800
031400
350080
450080
450080
450080
350090
098890
ENDCHAR
STARTCHAR yacute
ENCODING 253
SWIDTH 459 0
DWIDTH 5 0
BBX 5 10 0 -2
BITMAP
003700
002000
810080
450450
080810
080800
057600
01D100
008000
393000
ENDCHAR
STARTCHAR thorn
ENCODING 254
SWIDTH 508 0
DWIDTH 6 0
BBX 5 10 0 -2
BITMAP
260000
260000
2B8860
270080
260080
260080
270080
2B8860
260000
260000
ENDCHAR
STARTCHAR ydieresis
ENCODING 255
SWIDTH 459 0
DWIDTH 5 0
BBX 5 10 0 -2
BITMAP
080800
040400
810080
450450
080810
080800
057600
01D100
008000
393000
ENDCHAR
STARTCHAR Amacron
ENCODING 256
SWIDTH 532 0
DWIDTH 6 0
BBX 6 10 0 0
BITMAP
027710
000000
008600
008800
026810
072440
080080
1B88B0
440062
800026
ENDCHAR
STARTCHAR amacron
ENCODING 257
SWIDTH 502 0
DWIDTH 6 0
BBX 5 8 0 0
BITMAP
017720
000000
0988A0
450080
440080
440080
450090
098890
ENDCHAR
STARTCHAR Abreve
ENCODING 258
SWIDTH 532 0
DWIDTH 6 0
BBX 6 10 0 0
BITMAP
023500
006600
008600
008800
026810
072440
080080
1B88B0
440062
800026
ENDCHAR
STARTCHAR abreve
ENCODING 259
SWIDTH 502 0
DWIDTH 6 0
BBX 5 8 0 0
BITMAP
014500
006600
0988A0
450080
440080
440080
450090
098890
ENDCHAR
STARTCHAR Aogonek
ENCODING 260
SWIDTH 532 0
DWIDTH 6 0
BBX 6 10 0 -2
BITMAP
008600
008800
026810
072440
080080
1B88B0
440062
800026
000050
000061
ENDCHAR
STARTCHAR aogonek
ENCODING 261
SWIDTH 502 0
DWIDTH 6 0
BBX 5 8 0 -2
BITMAP
0988A0
450080
440080
440080
450090
098890
000320
000530
ENDCHAR
STARTCHAR Cacute
ENCODING 262
SWIDTH 542 0
DWIDTH 6 0
BBX 6 10 0 0
BITMAP
000910
001300
088890
260054
360022
360000
360000
360022
260054
088890
ENDCHAR
STARTCHAR cacute
ENCODING 263
SWIDTH 394 0
DWIDTH 4 0
BBX 4 8 0 0
BITMAP
0045
0020
0987
4500
4400
4400
4500
0987
ENDCHAR
STARTCHAR Cdotaccent
ENCODING 266
SWIDTH 542 0
DWIDTH 6 0
BBX 6 10 0 0
BITMAP
003500
001100
088890
260054
360022
360000
360000
360022
260054
088890
ENDCHAR
STARTCHAR cdotaccent
ENCODING 267
SWIDTH 394 0
DWIDTH 4 0
BBX 4 8 0 0
BITMAP
0080
0030
0987
4500
4400
4400
4500
0987
ENDCHAR
STARTCHAR Ccaron
ENCODING 268
SWIDTH 542 0
DWIDTH 6 0
BBX 6 10 0 0
BITMAP
007600
002300
088890
260054
360022
360000
360000
360022
260054
088890
ENDCHAR
STARTCHAR ccaron
ENCODING 269
SWIDTH 394 0
DWIDTH 4 0
BBX 4 8 0 0
BITMAP
0365
0030
0987
4500
4400
4400
4500
0987
ENDCHAR
STARTCHAR Dcaron
ENCODING 270
SWIDTH 557 0
DWIDTH 6 0
BBX 6 10 0 0
BITMAP
007700
003300
1B8890
170044
170044
170044
170044
170044
170044
1B8890
ENDCHAR
STARTCHAR dcaron
ENCODING 271
SWIDTH 534 0
DWIDTH 6 0
BBX 6 8 0 0
BITMAP
000088
000087
0BCA93
4601A0
440080
440080
440090
098890
ENDCHAR
STARTCHAR Dcroat
ENCODING 272
SWIDTH 514 0
DWIDTH 6 0
BBX 6 8 0 0
BITMAP
0C8891
080044
080035
6C8235
080035
080035
080044
0C8891
ENDCHAR
STARTCHAR dcroat
ENCODING 273
SWIDTH 539 0
DWIDTH 6 0
BBX 6 8 0 0
BITMAP
000080
0068C5
000080
088790
350090
440080
440090
198890
ENDCHAR
STARTCHAR Emacron
ENCODING 274
SWIDTH 481 0
DWIDTH 5 0
BBX 5 10 0 0
BITMAP
037700
000000
1B8840
170000
170000
170000
1C8820
170000
170000
1B8840
ENDCHAR
STARTCHAR emacron
ENCODING 275
SWIDTH 492 0
DWIDTH 5 0
BBX 5 8 0 0
BITMAP
037600
000000
098940
450080
440080
497770
440000
098850
ENDCHAR
STARTCHAR Ebreve
ENCODING 276
SWIDTH 481 0
DWIDTH 5 0
BBX 5 10 0 0
BITMAP
050500
017400
1B8840
170000
170000
170000
1C8820
170000
170000
1B8840
ENDCHAR
STARTCHAR ebreve
ENCODING 277
SWIDTH 492 0
DWIDTH 5 0
BBX 5 8 0 0
BITMAP
051600
016400
098940
450080
440080
497770
440000
098850
ENDCHAR
STARTCHAR Edotaccent
ENCODING 278
SWIDTH 496 0
DWIDTH 5 0
BBX 5 11 0 0
BITMAP
001000
008000
002000
1B8840
170000
170000
170000
1C8820
170000
170000
1B8840
ENDCHAR
STARTCHAR edotaccent
ENCODING 279
SWIDTH 492 0
DWIDTH 5 0
BBX 5 8 0 0
BITMAP
008000
003000
098940
450080
440080
497770
440000
098850
ENDCHAR
STARTCHAR Eogonek
ENCODING 280
SWIDTH 481 0
DWIDTH 5 0
BBX 5 10 0 -2
BITMAP
1B8840
170000
170000
170000
1C8820
170000
170000
1B8840
000600
001700
ENDCHAR
STARTCHAR eogonek
ENCODING 281
SWIDTH 492 0
DWIDTH 5 0
BBX 5 8 0 -2
BITMAP
098940
450080
440080
497770
440000
098850
000600
000700
ENDCHAR
STARTCHAR Ecaron
ENCODING 282
SWIDTH 481 0
DWIDTH 5 0
BBX 5 10 0 0
BITMAP
015600
004100
1B8840
170000
170000
170000
1C8820
170000
170000
1B8840
ENDCHAR
STARTCHAR ecaron
ENCODING 283
SWIDTH 492 0
DWIDTH 5 0
BBX 5 8 0 0
BITMAP
016600
003100
098940
450080
440080
497770
440000
098850
ENDCHAR
STARTCHAR Gcircumflex
ENCODING 284
SWIDTH 539 0
DWIDTH 6 0
BBX 6 10 0 0
BITMAP
006600
003300
088880
260081
360041
360000
3607A1
360072
260071
088880
ENDCHAR
STARTCHAR gcircumflex
ENCODING 285
SWIDTH 506 0
DWIDTH 6 0
BBX 5 10 0 -2
BITMAP
007600
002200
0988A0
350080
450080
450080
2600A0
078790
000090
078940
ENDCHAR
STARTCHAR Gbreve
ENCODING 286
SWIDTH 539 0
DWIDTH 6 0
BBX 6 10 0 0
BITMAP
014400
006600
088880
260081
360041
360000
3607A1
360072
260071
088880
ENDCHAR
STARTCHAR gbreve
ENCODING 287
SWIDTH 506 0
DWIDTH 6 0
BBX 5 10 0 -2
BITMAP
006420
005600
0988A0
350080
450080
450080
2600A0
078790
000090
078940
ENDCHAR
STARTCHAR Gdotaccent
ENCODING 288
SWIDTH 539 0
DWIDTH 6 0
BBX 6 10 0 0
BITMAP
005400
001100
088880
260081
360041
360000
3607A1
360072
260071
088880
ENDCHAR
STARTCHAR gdotaccent
ENCODING 289
SWIDTH 506 0
DWIDTH 6 0
BBX 5 10 0 -2
BITMAP
004400
001200
0988A0
350080
450080
450080
2600A0
078790
000090
078940
ENDCHAR
STARTCHAR uni0122
ENCODING 290
SWIDTH 539 0
DWIDTH 6 0
BBX 6 11 0 -3
BITMAP
088880
260081
360041
360000
3607A1
360072
260071
088880
001300
002600
002200
ENDCHAR
STARTCHAR uni0123
ENCODING 291
SWIDTH 506 0
DWIDTH 6 0
BBX 5 11 0 -2
BITMAP
001400
004400
002200
0988A0
350080
450080
450080
2600A0
078790
000090
078940
ENDCHAR
STARTCHAR hcircumflex
ENCODING 293
SWIDTH 507 0
DWIDTH 6 0
BBX 5 9 0 0
BITMAP
006600
264400
360000
3A8950
360090
360080
360080
360080
250080
ENDCHAR
STARTCHAR Hbar
ENCODING 294
SWIDTH 523 0
DWIDTH 6 0
BBX 6 8 0 0
BITMAP
080026
080036
5C889B
080036
0C88A6
080036
080036
080026
ENDCHAR
STARTCHAR hbar
ENCODING 295
SWIDTH 544 0
DWIDTH 6 0
BBX 6 8 0 0
BITMAP
080000
5C8500
080000
097870
0A0062
080053
080053
080053
ENDCHAR
STARTCHAR Itilde
ENCODING 296
SWIDTH 230 0
DWIDTH 3 0
BBX 3 10 0 0
BITMAP
3520
5230
0800
0800
0800
0800
0800
0800
0800
0800
ENDCHAR
STARTCHAR itilde
ENCODING 297
SWIDTH 210 0
DWIDTH 2 0
BBX 3 8 0 0
BITMAP
5730
6130
2600
2700
2700
2700
2700
2600
ENDCHAR
STARTCHAR Imacron
ENCODING 298
SWIDTH 230 0
DWIDTH 3 0
BBX 3 10 0 0
BITMAP
7730
0000
0800
0800
0800
0800
0800
0800
0800
0800
ENDCHAR
STARTCHAR imacron
ENCODING 299
SWIDTH 208 0
DWIDTH 2 0
BBX 3 8 0 0
BITMAP
7720
0000
2600
2700
2700
2700
2700
2600
ENDCHAR
STARTCHAR Ibreve
ENCODING 300
SWIDTH 231 0
DWIDTH 3 0
BBX 3 10 0 0
BITMAP
5040
5710
0800
0800
0800
0800
0800
0800
0800
0800
ENDCHAR
STARTCHAR ibreve
ENCODING 301
SWIDTH 211 0
DWIDTH 2 0
BBX 3 8 0 0
BITMAP
6230
5600
2600
2700
2700
2700
2700
2600
ENDCHAR
STARTCHAR Iogonek
ENCODING 302
SWIDTH 230 0
DWIDTH 3 0
BBX 2 10 0 -2
BITMAP
08
08
08
08
08
08
08
08
42
52
ENDCHAR
STARTCHAR iogonek
ENCODING 303
SWIDTH 210 0
DWIDTH 2 0
BBX 2 10 0 -2
BITMAP
26
13
26
27
27
27
27
26
51
62
ENDCHAR
STARTCHAR Idotaccent
ENCODING 304
SWIDTH 230 0
DWIDTH 3 0
BBX 1 10 1 0
BITMAP
10
80
80
80
80
80
80
80
80
80
ENDCHAR
STARTCHAR dotlessi
ENCODING 305
SWIDTH 212 0
DWIDTH 2 0
BBX 2 6 0 0
BITMAP
26
27
27
27
27
26
ENDCHAR
STARTCHAR IJ
ENCODING 306
SWIDTH 721 0
DWIDTH 8 0
BBX 7 8 1 0
BITMAP
80000710
80000710
80000710
80000710
80000710
81600710
81700810
80888800
ENDCHAR
STARTCHAR ij
ENCODING 307
SWIDTH 419 0
DWIDTH 5 0
BBX 4 10 0 -2
BITMAP
2608
1303
2608
2708
2708
2708
2708
2608
0009
0294
ENDCHAR
STARTCHAR Jcircumflex
ENCODING 308
SWIDTH 494 0
DWIDTH 5 0
BBX 6 10 0 0
BITMAP
000490
000322
000080
000080
000080
000080
000080
700080
800080
398930
ENDCHAR
STARTCHAR jcircumflex
ENCODING 309
SWIDTH 209 0
DWIDTH 2 0
BBX 4 10 -1 -2
BITMAP
0570
0221
0260
0270
0270
0270
0270
0270
0360
4910
ENDCHAR
STARTCHAR uni0136
ENCODING 310
SWIDTH 530 0
DWIDTH 6 0
BBX 6 11 0 -3
BITMAP
170091
170650
171900
17A200
1C6700
190720
170090
170054
000400
001700
001200
ENDCHAR
STARTCHAR uni0137
ENCODING 311
SWIDTH 431 0
DWIDTH 5 0
BBX 5 11 0 -3
BITMAP
250000
360000
360730
362800
369100
368200
361900
250550
004000
008000
004000
ENDCHAR
STARTCHAR Lacute
ENCODING 313
SWIDTH 451 0
DWIDTH 5 0
BBX 5 10 0 0
BITMAP
073000
040000
170000
170000
170000
170000
170000
170000
170000
1C8850
ENDCHAR
STARTCHAR lacute
ENCODING 314
SWIDTH 207 0
DWIDTH 2 0
BBX 3 11 0 0
BITMAP
0320
0800
0000
2600
2700
2700
2700
2700
2700
2700
2600
ENDCHAR
STARTCHAR uni013B
ENCODING 315
SWIDTH 451 0
DWIDTH 5 0
BBX 5 11 0 -3
BITMAP
170000
170000
170000
170000
170000
170000
170000
1C8850
003000
007100
004000
ENDCHAR
STARTCHAR uni013C
ENCODING 316
SWIDTH 211 0
DWIDTH 2 0
BBX 2 11 0 -3
BITMAP
26
27
27
27
27
27
27
26
13
26
23
ENDCHAR
STARTCHAR Lcaron
ENCODING 317
SWIDTH 451 0
DWIDTH 5 0
BBX 5 8 0 0
BITMAP
170800
170700
170300
170000
170000
170000
170000
1C8850
ENDCHAR
STARTCHAR lcaron
ENCODING 318
SWIDTH 274 0
DWIDTH 3 0
BBX 3 8 0 0
BITMAP
2690
2770
2730
2700
2700
2700
2700
2600
ENDCHAR
STARTCHAR Ldot
ENCODING 319
SWIDTH 500 0
DWIDTH 6 0
BBX 5 8 0 0
BITMAP
170000
180000
180000
180500
180900
180000
180000
1C8850
ENDCHAR
STARTCHAR ldot
ENCODING 320
SWIDTH 314 0
DWIDTH 3 0
BBX 3 8 0 0
BITMAP
1700
2700
2700
2750
2790
2700
2700
1700
ENDCHAR
STARTCHAR Lslash
ENCODING 321
SWIDTH 504 0
DWIDTH 6 0
BBX 5 8 0 0
BITMAP
080000
081000
0C6000
790000
080000
080000
080000
0C8860
ENDCHAR
STARTCHAR lslash
ENCODING 322
SWIDTH 296 0
DWIDTH 3 0
BBX 3 8 0 0
BITMAP
0800
0800
0960
5C10
1800
0800
0800
0800
ENDCHAR
STARTCHAR Nacute
ENCODING 323
SWIDTH 579 0
DWIDTH 6 0
BBX 6 10 0 0
BITMAP
000640
000300
1A0016
1D3027
189027
176327
170927
170557
1700A7
170046
ENDCHAR
STARTCHAR nacute
ENCODING 324
SWIDTH 507 0
DWIDTH 6 0
BBX 5 8 0 0
BITMAP
001900
001100
2A8950
360090
360080
360080
360080
250080
ENDCHAR
STARTCHAR uni0145
ENCODING 325
SWIDTH 579 0
DWIDTH 6 0
BBX 6 11 0 -3
BITMAP
1A0016
1D3027
189027
176327
170927
170557
1700A7
170046
000300
001700
001300
ENDCHAR
STARTCHAR uni0146
ENCODING 326
SWIDTH 505 0
DWIDTH 6 0
BBX 5 9 0 -3
BITMAP
2A8950
360090
360080
360080
360080
250080
003100
007100
004000
ENDCHAR
STARTCHAR Ncaron
ENCODING 327
SWIDTH 579 0
DWIDTH 6 0
BBX 6 10 0 0
BITMAP
007610
001400
1A0016
1D3027
189027
176327
170927
170557
1700A7
170046
ENDCHAR
STARTCHAR ncaron
ENCODING 328
SWIDTH 507 0
DWIDTH 6 0
BBX 5 8 0 0
BITMAP
016600
003100
2A8950
360090
360080
360080
360080
250080
ENDCHAR
STARTCHAR Eng
ENCODING 330
SWIDTH 519 0
DWIDTH 6 0
BBX 6 10 0 -2
BITMAP
1B0017
1D3017
189017
186417
180917
180557
1800A7
170047
000036
000491
ENDCHAR
STARTCHAR eng
ENCODING 331
SWIDTH 507 0
DWIDTH 6 0
BBX 5 8 0 -2
BITMAP
2A8950
360090
360080
360080
360080
250080
000090
001850
ENDCHAR
STARTCHAR Omacron
ENCODING 332
SWIDTH 553 0
DWIDTH 6 0
BBX 6 10 0 0
BITMAP
017720
000000
088890
260053
360044
360044
360044
360044
260053
088890
ENDCHAR
STARTCHAR omacron
ENCODING 333
SWIDTH 496 0
DWIDTH 5 0
BBX 5 8 0 0
BITMAP
037600
000000
098950
450080
440080
440080
450080
098950
ENDCHAR
STARTCHAR Obreve
ENCODING 334
SWIDTH 553 0
DWIDTH 6 0
BBX 6 10 0 0
BITMAP
005310
006600
088890
260053
360044
360044
360044
360044
260053
088890
ENDCHAR
STARTCHAR obreve
ENCODING 335
SWIDTH 496 0
DWIDTH 5 0
BBX 5 8 0 0
BITMAP
051600
016400
098950
450080
440080
440080
450080
098950
ENDCHAR
STARTCHAR Ohungarumlaut
ENCODING 336
SWIDTH 553 0
DWIDTH 6 0
BBX 6 10 0 0
BITMAP
005470
003300
088890
260053
360044
360044
360044
360044
260053
088890
ENDCHAR
STARTCHAR ohungarumlaut
ENCODING 337
SWIDTH 496 0
DWIDTH 5 0
BBX 5 8 0 0
BITMAP
007440
003300
098950
450080
440080
440080
450080
098950
ENDCHAR
STARTCHAR OE
ENCODING 338
SWIDTH 775 0
DWIDTH 9 0
BBX 8 8 0 0
BITMAP
0888C885
27008000
26008000
26008000
2600B883
26008000
27008000
0888C885
ENDCHAR
STARTCHAR oe
ENCODING 339
SWIDTH 812 0
DWIDTH 9 0
BBX 9 6 0 0
BITMAP
0988788900
4500A00630
4400800540
4400A77820
4500900000
0988888810
ENDCHAR
STARTCHAR Racute
ENCODING 340
SWIDTH 534 0
DWIDTH 6 0
BBX 6 10 0 0
BITMAP
001900
003100
1B8880
170081
170072
170081
1B8A50
170540
170090
170072
ENDCHAR
STARTCHAR racute
ENCODING 341
SWIDTH 313 0
DWIDTH 3 0
BBX 4 8 0 0
BITMAP
0270
0200
2A81
3700
3600
3600
3600
2500
ENDCHAR
STARTCHAR uni0156
ENCODING 342
SWIDTH 534 0
DWIDTH 6 0
BBX 6 11 0 -3
BITMAP
1B8880
170081
170072
170081
1B8A50
170540
170090
170072
002100
005300
004000
ENDCHAR
STARTCHAR uni0157
ENCODING 343
SWIDTH 313 0
DWIDTH 3 0
BBX 4 9 0 -3
BITMAP
2A81
3700
3600
3600
3600
2500
1200
3500
3200
ENDCHAR
STARTCHAR Rcaron
ENCODING 344
SWIDTH 534 0
DWIDTH 6 0
BBX 6 10 0 0
BITMAP
016700
004100
1B8880
170081
170072
170081
1B8A50
170540
170090
170072
ENDCHAR
STARTCHAR rcaron
ENCODING 345
SWIDTH 313 0
DWIDTH 3 0
BBX 4 8 0 0
BITMAP
0670
0210
2A81
3700
3600
3600
3600
2500
ENDCHAR
STARTCHAR Sacute
ENCODING 346
SWIDTH 562 0
DWIDTH 6 0
BBX 6 10 0 0
BITMAP
000910
001300
088890
180053
170011
098300
0027B1
020054
180054
088890
ENDCHAR
STARTCHAR sacute
ENCODING 347
SWIDTH 427 0
DWIDTH 5 0
BBX 5 8 0 0
BITMAP
008200
002000
3A8700
630000
196000
003A00
000720
388A00
ENDCHAR
STARTCHAR Scircumflex
ENCODING 348
SWIDTH 562 0
DWIDTH 6 0
BBX 6 10 0 0
BITMAP
006700
003300
088890
180053
170011
098300
0027B1
020054
180054
088890
ENDCHAR
STARTCHAR scircumflex
ENCODING 349
SWIDTH 427 0
DWIDTH 5 0
BBX 5 8 0 0
BITMAP
048100
021100
3A8700
630000
196000
003A00
000720
388A00
ENDCHAR
STARTCHAR uni015E
ENCODING 350
SWIDTH 562 0
DWIDTH 6 0
BBX 6 10 0 -2
BITMAP
088890
180053
170011
098300
0027B1
020054
180054
088890
002700
002600
ENDCHAR
STARTCHAR uni015F
ENCODING 351
SWIDTH 427 0
DWIDTH 5 0
BBX 5 8 0 -2
BITMAP
3A8700
630000
195000
003A00
000720
388A00
018100
006100
ENDCHAR
STARTCHAR Scaron
ENCODING 352
SWIDTH 562 0
DWIDTH 6 0
BBX 6 10 0 0
BITMAP
007600
002300
088890
180053
170011
098300
0027B1
020054
180054
088890
ENDCHAR
STARTCHAR scaron
ENCODING 353
SWIDTH 427 0
DWIDTH 5 0
BBX 5 8 0 0
BITMAP
066200
003000
3A8700
630000
196000
003A00
000720
388A00
ENDCHAR
STARTCHAR uni0162
ENCODING 354
SWIDTH 420 0
DWIDTH 5 0
BBX 5 11 0 -3
BITMAP
68C830
008000
008000
008000
008000
008000
008000
008000
004000
007000
003000
ENDCHAR
STARTCHAR uni0163
ENCODING 355
SWIDTH 347 0
DWIDTH 4 0
BBX 4 10 0 -3
BITMAP
0800
6C82
0800
0800
0800
0900
0583
0040
0070
0030
ENDCHAR
STARTCHAR Tcaron
ENCODING 356
SWIDTH 420 0
DWIDTH 5 0
BBX 5 10 0 0
BITMAP
065200
015000
68C830
008000
008000
008000
008000
008000
008000
008000
ENDCHAR
STARTCHAR tcaron
ENCODING 357
SWIDTH 396 0
DWIDTH 4 0
BBX 5 8 0 0
BITMAP
040540
090520
6C8500
080000
080000
080000
090000
058300
ENDCHAR
STARTCHAR Tbar
ENCODING 358
SWIDTH 501 0
DWIDTH 6 0
BBX 5 8 0 0
BITMAP
68C840
008000
008000
17C700
008000
008000
008000
008000
ENDCHAR
STARTCHAR tbar
ENCODING 359
SWIDTH 350 0
DWIDTH 4 0
BBX 4 7 0 0
BITMAP
0800
6C82
0800
5C82
0800
0900
0583
ENDCHAR
STARTCHAR Utilde
ENCODING 360
SWIDTH 552 0
DWIDTH 6 0
BBX 6 10 0 0
BITMAP
012610
007220
260053
270053
270053
270053
270053
270053
180062
088880
ENDCHAR
STARTCHAR utilde
ENCODING 361
SWIDTH 507 0
DWIDTH 6 0
BBX 5 8 0 0
BITMAP
053700
035300
350080
450080
450080
450080
350090
098890
ENDCHAR
STARTCHAR Umacron
ENCODING 362
SWIDTH 552 0
DWIDTH 6 0
BBX 6 10 0 0
BITMAP
017720
000000
260053
270053
270053
270053
270053
270053
180062
088880
ENDCHAR
STARTCHAR umacron
ENCODING 363
SWIDTH 507 0
DWIDTH 6 0
BBX 5 8 0 0
BITMAP
037700
000000
350080
450080
450080
450080
350090
098890
ENDCHAR
STARTCHAR Ubreve
ENCODING 364
SWIDTH 552 0
DWIDTH 6 0
BBX 6 10 0 0
BITMAP
005310
006600
260053
270053
270053
270053
270053
270053
180062
088880
ENDCHAR
STARTCHAR ubreve
ENCODING 365
SWIDTH 507 0
DWIDTH 6 0
BBX 5 8 0 0
BITMAP
041600
017400
350080
450080
450080
450080
350090
098890
ENDCHAR
STARTCHAR Uring
ENCODING 366
SWIDTH 552 0
DWIDTH 6 0
BBX 6 11 0 0
BITMAP
005500
005500
006600
262253
270053
270053
270053
270053
270053
180062
088880
ENDCHAR
STARTCHAR uring
ENCODING 367
SWIDTH 507 0
DWIDTH 6 0
BBX 5 9 0 0
BITMAP
015200
050500
015200
350080
450080
450080
450080
350090
098890
ENDCHAR
STARTCHAR Uhungarumlaut
ENCODING 368
SWIDTH 552 0
DWIDTH 6 0
BBX 6 10 0 0
BITMAP
005470
003300
260053
270053
270053
270053
270053
270053
180062
088880
ENDCHAR
STARTCHAR uhungarumlaut
ENCODING 369
SWIDTH 507 0
DWIDTH 6 0
BBX 5 8 0 0
BITMAP
007440
003300
350080
450080
450080
450080
350090
098890
ENDCHAR
STARTCHAR Uogonek
ENCODING 370
SWIDTH 552 0
DWIDTH 6 0
BBX 6 10 0 -2
BITMAP
260053
270053
270053
270053
270053
270053
180062
088880
003300
005300
ENDCHAR
STARTCHAR uogonek
ENCODING 371
SWIDTH 503 0
DWIDTH 6 0
BBX 5 8 0 -2
BITMAP
350080
450080
450080
450080
350090
0988A0
000330
000530
ENDCHAR
STARTCHAR Wcircumflex
ENCODING 372
SWIDTH 795 0
DWIDTH 9 0
BBX 9 10 0 0
BITMAP
0003900000
0003120000
8101C00540
6305A10720
3608440900
0808070900
0817081800
0844074500
0691059200
03B001D000
ENDCHAR
STARTCHAR wcircumflex
ENCODING 373
SWIDTH 682 0
DWIDTH 8 0
BBX 8 8 0 0
BITMAP
00085000
00112000
800A2062
62086080
26257080
08617350
08705810
05801C00
ENDCHAR
STARTCHAR Ycircumflex
ENCODING 374
SWIDTH 493 0
DWIDTH 5 0
BBX 5 10 0 0
BITMAP
009400
021300
810090
270280
090720
036800
00B300
008000
008000
008000
ENDCHAR
STARTCHAR ycircumflex
ENCODING 375
SWIDTH 459 0
DWIDTH 5 0
BBX 5 10 0 -2
BITMAP
019300
020200
810080
450450
080810
080800
057600
01D100
008000
393000
ENDCHAR
STARTCHAR Ydieresis
ENCODING 376
SWIDTH 493 0
DWIDTH 5 0
BBX 5 10 0 0
BITMAP
071800
030400
810090
270280
090720
036800
00B300
008000
008000
008000
ENDCHAR
STARTCHAR Zacute
ENCODING 377
SWIDTH 482 0
DWIDTH 5 0
BBX 5 10 0 0
BITMAP
000900
002100
3999A0
000640
000900
007300
019000
082000
190000
7A8870
ENDCHAR
STARTCHAR zacute
ENCODING 378
SWIDTH 405 0
DWIDTH 4 0
BBX 4 8 0 0
BITMAP
0055
0020
488C
0036
0090
0640
1900
8A88
ENDCHAR
STARTCHAR Zdotaccent
ENCODING 379
SWIDTH 482 0
DWIDTH 5 0
BBX 5 11 0 0
BITMAP
001000
006200
002000
3999A0
000640
000900
007300
019000
082000
190000
7A8870
ENDCHAR
STARTCHAR zdotaccent
ENCODING 380
SWIDTH 405 0
DWIDTH 4 0
BBX 4 8 0 0
BITMAP
0080
0030
488C
0036
0090
0640
1900
8A88
ENDCHAR
STARTCHAR Zcaron
ENCODING 381
SWIDTH 482 0
DWIDTH 5 0
BBX 5 10 0 0
BITMAP
016700
004200
3999A0
000640
000900
007300
019000
082000
190000
7A8870
ENDCHAR
STARTCHAR zcaron
ENCODING 382
SWIDTH 405 0
DWIDTH 4 0
BBX 4 8 0 0
BITMAP
0554
0030
488C
0036
0090
0640
1900
8A88
ENDCHAR
STARTCHAR florin
ENCODING 402
SWIDTH 494 0
DWIDTH 5 0
BBX 6 10 0 -2
BITMAP
000482
000800
000800
002600
04A940
008000
008000
008000
045000
690000
ENDCHAR
STARTCHAR AEacute
ENCODING 508
SWIDTH 773 0
DWIDTH 9 0
BBX 8 10 0 0
BITMAP
00002800
00003000
0006D886
00098000
00638000
00908000
0530B884
0B88A000
54008000
9000B886
ENDCHAR
STARTCHAR aeacute
ENCODING 509
SWIDTH 795 0
DWIDTH 9 0
BBX 9 8 0 0
BITMAP
0000450000
0000200000
0688888700
0000900800
0777900710
3500B77900
4400900000
0988888800
ENDCHAR
STARTCHAR Oslashacute
ENCODING 510
SWIDTH 558 0
DWIDTH 6 0
BBX 6 10 0 0
BITMAP
000910
001300
088895
270094
260484
260744
266144
285044
2B0054
498890
ENDCHAR
STARTCHAR oslashacute
ENCODING 511
SWIDTH 521 0
DWIDTH 6 0
BBX 6 8 0 0
BITMAP
000910
001100
088883
2602C0
262890
278080
2B0090
588860
ENDCHAR
STARTCHAR uni0218
ENCODING 536
SWIDTH 562 0
DWIDTH 6 0
BBX 6 11 0 -3
BITMAP
088890
180053
170011
098300
0027B1
020054
180054
088890
000300
001700
001300
ENDCHAR
STARTCHAR uni0219
ENCODING 537
SWIDTH 427 0
DWIDTH 5 0
BBX 5 9 0 -3
BITMAP
3A8700
630000
196000
003A00
000720
388A00
004000
008000
003000
ENDCHAR
STARTCHAR circumflex
ENCODING 710
SWIDTH 326 0
DWIDTH 4 0
BBX 3 2 0 6
BITMAP
0850
1230
ENDCHAR
STARTCHAR caron
ENCODING 711
SWIDTH 326 0
DWIDTH 4 0
BBX 3 2 0 6
BITMAP
1670
0410
ENDCHAR
STARTCHAR uni02C9
ENCODING 713
SWIDTH 358 0
DWIDTH 4 0
BBX 4 1 0 7
BITMAP
2771
ENDCHAR
STARTCHAR breve
ENCODING 728
SWIDTH 332 0
DWIDTH 4 0
BBX 3 2 0 6
BITMAP
4250
0650
ENDCHAR
STARTCHAR dotaccent
ENCODING 729
SWIDTH 183 0
DWIDTH 2 0
BBX 2 2 0 6
BITMAP
44
22
ENDCHAR
STARTCHAR ring
ENCODING 730
SWIDTH 297 0
DWIDTH 3 0
BBX 3 3 0 6
BITMAP
2520
4050
2520
ENDCHAR
STARTCHAR ogonek
ENCODING 731
SWIDTH 243 0
DWIDTH 3 0
BBX 2 2 0 -2
BITMAP
04
16
ENDCHAR
STARTCHAR tilde
ENCODING 732
SWIDTH 369 0
DWIDTH 4 0
BBX 4 2 0 6
BITMAP
4380
1631
ENDCHAR
STARTCHAR hungarumlaut
ENCODING 733
SWIDTH 377 0
DWIDTH 4 0
BBX 4 2 0 6
BITMAP
0862
1230
ENDCHAR
STARTCHAR Mu
ENCODING 924
SWIDTH 527 0
DWIDTH 6 0
BBX 5 8 0 -2
BITMAP
130040
170080
170080
170080
180090
1C87A0
170000
130000
ENDCHAR
STARTCHAR Pi
ENCODING 928
SWIDTH 605 0
DWIDTH 7 0
BBX 7 7 0 0
BITMAP
4B98C820
06308100
06308100
06308100
06308100
06308100
06208100
ENDCHAR
STARTCHAR Sigma
ENCODING 931
SWIDTH 481 0
DWIDTH 5 0
BBX 5 7 0 0
BITMAP
4B8850
081000
028000
008100
018000
081000
3B8850
ENDCHAR
STARTCHAR uni0901
ENCODING 2305
SWIDTH 0 0
DWIDTH 0 0
BBX 4 3 -3 7
BITMAP
0400
6016
6772
ENDCHAR
STARTCHAR uni0902
ENCODING 2306
SWIDTH 0 0
DWIDTH 0 0
BBX 1 1 -2 8
BITMAP
60
ENDCHAR
STARTCHAR uni0903
ENCODING 2307
SWIDTH 247 0
DWIDTH 3 0
BBX 1 4 1 1
BITMAP
60
00
00
60
ENDCHAR
STARTCHAR uni0905
ENCODING 2309
SWIDTH 598 0
DWIDTH 7 0
BBX 7 7 0 0
BITMAP
17920B50
00170800
00250800
00697800
00170800
00260800
48810800
ENDCHAR
STARTCHAR uni0906
ENCODING 2310
SWIDTH 828 0
DWIDTH 9 0
BBX 10 7 0 0
BITMAP
17920B7B82
0026080710
0035080710
0069780710
0017080710
0025080710
4881080610
ENDCHAR
STARTCHAR uni0907
ENCODING 2311
SWIDTH 478 0
DWIDTH 5 0
BBX 7 8 -1 -1
BITMAP
1777A930
00004400
00879200
03600000
00878300
03400800
04A78500
01100000
ENDCHAR
STARTCHAR uni0908
ENCODING 2312
SWIDTH 478 0
DWIDTH 5 0
BBX 7 11 -1 -1
BITMAP
00009700
00035000
00035000
1777A930
00004400
00879200
03600000
00878300
03400800
04A78500
01100000
ENDCHAR
STARTCHAR uni0909
ENCODING 2313
SWIDTH 471 0
DWIDTH 5 0
BBX 7 7 -1 0
BITMAP
1777B820
00003500
00004500
0007B100
02003600
07102600
02979200
ENDCHAR
STARTCHAR uni090A
ENCODING 2314
SWIDTH 661 0
DWIDTH 7 0
BBX 9 7 -1 0
BITMAP
1777B87730
0000350000
0000440000
0007C98400
0300360800
0710260800
0297817600
ENDCHAR
STARTCHAR uni090B
ENCODING 2315
SWIDTH 753 0
DWIDTH 8 0
BBX 10 7 -1 0
BITMAP
17778B7773
0000260000
0077861850
0440389270
02205A2840
0007767100
0183264840
ENDCHAR
STARTCHAR uni090C
ENCODING 2316
SWIDTH 676 0
DWIDTH 7 0
BBX 9 10 -1 -3
BITMAP
1777778B40
0000002700
0078588700
0260A03700
0350802700
0350002700
0097007600
0000062000
0000071020
0000018820
ENDCHAR
STARTCHAR uni090D
ENCODING 2317
SWIDTH 521 0
DWIDTH 6 0
BBX 7 10 -1 0
BITMAP
00700700
00387300
00000000
17B77B70
00800800
00800800
00807500
00800000
00800000
00688500
ENDCHAR
STARTCHAR uni090E
ENCODING 2318
SWIDTH 522 0
DWIDTH 6 0
BBX 7 10 -1 0
BITMAP
00080000
00048100
00001900
17B77B70
00800800
00800800
00807500
00800000
00800000
00688500
ENDCHAR
STARTCHAR uni090F
ENCODING 2319
SWIDTH 526 0
DWIDTH 6 0
BBX 7 7 -1 0
BITMAP
17B77B70
00800800
00800800
00807500
00800000
00800000
00688500
ENDCHAR
STARTCHAR uni0910
ENCODING 2320
SWIDTH 526 0
DWIDTH 6 0
BBX 7 10 -1 0
BITMAP
00027000
00007200
00000700
17B77B70
00800800
00800800
00807500
00800000
00800000
00688500
ENDCHAR
STARTCHAR uni0911
ENCODING 2321
SWIDTH 829 0
DWIDTH 9 0
BBX 10 9 0 0
BITMAP
0000060340
0000067710
17920B7A82
0017080620
0025080620
0069780620
0017080620
0026080620
4881080620
ENDCHAR
STARTCHAR uni0912
ENCODING 2322
SWIDTH 828 0
DWIDTH 9 0
BBX 10 10 0 0
BITMAP
0000080000
0000039200
0000001910
17920B7B82
0017080710
0025080710
0069780710
0017080710
0026080710
4881080610
ENDCHAR
STARTCHAR uni0913
ENCODING 2323
SWIDTH 829 0
DWIDTH 9 0
BBX 10 10 0 0
BITMAP
0000018000
0000006300
0000000800
17920B7A82
0017080620
0025080620
0069780620
0017080620
0026080620
4881080620
ENDCHAR
STARTCHAR uni0914
ENCODING 2324
SWIDTH 829 0
DWIDTH 9 0
BBX 10 10 0 0
BITMAP
0000026620
0000007720
0000000A20
17920B7A82
0017080620
0025080620
0069780620
0017080620
0026080620
4881080620
ENDCHAR
STARTCHAR uni0915
ENCODING 2325
SWIDTH 725 0
DWIDTH 8 0
BBX 10 7 -1 0
BITMAP
1777997771
0076487700
0440450530
0530440340
0440540530
0077947700
0000440000
ENDCHAR
STARTCHAR uni0916
ENCODING 2326
SWIDTH 696 0
DWIDTH 8 0
BBX 9 7 -1 0
BITMAP
177C777B60
0008000800
0009182800
0794710800
0270710900
0073187800
0009000800
ENDCHAR
STARTCHAR uni0917
ENCODING 2327
SWIDTH 494 0
DWIDTH 5 0
BBX 7 7 -1 0
BITMAP
17B78B40
00802600
00802600
00802600
06502600
00002600
00001600
ENDCHAR
STARTCHAR uni0918
ENCODING 2328
SWIDTH 559 0
DWIDTH 6 0
BBX 8 7 -1 0
BITMAP
18C88B92
03600620
00B80620
02600620
02600720
00787A20
00000620
ENDCHAR
STARTCHAR uni0919
ENCODING 2329
SWIDTH 505 0
DWIDTH 6 0
BBX 7 7 -1 0
BITMAP
1777A950
00004300
00779200
02600320
00778300
01201800
01978500
ENDCHAR
STARTCHAR uni091A
ENCODING 2330
SWIDTH 563 0
DWIDTH 6 0
BBX 8 7 -1 0
BITMAP
17777A92
00000530
06994530
00800530
00800730
00487930
00000530
ENDCHAR
STARTCHAR uni091B
ENCODING 2331
SWIDTH 581 0
DWIDTH 6 0
BBX 8 7 -1 0
BITMAP
17C779A4
02600440
01702940
00A70080
01700080
02600080
00888830
ENDCHAR
STARTCHAR uni091C
ENCODING 2332
SWIDTH 547 0
DWIDTH 6 0
BBX 8 7 -1 0
BITMAP
17777B71
00000800
018A8C00
00080800
00081800
05860800
00000800
ENDCHAR
STARTCHAR uni091D
ENCODING 2333
SWIDTH 664 0
DWIDTH 7 0
BBX 9 8 -1 -1
BITMAP
1777C79A30
0077804400
0360004400
0087A79400
0000624400
0440524400
04A7903400
0220000000
ENDCHAR
STARTCHAR uni091E
ENCODING 2334
SWIDTH 592 0
DWIDTH 7 0
BBX 8 7 -1 0
BITMAP
177778B5
02870080
00062080
00049880
00062080
04870080
00000070
ENDCHAR
STARTCHAR uni091F
ENCODING 2335
SWIDTH 485 0
DWIDTH 5 0
BBX 7 7 -1 0
BITMAP
1777A930
00005300
00789200
03500000
04400200
03500800
00988500
ENDCHAR
STARTCHAR uni0920
ENCODING 2336
SWIDTH 512 0
DWIDTH 6 0
BBX 7 7 -1 0
BITMAP
17779A60
00004400
0078B300
03500800
04400800
04400800
00988500
ENDCHAR
STARTCHAR uni0921
ENCODING 2337
SWIDTH 475 0
DWIDTH 5 0
BBX 7 7 -1 0
BITMAP
1777A930
00004300
00779200
02600000
00778300
02301800
01978400
ENDCHAR
STARTCHAR uni0922
ENCODING 2338
SWIDTH 485 0
DWIDTH 5 0
BBX 7 7 -1 0
BITMAP
1777A930
00004400
00678200
02600000
04428500
03541800
00888700
ENDCHAR
STARTCHAR uni0923
ENCODING 2339
SWIDTH 681 0
DWIDTH 7 0
BBX 9 7 -1 0
BITMAP
18B7B88B40
0160710700
0160710700
0180800700
0078600700
0000000700
0000000700
ENDCHAR
STARTCHAR uni0924
ENCODING 2340
SWIDTH 496 0
DWIDTH 5 0
BBX 7 7 -1 0
BITMAP
17778B40
00001700
00888700
03501700
04401700
04401700
01941600
ENDCHAR
STARTCHAR uni0925
ENCODING 2341
SWIDTH 593 0
DWIDTH 7 0
BBX 7 7 0 0
BITMAP
08840B50
07080800
01080800
48820800
44002800
07877800
00000800
ENDCHAR
STARTCHAR uni0926
ENCODING 2342
SWIDTH 489 0
DWIDTH 5 0
BBX 7 7 -1 0
BITMAP
17778A40
00002600
00888400
03500000
03500700
00787800
00000700
ENDCHAR
STARTCHAR uni0927
ENCODING 2343
SWIDTH 560 0
DWIDTH 6 0
BBX 8 7 -1 0
BITMAP
18C43A82
03600620
00B80620
02600620
02600720
00777920
00000520
ENDCHAR
STARTCHAR uni0928
ENCODING 2344
SWIDTH 473 0
DWIDTH 5 0
BBX 7 7 -1 0
BITMAP
1777A920
00005300
00005300
0387A300
06105300
00005300
00005300
ENDCHAR
STARTCHAR uni0928093C
ENCODING 2345
SWIDTH 473 0
DWIDTH 5 0
BBX 7 7 -1 0
BITMAP
1777A920
00005300
00005300
0387A300
05105300
00005300
00325300
ENDCHAR
STARTCHAR uni092A
ENCODING 2346
SWIDTH 503 0
DWIDTH 6 0
BBX 7 7 -1 0
BITMAP
18B77B50
01700800
01700800
01701800
00677800
00000800
00000800
ENDCHAR
STARTCHAR uni092B
ENCODING 2347
SWIDTH 739 0
DWIDTH 8 0
BBX 10 7 -1 0
BITMAP
18B78A7772
01702A7810
0170270360
0180360170
0068860360
0000266810
0000260000
ENDCHAR
STARTCHAR uni092C
ENCODING 2348
SWIDTH 491 0
DWIDTH 5 0
BBX 7 7 -1 0
BITMAP
17778A40
00772600
04A22600
05374600
04508600
00778600
00002600
ENDCHAR
STARTCHAR uni092D
ENCODING 2349
SWIDTH 491 0
DWIDTH 5 0
BBX 7 7 -1 0
BITMAP
19228A40
02602600
02602600
02B79600
02602600
00002600
00002600
ENDCHAR
STARTCHAR uni092E
ENCODING 2350
SWIDTH 490 0
DWIDTH 5 0
BBX 7 7 -1 0
BITMAP
18A79A40
02602600
02602600
02A79600
02602600
00002600
00002500
ENDCHAR
STARTCHAR uni092F
ENCODING 2351
SWIDTH 564 0
DWIDTH 6 0
BBX 8 7 -1 0
BITMAP
178C7A92
00080530
03850530
04400530
02600730
00577930
00000530
ENDCHAR
STARTCHAR uni0930
ENCODING 2352
SWIDTH 337 0
DWIDTH 4 0
BBX 5 7 -1 0
BITMAP
177C60
000800
000900
079400
027000
007200
000800
ENDCHAR
STARTCHAR uni0930093C
ENCODING 2353
SWIDTH 347 0
DWIDTH 4 0
BBX 5 8 -1 -1
BITMAP
177C70
000800
000900
059500
018000
005300
000700
050000
ENDCHAR
STARTCHAR uni0932
ENCODING 2354
SWIDTH 676 0
DWIDTH 7 0
BBX 9 7 -1 0
BITMAP
1777778B40
0000002700
0078488700
0260A03700
0350802700
0350002700
0097001600
ENDCHAR
STARTCHAR uni0933
ENCODING 2355
SWIDTH 672 0
DWIDTH 7 0
BBX 9 7 -1 0
BITMAP
177779A740
0000034000
0077599200
0350A10800
0440800800
0440900800
0097888300
ENDCHAR
STARTCHAR uni0933093C
ENCODING 2356
SWIDTH 672 0
DWIDTH 7 0
BBX 9 8 -1 -1
BITMAP
177779A740
0000034000
0077599200
0350A10800
0440800800
0440900800
0097888300
0005000000
ENDCHAR
STARTCHAR uni0935
ENCODING 2357
SWIDTH 484 0
DWIDTH 5 0
BBX 7 7 -1 0
BITMAP
17779A30
00773500
04503500
05403500
04504500
00778500
00003500
ENDCHAR
STARTCHAR uni0936
ENCODING 2358
SWIDTH 614 0
DWIDTH 7 0
BBX 7 7 0 0
BITMAP
19860960
35080800
00080800
58830800
18000800
06300800
00900800
ENDCHAR
STARTCHAR uni0937
ENCODING 2359
SWIDTH 505 0
DWIDTH 6 0
BBX 7 7 -1 0
BITMAP
18C77B50
01A50800
01744800
01705800
00687800
00000800
00000700
ENDCHAR
STARTCHAR uni0938
ENCODING 2360
SWIDTH 575 0
DWIDTH 6 0
BBX 8 7 -1 0
BITMAP
177C79A3
00080350
00080350
07A98950
03600350
00810350
00170350
ENDCHAR
STARTCHAR uni0939
ENCODING 2361
SWIDTH 481 0
DWIDTH 5 0
BBX 7 8 -1 -1
BITMAP
17779A30
00688300
01700000
01700000
00978200
02701700
02600000
00677200
ENDCHAR
STARTCHAR uni093C
ENCODING 2364
SWIDTH 0 0
DWIDTH 0 0
BBX 1 1 -2 -1
BITMAP
50
ENDCHAR
STARTCHAR uni093D
ENCODING 2365
SWIDTH 529 0
DWIDTH 6 0
BBX 4 7 1 0
BITMAP
6873
8000
4800
0393
0009
4008
5777
ENDCHAR
STARTCHAR uni093E
ENCODING 2366
SWIDTH 231 0
DWIDTH 3 0
BBX 4 7 -1 0
BITMAP
17B5
0080
0080
0080
0080
0080
0080
ENDCHAR
STARTCHAR uni093F
ENCODING 2367
SWIDTH 231 0
DWIDTH 3 0
BBX 8 10 -1 0
BITMAP
00888887
00800008
00800001
17B50000
00800000
00800000
00800000
00800000
00800000
00800000
ENDCHAR
STARTCHAR uni0940
ENCODING 2368
SWIDTH 231 0
DWIDTH 3 0
BBX 5 10 -2 0
BITMAP
389300
800800
100800
017B50
000800
000800
000800
000800
000800
000800
ENDCHAR
STARTCHAR uni0941
ENCODING 2369
SWIDTH 0 0
DWIDTH 0 0
BBX 5 3 -4 -3
BITMAP
201410
710340
187920
ENDCHAR
STARTCHAR uni0942
ENCODING 2370
SWIDTH 0 0
DWIDTH 0 0
BBX 5 3 -3 -3
BITMAP
577100
801700
770710
ENDCHAR
STARTCHAR uni0943
ENCODING 2371
SWIDTH 0 0
DWIDTH 0 0
BBX 4 3 -3 -3
BITMAP
6600
8000
8782
ENDCHAR
STARTCHAR uni0945
ENCODING 2373
SWIDTH 0 0
DWIDTH 0 0
BBX 4 2 -3 7
BITMAP
7015
5771
ENDCHAR
STARTCHAR uni0946
ENCODING 2374
SWIDTH 0 0
DWIDTH 0 0
BBX 4 4 -4 6
BITMAP
8000
5810
0190
0031
ENDCHAR
STARTCHAR uni0947
ENCODING 2375
SWIDTH 0 0
DWIDTH 0 0
BBX 4 4 -4 6
BITMAP
3700
0820
0180
0021
ENDCHAR
STARTCHAR uni0948
ENCODING 2376
SWIDTH 0 0
DWIDTH 0 0
BBX 4 4 -4 6
BITMAP
4570
0880
01B0
0011
ENDCHAR
STARTCHAR uni0949
ENCODING 2377
SWIDTH 231 0
DWIDTH 3 0
BBX 4 9 -1 0
BITMAP
5106
1775
17B5
0080
0080
0080
0080
0080
0080
ENDCHAR
STARTCHAR uni094A
ENCODING 2378
SWIDTH 231 0
DWIDTH 3 0
BBX 5 10 -2 0
BITMAP
440000
085000
005600
017B50
000800
000800
000800
000800
000800
000800
ENDCHAR
STARTCHAR uni094B
ENCODING 2379
SWIDTH 231 0
DWIDTH 3 0
BBX 4 10 -1 0
BITMAP
8100
1800
0430
17B5
0080
0080
0080
0080
0080
0080
ENDCHAR
STARTCHAR uni094C
ENCODING 2380
SWIDTH 231 0
DWIDTH 3 0
BBX 4 10 -1 0
BITMAP
8080
2680
0470
17B5
0080
0080
0080
0080
0080
0080
ENDCHAR
STARTCHAR uni094D
ENCODING 2381
SWIDTH 0 0
DWIDTH 0 0
BBX 2 2 -2 -2
BITMAP
54
09
ENDCHAR
STARTCHAR uni0950
ENCODING 2384
SWIDTH 847 0
DWIDTH 9 0
BBX 9 9 0 0
BITMAP
0000042000
0000000220
0488037600
0006200000
0007138810
0189000350
1007460160
5306280260
1988048930
ENDCHAR
STARTCHAR uni0951
ENCODING 2385
SWIDTH 0 0
DWIDTH 0 0
BBX 1 2 -2 8
BITMAP
80
80
ENDCHAR
STARTCHAR uni0952
ENCODING 2386
SWIDTH 0 0
DWIDTH 0 0
BBX 4 1 -5 -1
BITMAP
4776
ENDCHAR
STARTCHAR uni0953
ENCODING 2387
SWIDTH 0 0
DWIDTH 0 0
BBX 2 2 -3 8
BITMAP
72
18
ENDCHAR
STARTCHAR uni0954
ENCODING 2388
SWIDTH 0 0
DWIDTH 0 0
BBX 3 2 -2 8
BITMAP
0810
4400
ENDCHAR
STARTCHAR uni0915093C
ENCODING 2392
SWIDTH 725 0
DWIDTH 8 0
BBX 10 8 -1 -1
BITMAP
1777997771
0076487700
0440450530
0530440340
0440540530
0077947700
0000440000
0041000000
ENDCHAR
STARTCHAR uni0916093C
ENCODING 2393
SWIDTH 696 0
DWIDTH 8 0
BBX 9 8 -1 -1
BITMAP
177C777B60
0008000800
0009182800
0794710800
0270710900
0073187800
0009000800
0410000000
ENDCHAR
STARTCHAR uni0917093C
ENCODING 2394
SWIDTH 494 0
DWIDTH 5 0
BBX 7 8 -1 -1
BITMAP
17B78B40
00802600
00802600
00802600
06502600
00002600
00001600
00500000
ENDCHAR
STARTCHAR uni091C093C
ENCODING 2395
SWIDTH 547 0
DWIDTH 6 0
BBX 8 8 -1 -1
BITMAP
17777B71
00000800
018A8C00
00080800
00081800
05860800
00000800
00400000
ENDCHAR
STARTCHAR uni0921093C
ENCODING 2396
SWIDTH 475 0
DWIDTH 5 0
BBX 7 9 -1 -2
BITMAP
1777A930
00004300
00779200
02600000
00778300
02301800
01978400
00000000
00050000
ENDCHAR
STARTCHAR uni0922093C
ENCODING 2397
SWIDTH 485 0
DWIDTH 5 0
BBX 7 9 -1 -2
BITMAP
1777A930
00004400
00678200
02600000
04428500
03541800
00888700
00000000
00050000
ENDCHAR
STARTCHAR uni092B093C
ENCODING 2398
SWIDTH 739 0
DWIDTH 8 0
BBX 10 8 -1 -1
BITMAP
18B78A7772
01702A7810
0170270360
0180360170
0068860360
0000266810
0000260000
0040000000
ENDCHAR
STARTCHAR uni092F093C
ENCODING 2399
SWIDTH 564 0
DWIDTH 6 0
BBX 8 8 -1 -1
BITMAP
178C7A92
00080530
03850530
04400530
02600730
00577930
00000530
00500000
ENDCHAR
STARTCHAR uni0960
ENCODING 2400
SWIDTH 753 0
DWIDTH 8 0
BBX 10 9 -1 -2
BITMAP
17778B7773
0000260000
0077860750
0450378370
03204A3430
0006B67100
0184264940
0000007200
0000003750
ENDCHAR
STARTCHAR uni0961
ENCODING 2401
SWIDTH 676 0
DWIDTH 7 0
BBX 9 10 -1 -3
BITMAP
1777778B40
0000002700
0078488700
0260A03700
0350702700
0350028400
0097071000
000004A400
0000070000
0000048500
ENDCHAR
STARTCHAR uni0964
ENCODING 2404
SWIDTH 286 0
DWIDTH 3 0
BBX 2 7 1 0
BITMAP
61
61
61
61
61
61
61
ENDCHAR
STARTCHAR uni0965
ENCODING 2405
SWIDTH 518 0
DWIDTH 6 0
BBX 4 7 1 0
BITMAP
6108
6108
6108
6108
6108
6108
6108
ENDCHAR
STARTCHAR uni0966
ENCODING 2406
SWIDTH 519 0
DWIDTH 6 0
BBX 5 7 0 0
BITMAP
098870
350080
440080
440080
440080
350080
097770
ENDCHAR
STARTCHAR uni0967
ENCODING 2407
SWIDTH 288 0
DWIDTH 3 0
BBX 3 7 0 0
BITMAP
3A40
4440
0440
0440
0440
0440
0340
ENDCHAR
STARTCHAR uni0968
ENCODING 2408
SWIDTH 453 0
DWIDTH 5 0
BBX 5 7 0 0
BITMAP
298930
620070
100360
004700
065000
450000
697740
ENDCHAR
STARTCHAR uni0969
ENCODING 2409
SWIDTH 489 0
DWIDTH 5 0
BBX 5 7 0 0
BITMAP
298840
620080
000070
005A20
100070
620080
287840
ENDCHAR
STARTCHAR uni096A
ENCODING 2410
SWIDTH 453 0
DWIDTH 5 0
BBX 5 7 0 0
BITMAP
001D10
008810
035710
090710
630710
877B80
000710
ENDCHAR
STARTCHAR uni096B
ENCODING 2411
SWIDTH 480 0
DWIDTH 5 0
BBX 5 7 0 0
BITMAP
3A8840
440000
497820
120080
110080
350080
097840
ENDCHAR
STARTCHAR uni096C
ENCODING 2412
SWIDTH 495 0
DWIDTH 5 0
BBX 5 7 0 0
BITMAP
098840
350000
487830
460090
440080
350080
097860
ENDCHAR
STARTCHAR uni096D
ENCODING 2413
SWIDTH 380 0
DWIDTH 4 0
BBX 4 7 0 0
BITMAP
688C
0018
0063
0090
0270
0810
0900
ENDCHAR
STARTCHAR uni096E
ENCODING 2414
SWIDTH 523 0
DWIDTH 6 0
BBX 5 7 0 0
BITMAP
098870
350080
260080
0A8870
260080
350080
097770
ENDCHAR
STARTCHAR uni096F
ENCODING 2415
SWIDTH 493 0
DWIDTH 5 0
BBX 5 7 0 0
BITMAP
298840
720080
620080
187790
000080
000080
177840
ENDCHAR
STARTCHAR uni0970
ENCODING 2416
SWIDTH 391 0
DWIDTH 4 0
BBX 4 4 0 1
BITMAP
1884
8108
7108
1774
ENDCHAR
STARTCHAR uni0972
ENCODING 2418
SWIDTH 598 0
DWIDTH 7 0
BBX 7 9 0 0
BITMAP
00052060
00017760
17920B50
00170800
00250800
00697800
00170800
00260800
48810800
ENDCHAR
STARTCHAR Wgrave
ENCODING 7808
SWIDTH 795 0
DWIDTH 9 0
BBX 9 10 0 0
BITMAP
0009100000
0001300000
8101C00540
6305A10720
3608440900
0808070900
0817081800
0844074500
0691059200
03B001D000
ENDCHAR
STARTCHAR wgrave
ENCODING 7809
SWIDTH 682 0
DWIDTH 8 0
BBX 8 8 0 0
BITMAP
00360000
00020000
800A2062
62086080
26257080
08617350
08705810
05801C00
ENDCHAR
STARTCHAR Wacute
ENCODING 7810
SWIDTH 795 0
DWIDTH 9 0
BBX 9 10 0 0
BITMAP
0000450000
0000400000
8101C00540
6305A10720
3608440900
0808070900
0817081800
0844074500
0691059200
03B001D000
ENDCHAR
STARTCHAR wacute
ENCODING 7811
SWIDTH 682 0
DWIDTH 8 0
BBX 8 8 0 0
BITMAP
00019000
00021000
800A2062
62086080
26257080
08617350
08705810
05801C00
ENDCHAR
STARTCHAR Wdieresis
ENCODING 7812
SWIDTH 795 0
DWIDTH 9 0
BBX 9 10 0 0
BITMAP
0008080000
0004040000
8101C00540
6305A10720
3608440900
0808070900
0817081800
0844074500
0691059200
03B001D000
ENDCHAR
STARTCHAR wdieresis
ENCODING 7813
SWIDTH 682 0
DWIDTH 8 0
BBX 8 8 0 0
BITMAP
00628000
00314000
800A2062
62086080
26257080
08617350
08705810
05801C00
ENDCHAR
STARTCHAR uni1E9E
ENCODING 7838
SWIDTH 542 0
DWIDTH 6 0
BBX 6 8 0 0
BITMAP
0888C1
170080
270630
270780
270054
270035
270044
162890
ENDCHAR
STARTCHAR Ygrave
ENCODING 7922
SWIDTH 493 0
DWIDTH 5 0
BBX 5 10 0 0
BITMAP
036000
004000
810090
270280
090720
036800
00B300
008000
008000
008000
ENDCHAR
STARTCHAR ygrave
ENCODING 7923
SWIDTH 459 0
DWIDTH 5 0
BBX 5 10 0 -2
BITMAP
036000
002000
810080
450450
080810
080800
057600
01D100
008000
393000
ENDCHAR
STARTCHAR uni200B
ENCODING 8203
SWIDTH 0 0
DWIDTH 0 0
BBX 1 1 0 0
BITMAP
00
ENDCHAR
STARTCHAR uni200C
ENCODING 8204
SWIDTH 0 0
DWIDTH 0 0
BBX 2 12 -1 -3
BITMAP
44
44
44
44
44
44
44
44
44
44
44
44
ENDCHAR
STARTCHAR uni200D
ENCODING 8205
SWIDTH 0 0
DWIDTH 0 0
BBX 4 13 -2 -3
BITMAP
1001
2982
0AA0
2773
0440
0440
0440
0440
0440
0440
0440
0440
0440
ENDCHAR
STARTCHAR endash
ENCODING 8211
SWIDTH 408 0
DWIDTH 4 0
BBX 4 1 0 3
BITMAP
4777
ENDCHAR
STARTCHAR emdash
ENCODING 8212
SWIDTH 537 0
DWIDTH 6 0
BBX 6 1 0 3
BITMAP
477773
ENDCHAR
STARTCHAR quoteleft
ENCODING 8216
SWIDTH 179 0
DWIDTH 2 0
BBX 2 3 0 5
BITMAP
02
34
54
ENDCHAR
STARTCHAR quoteright
ENCODING 8217
SWIDTH 179 0
DWIDTH 2 0
BBX 2 3 0 5
BITMAP
54
52
20
ENDCHAR
STARTCHAR quotesinglbase
ENCODING 8218
SWIDTH 187 0
DWIDTH 2 0
BBX 2 3 0 -1
BITMAP
34
44
41
ENDCHAR
STARTCHAR quotedblleft
ENCODING 8220
SWIDTH 329 0
DWIDTH 4 0
BBX 3 3 0 5
BITMAP
0220
3470
5480
ENDCHAR
STARTCHAR quotedblright
ENCODING 8221
SWIDTH 329 0
DWIDTH 4 0
BBX 3 3 0 5
BITMAP
5480
5270
2020
ENDCHAR
STARTCHAR quotedblbase
ENCODING 8222
SWIDTH 337 0
DWIDTH 4 0
BBX 3 3 0 -1
BITMAP
3470
4480
3040
ENDCHAR
STARTCHAR dagger
ENCODING 8224
SWIDTH 427 0
DWIDTH 5 0
BBX 5 8 0 0
BITMAP
008000
007000
37A710
008000
008000
008000
007000
005000
ENDCHAR
STARTCHAR daggerdbl
ENCODING 8225
SWIDTH 427 0
DWIDTH 5 0
BBX 5 8 0 0
BITMAP
008000
007000
37A710
008000
008000
37A710
007000
008000
ENDCHAR
STARTCHAR bullet
ENCODING 8226
SWIDTH 273 0
DWIDTH 3 0
BBX 1 2 1 3
BITMAP
E0
E0
ENDCHAR
STARTCHAR ellipsis
ENCODING 8230
SWIDTH 591 0
DWIDTH 7 0
BBX 6 2 0 0
BITMAP
230506
451809
ENDCHAR
STARTCHAR perthousand
ENCODING 8240
SWIDTH 1027 0
DWIDTH 11 0
BBX 11 8 0 0
BITMAP
378206000000
702552000000
612570000000
177250000000
000627714750
000761257070
004370257070
007037826670
ENDCHAR
STARTCHAR guilsinglleft
ENCODING 8249
SWIDTH 290 0
DWIDTH 3 0
BBX 3 4 0 1
BITMAP
0130
1810
2600
0440
ENDCHAR
STARTCHAR guilsinglright
ENCODING 8250
SWIDTH 290 0
DWIDTH 3 0
BBX 3 4 0 1
BITMAP
2200
0720
0450
2500
ENDCHAR
STARTCHAR fraction
ENCODING 8260
SWIDTH 117 0
DWIDTH 1 0
BBX 6 8 -2 0
BITMAP
000053
000170
000800
005400
017000
071000
440000
700000
ENDCHAR
STARTCHAR Euro
ENCODING 8364
SWIDTH 523 0
DWIDTH 6 0
BBX 5 8 0 0
BITMAP
058870
080080
080030
4B7400
4B7400
080030
080080
058870
ENDCHAR
STARTCHAR uni20B9
ENCODING 8377
SWIDTH 414 0
DWIDTH 5 0
BBX 5 7 0 0
BITMAP
48C710
47B710
008000
685000
280000
054000
008100
ENDCHAR
STARTCHAR trademark
ENCODING 8482
SWIDTH 591 0
DWIDTH 7 0
BBX 6 3 0 4
BITMAP
194919
050696
040404
ENDCHAR
STARTCHAR uni2126
ENCODING 8486
SWIDTH 629 0
DWIDTH 7 0
BBX 7 7 0 0
BITMAP
07888600
08000800
08000800
08000800
08000800
08000800
4B819B30
ENDCHAR
STARTCHAR partialdiff
ENCODING 8706
SWIDTH 481 0
DWIDTH 5 0
BBX 5 8 0 0
BITMAP
045100
003910
000270
078780
450190
530080
540080
198930
ENDCHAR
STARTCHAR uni2206
ENCODING 8710
SWIDTH 594 0
DWIDTH 7 0
BBX 7 7 0 0
BITMAP
004B0000
00873000
01818000
06309000
09004400
27000900
89888C10
ENDCHAR
STARTCHAR minus
ENCODING 8722
SWIDTH 523 0
DWIDTH 6 0
BBX 5 1 0 3
BITMAP
188870
ENDCHAR
STARTCHAR approxequal
ENCODING 8776
SWIDTH 523 0
DWIDTH 6 0
BBX 5 3 0 2
BITMAP
166650
000000
166650
ENDCHAR
STARTCHAR notequal
ENCODING 8800
SWIDTH 523 0
DWIDTH 6 0
BBX 5 5 0 1
BITMAP
000600
178A70
005200
17B770
006000
ENDCHAR
STARTCHAR lessequal
ENCODING 8804
SWIDTH 523 0
DWIDTH 6 0
BBX 5 5 0 1
BITMAP
000150
167620
177510
000360
177770
ENDCHAR
STARTCHAR greaterequal
ENCODING 8805
SWIDTH 523 0
DWIDTH 6 0
BBX 5 5 0 1
BITMAP
151000
037750
016760
161000
177770
ENDCHAR
STARTCHAR uni25CC
ENCODING 9676
SWIDTH 701 0
DWIDTH 8 0
BBX 7 7 0 0
BITMAP
000A6500
01900460
0A000000
000000A0
290000A0
07300910
0065A000
ENDCHAR
STARTCHAR commaaccent
ENCODING 63171
SWIDTH 0 0
DWIDTH 0 0
BBX 1 3 2 -3
BITMAP
20
80
40
ENDCHAR
STARTCHAR .notdef
ENCODING -1
SWIDTH 600 0
DWIDTH 7 0
BBX 5 7 1 0
BITMAP
788930
800440
800440
800440
800440
800440
788930
ENDCHAR
STARTCHAR .null
ENCODING -1
SWIDTH 0 0
DWIDTH 0 0
BBX 1 1 0 0
BITMAP
00
ENDCHAR
STARTCHAR nonmarkingreturn
ENCODING -1
SWIDTH 333 0
DWIDTH 4 0
BBX 1 1 0 0
BITMAP
00
ENDCHAR
STARTCHAR uni0915094D
ENCODING -1
SWIDTH 519 0
DWIDTH 6 0
BBX 9 7 -1 0
BITMAP
1777997710
0076497700
0440450200
0530440000
0440540000
0077940000
0000440000
ENDCHAR
STARTCHAR uni0916094D
ENCODING -1
SWIDTH 468 0
DWIDTH 5 0
BBX 8 7 -1 0
BITMAP
177C7772
00080000
00091820
07947100
02707102
00731871
00090000
ENDCHAR
STARTCHAR uni0917094D
ENCODING -1
SWIDTH 264 0
DWIDTH 3 0
BBX 4 5 -1 2
BITMAP
17B7
0080
0080
0080
0650
ENDCHAR
STARTCHAR uni0918094D
ENCODING -1
SWIDTH 321 0
DWIDTH 4 0
BBX 6 6 -1 1
BITMAP
18C887
036000
00B800
026000
026002
007875
ENDCHAR
STARTCHAR uni0919094D
ENCODING -1
SWIDTH 505 0
DWIDTH 6 0
BBX 7 10 -1 -3
BITMAP
1777A950
00004300
00779200
02600320
00778300
01201800
01978500
00030000
00026000
00004000
ENDCHAR
STARTCHAR uni091A094D
ENCODING -1
SWIDTH 330 0
DWIDTH 4 0
BBX 6 6 -1 1
BITMAP
177777
000000
069940
008000
008002
004875
ENDCHAR
STARTCHAR uni091B094D
ENCODING -1
SWIDTH 581 0
DWIDTH 6 0
BBX 8 7 -1 0
BITMAP
17C77774
02600000
01702820
00A70080
01700080
02600080
00888830
ENDCHAR
STARTCHAR uni091C094D
ENCODING -1
SWIDTH 309 0
DWIDTH 3 0
BBX 6 6 -1 1
BITMAP
177774
000000
018A84
000800
000810
058600
ENDCHAR
STARTCHAR uni091D094D
ENCODING -1
SWIDTH 432 0
DWIDTH 5 0
BBX 7 8 -1 -1
BITMAP
1777C760
00008000
00778000
03600000
0077A760
03306300
04A79100
04400000
ENDCHAR
STARTCHAR uni091E094D
ENCODING -1
SWIDTH 359 0
DWIDTH 4 0
BBX 6 6 -1 1
BITMAP
177777
028700
000620
000497
000620
048700
ENDCHAR
STARTCHAR uni091F094D
ENCODING -1
SWIDTH 485 0
DWIDTH 5 0
BBX 7 10 -1 -3
BITMAP
1777A930
00005300
00789200
03500000
04400200
03500800
00988500
00020000
00027000
00004000
ENDCHAR
STARTCHAR uni0920094D
ENCODING -1
SWIDTH 512 0
DWIDTH 6 0
BBX 7 10 -1 -3
BITMAP
17779A60
00004400
0078B300
03500800
04400800
04400800
00988500
00020000
00036000
00004000
ENDCHAR
STARTCHAR uni0921094D
ENCODING -1
SWIDTH 475 0
DWIDTH 5 0
BBX 7 10 -1 -3
BITMAP
1777A930
00004300
00779200
02600000
00778300
02301800
01978400
00030000
00027000
00004000
ENDCHAR
STARTCHAR uni0922094D
ENCODING -1
SWIDTH 485 0
DWIDTH 5 0
BBX 7 10 -1 -3
BITMAP
1777A930
00004400
00678200
02600000
04428500
03541800
00888700
00020000
00027000
00004000
ENDCHAR
STARTCHAR uni0923094D
ENCODING -1
SWIDTH 454 0
DWIDTH 5 0
BBX 7 5 -1 2
BITMAP
18B7B810
01607100
01607100
01808000
00786000
ENDCHAR
STARTCHAR uni0924094D
ENCODING -1
SWIDTH 263 0
DWIDTH 3 0
BBX 5 7 -1 0
BITMAP
177770
000000
007870
035000
044000
044000
019400
ENDCHAR
STARTCHAR uni0925094D
ENCODING -1
SWIDTH 359 0
DWIDTH 4 0
BBX 6 6 0 1
BITMAP
088400
070800
010800
488200
440011
078770
ENDCHAR
STARTCHAR uni0926094D
ENCODING -1
SWIDTH 489 0
DWIDTH 5 0
BBX 7 9 -1 -2
BITMAP
17778A40
00002600
00888400
03500000
03500700
00787800
00000700
00044000
00004000
ENDCHAR
STARTCHAR uni0927094D
ENCODING -1
SWIDTH 321 0
DWIDTH 4 0
BBX 6 6 -1 1
BITMAP
18C547
036000
00B800
026000
026002
007875
ENDCHAR
STARTCHAR uni0928094D
ENCODING -1
SWIDTH 233 0
DWIDTH 3 0
BBX 5 5 -1 2
BITMAP
177750
000000
000000
048750
070000
ENDCHAR
STARTCHAR uni092A094D
ENCODING -1
SWIDTH 269 0
DWIDTH 3 0
BBX 6 5 -1 2
BITMAP
18B773
017000
017000
017012
006881
ENDCHAR
STARTCHAR uni092B094D
ENCODING -1
SWIDTH 530 0
DWIDTH 6 0
BBX 9 7 -1 0
BITMAP
18B78A7720
01702A7700
0170270210
0180360000
0068860000
0000260000
0000260000
ENDCHAR
STARTCHAR uni092C094D
ENCODING -1
SWIDTH 265 0
DWIDTH 3 0
BBX 6 6 -1 1
BITMAP
177772
007700
039200
043721
045084
007870
ENDCHAR
STARTCHAR uni092D094D
ENCODING -1
SWIDTH 261 0
DWIDTH 3 0
BBX 5 5 -1 2
BITMAP
192270
026000
026000
02B770
026000
ENDCHAR
STARTCHAR uni092E094D
ENCODING -1
SWIDTH 261 0
DWIDTH 3 0
BBX 5 5 -1 2
BITMAP
18A770
026000
026000
02A770
026000
ENDCHAR
STARTCHAR uni092F094D
ENCODING -1
SWIDTH 323 0
DWIDTH 4 0
BBX 6 6 -1 1
BITMAP
178C74
000800
038500
044000
026003
005774
ENDCHAR
STARTCHAR uni0930094D
ENCODING -1
SWIDTH 337 0
DWIDTH 4 0
BBX 5 10 -1 -3
BITMAP
177C60
000800
000900
079400
027000
007200
000800
003100
001700
000400
ENDCHAR
STARTCHAR uni0932094D
ENCODING -1
SWIDTH 431 0
DWIDTH 5 0
BBX 8 7 -1 0
BITMAP
17777771
00000000
00784870
0260A010
03508000
03500000
00970000
ENDCHAR
STARTCHAR uni0933094D
ENCODING -1
SWIDTH 677 0
DWIDTH 7 0
BBX 9 7 -1 0
BITMAP
1777777740
0000000000
0077588200
0350A10700
0440800800
0440900800
0097888300
ENDCHAR
STARTCHAR uni0935094D
ENCODING -1
SWIDTH 255 0
DWIDTH 3 0
BBX 6 6 -1 1
BITMAP
177772
007700
034000
043001
045024
007870
ENDCHAR
STARTCHAR uni0936094D
ENCODING -1
SWIDTH 378 0
DWIDTH 4 0
BBX 4 7 0 0
BITMAP
1986
3508
0008
5883
1800
0630
0090
ENDCHAR
STARTCHAR uni0937094D
ENCODING -1
SWIDTH 282 0
DWIDTH 3 0
BBX 6 5 -1 2
BITMAP
18C774
01A500
017440
017054
006871
ENDCHAR
STARTCHAR uni0938094D
ENCODING -1
SWIDTH 338 0
DWIDTH 4 0
BBX 6 7 -1 0
BITMAP
177C77
000800
000800
07A987
036000
008100
001700
ENDCHAR
STARTCHAR uni0939094D
ENCODING -1
SWIDTH 457 0
DWIDTH 5 0
BBX 8 8 -1 -1
BITMAP
17779A30
00688300
01700000
01700000
00987771
02700000
02600000
00677200
ENDCHAR
STARTCHAR uni0915093C094D
ENCODING -1
SWIDTH 519 0
DWIDTH 6 0
BBX 9 8 -1 -1
BITMAP
1777997710
0076497700
0440450200
0530440000
0440540000
0077940000
0000440000
0050000000
ENDCHAR
STARTCHAR uni0916093C094D
ENCODING -1
SWIDTH 463 0
DWIDTH 5 0
BBX 8 8 -1 -1
BITMAP
177C7772
00080000
00091820
07947100
02707102
00731871
00090000
02300000
ENDCHAR
STARTCHAR uni0917093C094D
ENCODING -1
SWIDTH 264 0
DWIDTH 3 0
BBX 4 7 -1 0
BITMAP
17B7
0080
0080
0080
0650
0000
0050
ENDCHAR
STARTCHAR uni091C093C094D
ENCODING -1
SWIDTH 314 0
DWIDTH 3 0
BBX 6 8 -1 -1
BITMAP
177774
000000
018A84
000800
000810
058600
000000
005000
ENDCHAR
STARTCHAR uni0928093C094D
ENCODING -1
SWIDTH 241 0
DWIDTH 3 0
BBX 4 7 0 0
BITMAP
7775
0000
0000
3875
5100
0000
0500
ENDCHAR
STARTCHAR uni092B093C094D
ENCODING -1
SWIDTH 530 0
DWIDTH 6 0
BBX 9 8 -1 -1
BITMAP
18B78A7720
01702A7700
0170270210
0180360000
0068860000
0000260000
0000260000
0041000000
ENDCHAR
STARTCHAR uni092F093C094D
ENCODING -1
SWIDTH 325 0
DWIDTH 4 0
BBX 6 8 -1 -1
BITMAP
178C74
000800
038500
044000
026003
005774
000000
003200
ENDCHAR
STARTCHAR uni09080902
ENCODING -1
SWIDTH 478 0
DWIDTH 5 0
BBX 7 11 -1 -1
BITMAP
00009700
00035500
00035000
1777A930
00004400
00879200
03600000
00878300
03400800
04A78500
01100000
ENDCHAR
STARTCHAR uni09300941
ENCODING -1
SWIDTH 533 0
DWIDTH 6 0
BBX 7 7 -1 0
BITMAP
177C7770
00080000
000A7800
07960620
02700810
00725200
00080000
ENDCHAR
STARTCHAR uni09300942
ENCODING -1
SWIDTH 645 0
DWIDTH 7 0
BBX 9 7 -1 0
BITMAP
177C777720
0008188100
0009523500
0794412500
0270009200
0072082000
0008000000
ENDCHAR
STARTCHAR uni09390941
ENCODING -1
SWIDTH 495 0
DWIDTH 5 0
BBX 7 10 -1 -3
BITMAP
17779A40
00003500
00788300
01700000
00978200
02701700
02600000
00677400
03300800
00777500
ENDCHAR
STARTCHAR uni09390942
ENCODING -1
SWIDTH 492 0
DWIDTH 5 0
BBX 7 10 -1 -3
BITMAP
17779A30
00003500
00788300
01700000
00A78200
02601500
00973000
00806300
00800700
00760700
ENDCHAR
STARTCHAR uni09260943
ENCODING -1
SWIDTH 390 0
DWIDTH 4 0
BBX 6 7 -1 0
BITMAP
1778B3
000170
007740
027000
00A700
026000
009850
ENDCHAR
STARTCHAR uni09390943
ENCODING -1
SWIDTH 519 0
DWIDTH 6 0
BBX 7 9 -1 -2
BITMAP
17779A60
00004400
00888300
03600000
00A98810
03570310
04448700
03500000
00777200
ENDCHAR
STARTCHAR uni094D0930
ENCODING -1
SWIDTH 0 0
DWIDTH 0 0
BBX 4 2 -5 -2
BITMAP
06A1
3618
ENDCHAR
STARTCHAR uni0930094D.1
ENCODING -1
SWIDTH 192 0
DWIDTH 2 0
BBX 5 3 -1 4
BITMAP
177200
200110
488710
ENDCHAR
STARTCHAR uni0930094D.2
ENCODING -1
SWIDTH 0 0
DWIDTH 0 0
BBX 3 3 -2 7
BITMAP
4810
8000
8000
ENDCHAR
STARTCHAR uni0930094D0902
ENCODING -1
SWIDTH 0 0
DWIDTH 0 0
BBX 3 3 -2 7
BITMAP
4810
8410
8000
ENDCHAR
STARTCHAR uni093E0930094D
ENCODING -1
SWIDTH 231 0
DWIDTH 3 0
BBX 4 10 -1 0
BITMAP
0086
0080
0080
17B5
0080
0080
0080
0080
0080
0080
ENDCHAR
STARTCHAR uni093E0930094D0902
ENCODING -1
SWIDTH 231 0
DWIDTH 3 0
BBX 4 10 -1 0
BITMAP
0086
0085
0080
17B5
0080
0080
0080
0080
0080
0080
ENDCHAR
STARTCHAR uni0930094D.aMatraI
ENCODING -1
SWIDTH 0 0
DWIDTH 0 0
BBX 3 3 -1 7
BITMAP
1810
7100
8000
ENDCHAR
STARTCHAR uni0902.aMatraI
ENCODING -1
SWIDTH 0 0
DWIDTH 0 0
BBX 1 1 0 8
BITMAP
50
ENDCHAR
STARTCHAR uni0930094D0902.aMatraI
ENCODING -1
SWIDTH 0 0
DWIDTH 0 0
BBX 3 3 -1 7
BITMAP
1810
7100
8410
ENDCHAR
STARTCHAR uni09400930094D
ENCODING -1
SWIDTH 231 0
DWIDTH 3 0
BBX 5 10 -2 0
BITMAP
388960
800800
100800
017B50
000800
000800
000800
000800
000800
000800
ENDCHAR
STARTCHAR uni09400902
ENCODING -1
SWIDTH 231 0
DWIDTH 3 0
BBX 5 10 -2 0
BITMAP
399300
800860
200800
017B50
000800
000800
000800
000800
000800
000800
ENDCHAR
STARTCHAR uni09400930094D0902
ENCODING -1
SWIDTH 231 0
DWIDTH 3 0
BBX 5 10 -2 0
BITMAP
488960
700850
000800
017B50
000800
000800
000800
000800
000800
000800
ENDCHAR
STARTCHAR uni0940.aLong
ENCODING -1
SWIDTH 231 0
DWIDTH 3 0
BBX 8 10 -5 0
BITMAP
19888930
34000080
11000080
000017B5
00000080
00000080
00000080
00000080
00000080
00000080
ENDCHAR
STARTCHAR uni09400930094D.aLong
ENCODING -1
SWIDTH 231 0
DWIDTH 3 0
BBX 8 10 -5 0
BITMAP
19888896
34000080
11000080
000017B5
00000080
00000080
00000080
00000080
00000080
00000080
ENDCHAR
STARTCHAR uni09400902.aLong
ENCODING -1
SWIDTH 231 0
DWIDTH 3 0
BBX 8 10 -5 0
BITMAP
19888930
34000086
11000080
000017B5
00000080
00000080
00000080
00000080
00000080
00000080
ENDCHAR
STARTCHAR uni09400930094D0902.aLong
ENCODING -1
SWIDTH 231 0
DWIDTH 3 0
BBX 8 10 -5 0
BITMAP
19788896
34000085
00000080
000017B5
00000080
00000080
00000080
00000080
00000080
00000080
ENDCHAR
STARTCHAR uni09470930094D
ENCODING -1
SWIDTH 0 0
DWIDTH 0 0
BBX 5 3 -4 7
BITMAP
273810
069000
00A000
ENDCHAR
STARTCHAR uni09470902
ENCODING -1
SWIDTH 0 0
DWIDTH 0 0
BBX 4 4 -4 6
BITMAP
3700
0826
0180
0021
ENDCHAR
STARTCHAR uni09470901
ENCODING -1
SWIDTH 0 0
DWIDTH 0 0
BBX 7 4 -4 6
BITMAP
37004000
08530510
01877700
00210000
ENDCHAR
STARTCHAR uni09470930094D0902
ENCODING -1
SWIDTH 0 0
DWIDTH 0 0
BBX 5 3 -4 7
BITMAP
284810
06A410
00A000
ENDCHAR
STARTCHAR uni09480930094D
ENCODING -1
SWIDTH 0 0
DWIDTH 0 0
BBX 5 3 -4 7
BITMAP
539820
07B100
01C000
ENDCHAR
STARTCHAR uni09480902
ENCODING -1
SWIDTH 0 0
DWIDTH 0 0
BBX 5 3 -4 7
BITMAP
457000
078320
00A000
ENDCHAR
STARTCHAR uni09480901
ENCODING -1
SWIDTH 0 0
DWIDTH 0 0
BBX 7 3 -4 7
BITMAP
46720430
08927770
00B00000
ENDCHAR
STARTCHAR uni09480930094D0902
ENCODING -1
SWIDTH 0 0
DWIDTH 0 0
BBX 5 3 -4 7
BITMAP
539820
08B410
01C000
ENDCHAR
STARTCHAR uni094B0930094D
ENCODING -1
SWIDTH 231 0
DWIDTH 3 0
BBX 4 10 -1 0
BITMAP
8185
1880
0480
17B5
0080
0080
0080
0080
0080
0080
ENDCHAR
STARTCHAR uni094B0902
ENCODING -1
SWIDTH 231 0
DWIDTH 3 0
BBX 4 10 -1 0
BITMAP
8100
1833
0430
17B5
0080
0080
0080
0080
0080
0080
ENDCHAR
STARTCHAR uni094B0930094D0902
ENCODING -1
SWIDTH 231 0
DWIDTH 3 0
BBX 4 10 -1 0
BITMAP
8285
1A85
0480
17B5
0080
0080
0080
0080
0080
0080
ENDCHAR
STARTCHAR uni094C0930094D
ENCODING -1
SWIDTH 231 0
DWIDTH 3 0
BBX 4 10 -1 0
BITMAP
9586
3980
0780
17B5
0080
0080
0080
0080
0080
0080
ENDCHAR
STARTCHAR uni094C0902
ENCODING -1
SWIDTH 231 0
DWIDTH 3 0
BBX 4 10 -1 0
BITMAP
8080
2686
0470
17B5
0080
0080
0080
0080
0080
0080
ENDCHAR
STARTCHAR uni094C0930094D0902
ENCODING -1
SWIDTH 231 0
DWIDTH 3 0
BBX 4 10 -1 0
BITMAP
9586
3985
0780
17B5
0080
0080
0080
0080
0080
0080
ENDCHAR
STARTCHAR uni0915094D0937
ENCODING -1
SWIDTH 656 0
DWIDTH 7 0
BBX 8 7 0 0
BITMAP
06791592
08043630
098A8A30
44000630
44043630
07794630
00044520
ENDCHAR
STARTCHAR uni0915094D0937094D
ENCODING -1
SWIDTH 429 0
DWIDTH 5 0
BBX 6 7 0 0
BITMAP
067910
080430
098A87
440000
440430
077940
000440
ENDCHAR
STARTCHAR uni0915094D0937094D092E
ENCODING -1
SWIDTH 933 0
DWIDTH 10 0
BBX 11 7 0 0
BITMAP
067918979930
080434404400
098A8A404400
440004979400
440433304400
077940004400
000440004400
ENDCHAR
STARTCHAR uni0915094D0937094D092E094D
ENCODING -1
SWIDTH 717 0
DWIDTH 8 0
BBX 10 7 0 0
BITMAP
0679189771
0804344000
098A8A4000
4400049771
4404333000
0779400000
0004400000
ENDCHAR
STARTCHAR uni0915094D0937094D092E094D092F
ENCODING -1
SWIDTH 1283 0
DWIDTH 14 0
BBX 15 7 0 0
BITMAP
0679189778B7B820
0804344000806100
098A8A4048506100
44000497A3006100
4404344045008100
077B400007779100
0004400000006100
ENDCHAR
STARTCHAR uni0915094D0937094D092F
ENCODING -1
SWIDTH 989 0
DWIDTH 11 0
BBX 11 7 0 0
BITMAP
0679169A7C70
080430080800
099A8A830800
440008000800
440436200A00
077B40777900
000440000800
ENDCHAR
STARTCHAR uni0915094D0937094D0935
ENCODING -1
SWIDTH 936 0
DWIDTH 10 0
BBX 11 7 0 0
BITMAP
067916779A30
080430774400
098A89404400
440005304400
440434405400
077A40778400
000440003400
ENDCHAR
STARTCHAR uni091C094D091E
ENCODING -1
SWIDTH 629 0
DWIDTH 7 0
BBX 8 8 -1 -1
BITMAP
177777C7
00000080
008888B0
03700080
00778280
03502680
03A79380
02300000
ENDCHAR
STARTCHAR uni091C094D091E094D
ENCODING -1
SWIDTH 398 0
DWIDTH 4 0
BBX 7 8 -1 -1
BITMAP
17777730
00000000
00888840
03700000
00778200
02402600
03A79300
03500000
ENDCHAR
STARTCHAR uni091C094D091E094D092F
ENCODING -1
SWIDTH 975 0
DWIDTH 11 0
BBX 12 8 -1 -1
BITMAP
1777777A97C6
000000016080
008888526080
037000A81080
007782800090
035026387790
03A793000080
023000000000
ENDCHAR
STARTCHAR uni0915094D0928
ENCODING -1
SWIDTH 1003 0
DWIDTH 11 0
BBX 13 7 -1 0
BITMAP
1777997777B710
00764875008000
04404506108000
0530440687B000
04405406008000
00779400008000
00004400007000
ENDCHAR
STARTCHAR uni0916094D0928
ENCODING -1
SWIDTH 958 0
DWIDTH 11 0
BBX 12 7 -1 0
BITMAP
177C777777B5
000800000080
000928820080
0794721C7780
027028860080
007300010080
000900000080
ENDCHAR
STARTCHAR uni0917094D0928
ENCODING -1
SWIDTH 736 0
DWIDTH 8 0
BBX 10 7 -1 0
BITMAP
17B7777B82
0080000710
0080000710
0080487B10
0650700710
0000000710
0000000610
ENDCHAR
STARTCHAR uni0918094D0928
ENCODING -1
SWIDTH 814 0
DWIDTH 9 0
BBX 10 7 -1 0
BITMAP
18C77777C7
0360000080
00B8000080
01500577B0
0260090080
0067780080
0000000080
ENDCHAR
STARTCHAR uni091A094D0928
ENCODING -1
SWIDTH 829 0
DWIDTH 9 0
BBX 11 7 -1 0
BITMAP
17777777B820
000000006200
06A940006200
00800387A200
008008006200
003668106200
000000006200
ENDCHAR
STARTCHAR uni091B094D0928
ENCODING -1
SWIDTH 977 0
DWIDTH 11 0
BBX 12 7 -1 0
BITMAP
17C7777777C6
026028200080
027000800080
00A7008777A0
016000880080
026000810080
009889300080
ENDCHAR
STARTCHAR uni091C094D0928
ENCODING -1
SWIDTH 831 0
DWIDTH 9 0
BBX 11 7 -1 0
BITMAP
17777777A820
000000006200
018A8998B200
000808006200
000715106200
000800006200
058700006200
ENDCHAR
STARTCHAR uni091D094D0928
ENCODING -1
SWIDTH 935 0
DWIDTH 10 0
BBX 12 8 -1 -1
BITMAP
1777C7777993
007780000440
036000000440
0077A7930440
000062520440
044052110440
04A790000440
033000000000
ENDCHAR
STARTCHAR uni091F094D0928
ENCODING -1
SWIDTH 494 0
DWIDTH 5 0
BBX 7 10 -1 -3
BITMAP
1777A940
00004400
00689200
02600000
04400600
02600800
00679500
01879400
03504400
00204400
ENDCHAR
STARTCHAR uni0920094D0928
ENCODING -1
SWIDTH 516 0
DWIDTH 6 0
BBX 7 10 -1 -3
BITMAP
17779A60
00003500
0068B300
03600800
04400800
03600800
00679500
01879400
03504400
00204400
ENDCHAR
STARTCHAR uni0921094D0928
ENCODING -1
SWIDTH 481 0
DWIDTH 5 0
BBX 7 10 -1 -3
BITMAP
17779A30
00004400
00878300
02700000
00545300
03400800
00779500
00879400
02604400
00304400
ENDCHAR
STARTCHAR uni0924094D0928
ENCODING -1
SWIDTH 756 0
DWIDTH 8 0
BBX 10 7 -1 0
BITMAP
17777779A3
0000000350
0078810350
03504A7950
0440530350
0440000350
0194000350
ENDCHAR
STARTCHAR uni0925094D0928
ENCODING -1
SWIDTH 855 0
DWIDTH 9 0
BBX 10 7 0 0
BITMAP
08845778A4
0708000260
0108000260
4882188960
4400540260
0777730260
0000000260
ENDCHAR
STARTCHAR uni0926094D0928
ENCODING -1
SWIDTH 955 0
DWIDTH 11 0
BBX 12 10 -1 -3
BITMAP
17778A7778B5
000026000080
008884000080
035000187880
035007140080
007878000080
000007000070
000003000000
000007200000
000000400000
ENDCHAR
STARTCHAR uni0927094D0928
ENCODING -1
SWIDTH 814 0
DWIDTH 9 0
BBX 10 7 -1 0
BITMAP
18C50777C7
0360000080
00B8000080
01500577B0
0260090080
0077870080
0000000080
ENDCHAR
STARTCHAR uni0928094D0928
ENCODING -1
SWIDTH 738 0
DWIDTH 8 0
BBX 10 7 -1 0
BITMAP
1777777B82
0000000620
0000000620
0387987B20
0710800620
0000000620
0000000610
ENDCHAR
STARTCHAR uni092A094D0928
ENCODING -1
SWIDTH 782 0
DWIDTH 9 0
BBX 10 7 -1 0
BITMAP
18B77777C5
0170000080
0170000080
0180088890
0067760080
0000000080
0000000080
ENDCHAR
STARTCHAR uni092B094D0928
ENCODING -1
SWIDTH 1013 0
DWIDTH 11 0
BBX 13 7 -1 0
BITMAP
18B78A7777A820
01702A76006200
01702706106200
0180360597A200
00688604006200
00002600006200
00002600006200
ENDCHAR
STARTCHAR uni092C094D0928
ENCODING -1
SWIDTH 810 0
DWIDTH 9 0
BBX 10 7 -1 0
BITMAP
17777777B7
0077000080
03C0000080
04690677B0
0441860080
0078700080
0000000080
ENDCHAR
STARTCHAR uni092D094D0928
ENCODING -1
SWIDTH 757 0
DWIDTH 8 0
BBX 10 7 -1 0
BITMAP
19227779A3
0260000350
0260000350
02B8997950
0260320350
0000000350
0000000350
ENDCHAR
STARTCHAR uni092E094D0928
ENCODING -1
SWIDTH 757 0
DWIDTH 8 0
BBX 10 7 -1 0
BITMAP
18A77779A3
0260000350
0260000350
02B8997950
0260320350
0000000350
0000000350
ENDCHAR
STARTCHAR uni092F094D0928
ENCODING -1
SWIDTH 829 0
DWIDTH 9 0
BBX 11 7 -1 0
BITMAP
178C7777B820
000800006200
038500006200
04400387B200
017009006200
005777106200
000000006100
ENDCHAR
STARTCHAR uni0935094D0928
ENCODING -1
SWIDTH 798 0
DWIDTH 9 0
BBX 10 7 -1 0
BITMAP
17777777C7
0077000080
0340000080
04300777A0
0450160080
0078710080
0000000080
ENDCHAR
STARTCHAR uni0936094D0928
ENCODING -1
SWIDTH 845 0
DWIDTH 9 0
BBX 10 7 0 0
BITMAP
08863779A3
2508000440
1208000440
5883320440
1800320440
0630000440
0090000340
ENDCHAR
STARTCHAR uni0938094D0928
ENCODING -1
SWIDTH 831 0
DWIDTH 9 0
BBX 11 7 -1 0
BITMAP
177C7777B820
000800006200
001800006200
07A989106200
036005006200
008100006200
001700006200
ENDCHAR
STARTCHAR uni0939094D0928
ENCODING -1
SWIDTH 500 0
DWIDTH 6 0
BBX 7 9 -1 -2
BITMAP
17777C40
00000800
00777600
01700000
00978A00
01718900
03553700
02702000
00677200
ENDCHAR
STARTCHAR uni0915094D0930
ENCODING -1
SWIDTH 725 0
DWIDTH 8 0
BBX 10 8 -1 -1
BITMAP
1777997771
0076487700
0440450530
0530440340
0440540530
0078B46600
0028440000
0040000000
ENDCHAR
STARTCHAR uni0916094D0930
ENCODING -1
SWIDTH 698 0
DWIDTH 8 0
BBX 9 8 -1 -1
BITMAP
177C777B60
0008000800
0009182800
0794620800
0270620900
007317A900
0009072800
0000230000
ENDCHAR
STARTCHAR uni0917094D0930
ENCODING -1
SWIDTH 494 0
DWIDTH 5 0
BBX 7 7 -1 0
BITMAP
17B78B40
00802600
00802600
00802600
06509600
00083600
00722600
ENDCHAR
STARTCHAR uni0918094D0930
ENCODING -1
SWIDTH 559 0
DWIDTH 6 0
BBX 8 8 -1 -1
BITMAP
18C77A82
03600620
00A80620
02600620
02600720
0078AA20
00074620
00230000
ENDCHAR
STARTCHAR uni0919094D0930
ENCODING -1
SWIDTH 505 0
DWIDTH 6 0
BBX 7 9 -1 -2
BITMAP
1777A950
00004300
00779200
02600320
00778300
01101800
01978500
00387000
00907200
ENDCHAR
STARTCHAR uni091A094D0930
ENCODING -1
SWIDTH 563 0
DWIDTH 6 0
BBX 8 8 -1 -1
BITMAP
17777A92
00000530
06994530
00800530
00800730
0048AB30
00066530
00140000
ENDCHAR
STARTCHAR uni091B094D0930
ENCODING -1
SWIDTH 581 0
DWIDTH 6 0
BBX 8 9 -1 -2
BITMAP
17C779A4
02600440
01702940
00A70080
01700080
02600080
00888830
00086400
00320400
ENDCHAR
STARTCHAR uni091C094D0930
ENCODING -1
SWIDTH 547 0
DWIDTH 6 0
BBX 8 8 -1 -1
BITMAP
17777B71
00000800
018A7B00
00080800
00080900
05864B00
00037700
00040000
ENDCHAR
STARTCHAR uni091D094D0930
ENCODING -1
SWIDTH 684 0
DWIDTH 8 0
BBX 9 7 -1 0
BITMAP
1777C77B50
0077800800
0360000800
0077A77800
0330622800
045054C800
04A7992800
ENDCHAR
STARTCHAR uni091E094D0930
ENCODING -1
SWIDTH 598 0
DWIDTH 7 0
BBX 8 7 -1 0
BITMAP
177777C5
02870080
00062080
00049780
00062380
04872780
00018080
ENDCHAR
STARTCHAR uni091F094D0930
ENCODING -1
SWIDTH 485 0
DWIDTH 5 0
BBX 7 9 -1 -2
BITMAP
1777A930
00005300
00789200
03500000
04400000
03500800
00988500
00289000
00703400
ENDCHAR
STARTCHAR uni0920094D0930
ENCODING -1
SWIDTH 512 0
DWIDTH 6 0
BBX 7 9 -1 -2
BITMAP
17779A60
00004400
0078B300
03500800
04400800
04400800
00988500
00379100
00401300
ENDCHAR
STARTCHAR uni0921094D0930
ENCODING -1
SWIDTH 475 0
DWIDTH 5 0
BBX 7 9 -1 -2
BITMAP
1777A930
00004300
00779200
02600000
00778300
03401800
01978500
00558100
00201100
ENDCHAR
STARTCHAR uni0922094D0930
ENCODING -1
SWIDTH 485 0
DWIDTH 5 0
BBX 7 9 -1 -2
BITMAP
1777A930
00004400
00678200
02600000
04428500
03541800
00877700
00379100
00401300
ENDCHAR
STARTCHAR uni0923094D0930
ENCODING -1
SWIDTH 681 0
DWIDTH 7 0
BBX 9 7 -1 0
BITMAP
18B7B88B40
0160710700
0160710700
0180802700
0078618700
0000081700
0000720700
ENDCHAR
STARTCHAR uni0924094D0930
ENCODING -1
SWIDTH 493 0
DWIDTH 5 0
BBX 7 7 -1 0
BITMAP
17778A40
00002600
00778600
04403600
02105600
00077600
01822600
ENDCHAR
STARTCHAR uni0925094D0930
ENCODING -1
SWIDTH 593 0
DWIDTH 7 0
BBX 7 8 0 -1
BITMAP
08840B50
07080800
01080800
48820800
44002800
07899800
00570800
01400000
ENDCHAR
STARTCHAR uni0926094D0930
ENCODING -1
SWIDTH 489 0
DWIDTH 5 0
BBX 7 8 -1 -1
BITMAP
17778A40
00002600
00888400
03500000
03500700
0078B800
00083700
00040000
ENDCHAR
STARTCHAR uni0927094D0930
ENCODING -1
SWIDTH 560 0
DWIDTH 6 0
BBX 8 8 -1 -1
BITMAP
18C43B92
03600620
00A80620
02600620
02600720
0078AB20
00056520
00050000
ENDCHAR
STARTCHAR uni0928094D0930
ENCODING -1
SWIDTH 473 0
DWIDTH 5 0
BBX 7 7 -1 0
BITMAP
1777A920
00005300
00005300
0387A300
0611B300
00186300
00815300
ENDCHAR
STARTCHAR uni092A094D0930
ENCODING -1
SWIDTH 503 0
DWIDTH 6 0
BBX 7 7 -1 0
BITMAP
18B77B50
01700800
01700800
01701800
0067A800
00081800
00720800
ENDCHAR
STARTCHAR uni092B094D0930
ENCODING -1
SWIDTH 741 0
DWIDTH 8 0
BBX 10 7 -1 0
BITMAP
18B78B7772
01702A7810
0170280260
0170360170
0068A60260
0008265810
0081160000
ENDCHAR
STARTCHAR uni092C094D0930
ENCODING -1
SWIDTH 491 0
DWIDTH 5 0
BBX 7 8 -1 -1
BITMAP
17778A40
00772600
03A22600
04374600
04409600
0079A600
00192600
00410000
ENDCHAR
STARTCHAR uni092D094D0930
ENCODING -1
SWIDTH 491 0
DWIDTH 5 0
BBX 7 7 -1 0
BITMAP
19228A40
02602600
02602600
02B79600
0260A600
00083600
00722600
ENDCHAR
STARTCHAR uni092E094D0930
ENCODING -1
SWIDTH 490 0
DWIDTH 5 0
BBX 7 7 -1 0
BITMAP
18A79A40
02602600
02602600
02B89600
0261A600
00083600
00822500
ENDCHAR
STARTCHAR uni092F094D0930
ENCODING -1
SWIDTH 564 0
DWIDTH 6 0
BBX 8 8 -1 -1
BITMAP
178C7A92
00080530
03850530
04400530
02600730
0067AA30
00084530
00230000
ENDCHAR
STARTCHAR uni0935094D0930
ENCODING -1
SWIDTH 484 0
DWIDTH 5 0
BBX 7 8 -1 -1
BITMAP
17779A30
00773500
04503500
05403500
04504500
0079A500
00293500
00410000
ENDCHAR
STARTCHAR uni0936094D0930
ENCODING -1
SWIDTH 558 0
DWIDTH 6 0
BBX 7 7 0 0
BITMAP
19856820
44086200
18276200
07D16200
6729B200
00298200
03806200
ENDCHAR
STARTCHAR uni0938094D0930
ENCODING -1
SWIDTH 604 0
DWIDTH 7 0
BBX 8 7 -1 0
BITMAP
177C77B6
00080080
00180080
07A98A90
03602880
00817080
00170080
ENDCHAR
STARTCHAR uni0939094D0930
ENCODING -1
SWIDTH 505 0
DWIDTH 6 0
BBX 7 9 -1 -2
BITMAP
17778B50
00001700
00777500
03600000
00A78800
03509800
04472700
03500000
00677200
ENDCHAR
STARTCHAR uni0915093C094D0930
ENCODING -1
SWIDTH 725 0
DWIDTH 8 0
BBX 10 8 -1 -1
BITMAP
1777997771
0076487700
0440450530
0530440340
0440540530
0078A46600
0046440000
0015000000
ENDCHAR
STARTCHAR uni0916093C094D0930
ENCODING -1
SWIDTH 698 0
DWIDTH 8 0
BBX 9 8 -1 -1
BITMAP
177C777B60
0008000800
0009182800
0794620800
0270620900
0073179900
0009071800
0000133000
ENDCHAR
STARTCHAR uni0917093C094D0930
ENCODING -1
SWIDTH 494 0
DWIDTH 5 0
BBX 7 8 -1 -1
BITMAP
17B78B40
00802600
00802600
00802600
06509600
00083600
00722600
00050000
ENDCHAR
STARTCHAR uni091C093C094D0930
ENCODING -1
SWIDTH 547 0
DWIDTH 6 0
BBX 8 8 -1 -1
BITMAP
17777B71
00000800
018A7B00
00080800
00080900
05866B00
00054700
05000000
ENDCHAR
STARTCHAR uni0921093C094D0930
ENCODING -1
SWIDTH 475 0
DWIDTH 5 0
BBX 7 9 -1 -2
BITMAP
1777A930
00004300
00779200
02600000
00778300
03401800
01978500
05558100
00201100
ENDCHAR
STARTCHAR uni0922093C094D0930
ENCODING -1
SWIDTH 485 0
DWIDTH 5 0
BBX 7 9 -1 -2
BITMAP
1777A930
00004400
00678200
02600000
04428500
03541800
00877700
05389100
00401300
ENDCHAR
STARTCHAR uni0928093C094D0930
ENCODING -1
SWIDTH 473 0
DWIDTH 5 0
BBX 7 8 -1 -1
BITMAP
1777A920
00005300
00005300
0387A300
0611B300
00186300
00815300
00140000
ENDCHAR
STARTCHAR uni092B093C094D0930
ENCODING -1
SWIDTH 741 0
DWIDTH 8 0
BBX 10 8 -1 -1
BITMAP
18B78B7772
01702A7810
0170280260
0170360170
0068A60260
0008265810
0081160000
0005000000
ENDCHAR
STARTCHAR uni092F093C094D0930
ENCODING -1
SWIDTH 564 0
DWIDTH 6 0
BBX 8 8 -1 -1
BITMAP
178C7A92
00080530
03850530
04400530
02600730
0067AA30
00182530
00115000
ENDCHAR
STARTCHAR uni0915094D0930094D
ENCODING -1
SWIDTH 518 0
DWIDTH 6 0
BBX 9 8 -1 -1
BITMAP
1777997710
0076497700
0440450200
0530440000
0440540000
0078B40000
0028440000
0040000000
ENDCHAR
STARTCHAR uni0916094D0930094D
ENCODING -1
SWIDTH 469 0
DWIDTH 5 0
BBX 8 8 -1 -1
BITMAP
177C7772
00080000
00091820
07946200
02706202
007317A1
00090720
00002300
ENDCHAR
STARTCHAR uni0917094D0930094D
ENCODING -1
SWIDTH 264 0
DWIDTH 3 0
BBX 6 7 -1 0
BITMAP
17B700
008000
008000
008011
065081
000810
007200
ENDCHAR
STARTCHAR uni0918094D0930094D
ENCODING -1
SWIDTH 319 0
DWIDTH 4 0
BBX 6 8 -1 -1
BITMAP
18C885
036000
00A800
026000
026003
0078B5
000750
002300
ENDCHAR
STARTCHAR uni091A094D0930094D
ENCODING -1
SWIDTH 331 0
DWIDTH 4 0
BBX 6 8 -1 -1
BITMAP
177774
000000
069940
008000
008003
0048A7
000660
001400
ENDCHAR
STARTCHAR uni091C094D0930094D
ENCODING -1
SWIDTH 312 0
DWIDTH 3 0
BBX 6 7 -1 0
BITMAP
177774
000000
018A74
000800
000805
058673
000630
ENDCHAR
STARTCHAR uni091D094D0930094D
ENCODING -1
SWIDTH 441 0
DWIDTH 5 0
BBX 8 8 -1 -1
BITMAP
1777C770
00008000
00778000
03600000
0077A782
03306352
04A79380
04401900
ENDCHAR
STARTCHAR uni091E094D0930094D
ENCODING -1
SWIDTH 374 0
DWIDTH 4 0
BBX 7 7 -1 0
BITMAP
17777710
02870000
00062000
00049750
00062260
04871800
00019100
ENDCHAR
STARTCHAR uni091F094D0930094D
ENCODING -1
SWIDTH 485 0
DWIDTH 5 0
BBX 7 10 -1 -3
BITMAP
1777A930
00005300
00789200
03500000
04400600
03500800
00988400
00557200
00035000
00008000
ENDCHAR
STARTCHAR uni0920094D0930094D
ENCODING -1
SWIDTH 512 0
DWIDTH 6 0
BBX 7 10 -1 -3
BITMAP
17779A60
00004400
0078B300
03500800
04400800
04400800
00988500
00378100
00324300
00008100
ENDCHAR
STARTCHAR uni0921094D0930094D
ENCODING -1
SWIDTH 475 0
DWIDTH 5 0
BBX 7 11 -1 -4
BITMAP
1777A930
00004300
00779200
02600000
00778300
01101800
01978500
00388000
00714200
00026000
00004000
ENDCHAR
STARTCHAR uni0922094D0930094D
ENCODING -1
SWIDTH 485 0
DWIDTH 5 0
BBX 7 11 -1 -4
BITMAP
1777A930
00004400
00678200
02600000
04428500
03541800
00877700
00289000
00523400
00018000
00003100
ENDCHAR
STARTCHAR uni0923094D0930094D
ENCODING -1
SWIDTH 457 0
DWIDTH 5 0
BBX 8 7 -1 0
BITMAP
18B7B810
01607100
01607100
01808023
00786180
00000810
00007200
ENDCHAR
STARTCHAR uni0924094D0930094D
ENCODING -1
SWIDTH 268 0
DWIDTH 3 0
BBX 6 7 -1 0
BITMAP
177774
000000
007770
044034
021053
000750
018200
ENDCHAR
STARTCHAR uni0925094D0930094D
ENCODING -1
SWIDTH 358 0
DWIDTH 4 0
BBX 6 8 0 -1
BITMAP
088400
070800
010800
488200
440021
078990
005700
014000
ENDCHAR
STARTCHAR uni0926094D0930094D
ENCODING -1
SWIDTH 489 0
DWIDTH 5 0
BBX 7 9 -1 -2
BITMAP
17778A40
00002600
00888400
03500000
03500700
0078A800
00082700
00026000
00003500
ENDCHAR
STARTCHAR uni0927094D0930094D
ENCODING -1
SWIDTH 322 0
DWIDTH 4 0
BBX 6 8 -1 -1
BITMAP
18C445
035000
026000
00A800
026003
0077B6
000560
000500
ENDCHAR
STARTCHAR uni0928094D0930094D
ENCODING -1
SWIDTH 247 0
DWIDTH 3 0
BBX 6 7 -1 0
BITMAP
177771
000000
000000
038781
061070
001810
008100
ENDCHAR
STARTCHAR uni092A094D0930094D
ENCODING -1
SWIDTH 270 0
DWIDTH 3 0
BBX 6 7 -1 0
BITMAP
18B750
017000
017000
017012
0067A1
000810
008200
ENDCHAR
STARTCHAR uni092B094D0930094D
ENCODING -1
SWIDTH 523 0
DWIDTH 6 0
BBX 9 7 -1 0
BITMAP
29A79A7700
0440497700
0440460210
0350540000
0078B40000
0018440000
0080440000
ENDCHAR
STARTCHAR uni092C094D0930094D
ENCODING -1
SWIDTH 267 0
DWIDTH 3 0
BBX 6 8 -1 -1
BITMAP
177772
007700
03A200
043710
044084
0078A0
001910
004100
ENDCHAR
STARTCHAR uni092D094D0930094D
ENCODING -1
SWIDTH 257 0
DWIDTH 3 0
BBX 6 7 -1 0
BITMAP
192271
026000
026000
02B892
026180
000810
007200
ENDCHAR
STARTCHAR uni092E094D0930094D
ENCODING -1
SWIDTH 261 0
DWIDTH 3 0
BBX 6 7 -1 0
BITMAP
18A771
026000
026000
02B892
026180
000810
007200
ENDCHAR
STARTCHAR uni092F094D0930094D
ENCODING -1
SWIDTH 323 0
DWIDTH 4 0
BBX 6 8 -1 -1
BITMAP
178C72
000800
038500
044000
026004
0067B5
000840
002300
ENDCHAR
STARTCHAR uni0935094D0930094D
ENCODING -1
SWIDTH 255 0
DWIDTH 3 0
BBX 5 8 -1 -1
BITMAP
177740
007700
045000
054000
045020
007990
002900
004100
ENDCHAR
STARTCHAR uni0938094D0930094D
ENCODING -1
SWIDTH 347 0
DWIDTH 4 0
BBX 7 7 -1 0
BITMAP
177C7500
00080000
00180000
07A98A10
03602700
00828000
00170000
ENDCHAR
STARTCHAR uni0915093C094D0930094D
ENCODING -1
SWIDTH 518 0
DWIDTH 6 0
BBX 9 8 -1 -1
BITMAP
1777997710
0076497700
0440450200
0530440000
0440540000
0078A40000
0046440000
0015000000
ENDCHAR
STARTCHAR uni0916093C094D0930094D
ENCODING -1
SWIDTH 466 0
DWIDTH 5 0
BBX 8 8 -1 -1
BITMAP
177C7772
00080000
00091820
07946200
02706202
00731791
00090710
00001240
ENDCHAR
STARTCHAR uni0917093C094D0930094D
ENCODING -1
SWIDTH 264 0
DWIDTH 3 0
BBX 6 8 -1 -1
BITMAP
17B700
008000
008000
008011
065081
000810
007200
000500
ENDCHAR
STARTCHAR uni091C093C094D0930094D
ENCODING -1
SWIDTH 320 0
DWIDTH 4 0
BBX 6 8 -1 -1
BITMAP
177774
000000
018A74
000800
000805
058673
000630
050000
ENDCHAR
STARTCHAR uni0928093C094D0930094D
ENCODING -1
SWIDTH 247 0
DWIDTH 3 0
BBX 6 8 -1 -1
BITMAP
177771
000000
000000
038781
061070
001810
008100
000500
ENDCHAR
STARTCHAR uni092B093C094D0930094D
ENCODING -1
SWIDTH 523 0
DWIDTH 6 0
BBX 9 8 -1 -1
BITMAP
29A79A7700
0440497700
0440460210
0350540000
0078B40000
0018440000
0080440000
0005000000
ENDCHAR
STARTCHAR uni092F093C094D0930094D
ENCODING -1
SWIDTH 323 0
DWIDTH 4 0
BBX 6 8 -1 -1
BITMAP
178C72
000800
038500
044000
026004
0067A3
001820
000050
ENDCHAR
STARTCHAR uni0915094D0915
ENCODING -1
SWIDTH 1255 0
DWIDTH 14 0
BBX 15 7 -1 0
BITMAP
1777997777B87770
0076487785777600
0440450720720710
0530440800710620
0440540620810710
0077940187A28600
0000440000610000
ENDCHAR
STARTCHAR uni0915094D0916
ENCODING -1
SWIDTH 1256 0
DWIDTH 14 0
BBX 15 7 -1 0
BITMAP
177799777B777B70
0076487508000800
0440450808183800
0530440796540800
0440540180340900
0077940055011900
0000440008100800
ENDCHAR
STARTCHAR uni0915094D091A
ENCODING -1
SWIDTH 1086 0
DWIDTH 12 0
BBX 13 7 -1 0
BITMAP
17779977777C70
00764882000800
04404508A82800
05304400800800
04405401800900
00779400687A00
00004400000800
ENDCHAR
STARTCHAR uni0915094D091C
ENCODING -1
SWIDTH 1071 0
DWIDTH 12 0
BBX 13 7 -1 0
BITMAP
17779977777C70
00764400000800
044048829A8A00
05304500080800
04405400090800
00778406840800
00004400000800
ENDCHAR
STARTCHAR uni0915094D091F
ENCODING -1
SWIDTH 984 0
DWIDTH 11 0
BBX 12 7 -1 0
BITMAP
1777997777C7
007648760080
04404508A870
053044080000
044054080023
007794080053
000044058880
ENDCHAR
STARTCHAR uni0915094D0923
ENCODING -1
SWIDTH 1183 0
DWIDTH 13 0
BBX 15 7 -1 0
BITMAP
1777997C77C7B710
0076440800808000
0440498B00808000
0530450811808000
0440540398208000
0077940000008000
0000440000007000
ENDCHAR
STARTCHAR uni0915094D0924
ENCODING -1
SWIDTH 761 0
DWIDTH 8 0
BBX 10 7 -1 0
BITMAP
17777C7774
0000080000
02987B7830
0080090080
0080080080
0048283830
0000080000
ENDCHAR
STARTCHAR uni0915094D0925
ENCODING -1
SWIDTH 1118 0
DWIDTH 12 0
BBX 14 7 -1 0
BITMAP
177799629933A3
00764402235440
0440497A881440
05304508000440
04405406200640
00779401787840
00004400000340
ENDCHAR
STARTCHAR uni0915094D0926
ENCODING -1
SWIDTH 1009 0
DWIDTH 11 0
BBX 13 7 -1 0
BITMAP
1777997777B820
00764876006200
04404508B89100
05304407100000
04405408104400
00778402879400
00004400003400
ENDCHAR
STARTCHAR uni0915094D092A
ENCODING -1
SWIDTH 1007 0
DWIDTH 11 0
BBX 13 7 -1 0
BITMAP
1777997B77B810
00764408007100
0440498B007100
05304508108100
0440540287A100
00779400007100
00004400007100
ENDCHAR
STARTCHAR uni0915094D092B
ENCODING -1
SWIDTH 1242 0
DWIDTH 14 0
BBX 15 7 -1 0
BITMAP
1777997B77C77760
0076440800867500
0440498B00910800
0530450810900800
0440540288A00800
0077940000828500
0000440000800000
ENDCHAR
STARTCHAR uni0915094D092E
ENCODING -1
SWIDTH 994 0
DWIDTH 11 0
BBX 12 7 -1 0
BITMAP
1777997C77C7
007644080080
0440498B0080
0530450977B0
044054070080
007794000080
000044000080
ENDCHAR
STARTCHAR uni0915094D092F
ENCODING -1
SWIDTH 1076 0
DWIDTH 12 0
BBX 13 7 -1 0
BITMAP
177799779A7C70
00764400070800
0440487A820800
05304508000800
04405407100A00
00779401777900
00004400000800
ENDCHAR
STARTCHAR uni0915094D0932
ENCODING -1
SWIDTH 1178 0
DWIDTH 13 0
BBX 15 7 -1 0
BITMAP
177799777777C710
0076487600008000
04404508A768B000
0530440803709000
0440540801308000
0077940800008000
0000440584008000
ENDCHAR
STARTCHAR uni0915094D0935
ENCODING -1
SWIDTH 1013 0
DWIDTH 11 0
BBX 13 7 -1 0
BITMAP
1777997777A820
00764877866200
04404507206200
05304407106200
04405406207200
0077940187A200
00004400006200
ENDCHAR
STARTCHAR uni0915094D0936
ENCODING -1
SWIDTH 1194 0
DWIDTH 13 0
BBX 15 7 -1 0
BITMAP
1777997267906820
0076440080716200
0440498820806200
05304505A8606200
0440540090006200
0077940027006200
0000440006306200
ENDCHAR
STARTCHAR uni0915094D0938
ENCODING -1
SWIDTH 1143 0
DWIDTH 13 0
BBX 14 7 -1 0
BITMAP
177799777C77C5
00764875080080
04404507190080
05304405A98890
04405401800080
00779400540080
00004400090080
ENDCHAR
STARTCHAR uni0916094D0916
ENCODING -1
SWIDTH 1223 0
DWIDTH 13 0
BBX 15 7 -1 0
BITMAP
177C77777C778B40
0008000008001700
0009182008282700
0794710992801700
0270710A40802700
00731872A1287700
0009000028001600
ENDCHAR
STARTCHAR uni0916094D0924
ENCODING -1
SWIDTH 984 0
DWIDTH 11 0
BBX 12 7 -1 0
BITMAP
177C777777C7
000800000080
0009182488B0
079471080080
027071080080
007318790080
000900087080
ENDCHAR
STARTCHAR uni0916094D092E
ENCODING -1
SWIDTH 965 0
DWIDTH 11 0
BBX 12 7 -1 0
BITMAP
177C777C77C5
000800080080
000918280080
0794710B7790
027061080080
007317720080
000900000080
ENDCHAR
STARTCHAR uni0916094D092F
ENCODING -1
SWIDTH 1047 0
DWIDTH 12 0
BBX 13 7 -1 0
BITMAP
177C7777B87B50
00080000530800
00091209700800
07947108000800
0270720A002800
00731876877800
00090000000800
ENDCHAR
STARTCHAR uni0916094D0935
ENCODING -1
SWIDTH 975 0
DWIDTH 11 0
BBX 12 7 -1 0
BITMAP
177C777777C6
000800048280
000918280080
079472080080
0270720A0090
007318778790
000900000080
ENDCHAR
STARTCHAR uni0916094D0936
ENCODING -1
SWIDTH 1123 0
DWIDTH 12 0
BBX 14 7 -1 0
BITMAP
177C77448913A3
00080008044350
00091824054350
06847139780350
0270711C000350
00731877600350
00090000810350
ENDCHAR
STARTCHAR uni0917094D0917
ENCODING -1
SWIDTH 744 0
DWIDTH 8 0
BBX 10 7 -1 0
BITMAP
17B77C7A92
0080080530
0080080530
0080080530
0650830530
0000000530
0000000520
ENDCHAR
STARTCHAR uni0917094D0918
ENCODING -1
SWIDTH 823 0
DWIDTH 9 0
BBX 11 7 -1 0
BITMAP
17B78B77B810
008044007100
00801B707100
008044007100
065044009100
00000787A100
000000007100
ENDCHAR
STARTCHAR uni0917094D091C
ENCODING -1
SWIDTH 801 0
DWIDTH 9 0
BBX 10 7 -1 0
BITMAP
17B77777C7
0080000080
00803998A0
0080008080
0650009080
0000685080
0000000080
ENDCHAR
STARTCHAR uni0917094D0923
ENCODING -1
SWIDTH 945 0
DWIDTH 10 0
BBX 12 7 -1 0
BITMAP
17B79A7B78A4
008035080260
008035080260
008026080260
065007860260
000000000260
000000000260
ENDCHAR
STARTCHAR uni0917094D0926
ENCODING -1
SWIDTH 748 0
DWIDTH 8 0
BBX 10 7 -1 0
BITMAP
17B7777A92
0080000440
0080188920
0080630000
0650630250
0000188860
0000000160
ENDCHAR
STARTCHAR uni0917094D0927
ENCODING -1
SWIDTH 823 0
DWIDTH 9 0
BBX 11 7 -1 0
BITMAP
17B78B34B810
008044007100
00801B707100
008045007100
065044008100
00000777A100
000000007100
ENDCHAR
STARTCHAR uni0917094D092C
ENCODING -1
SWIDTH 755 0
DWIDTH 8 0
BBX 10 7 -1 0
BITMAP
17B77779A3
0080076340
00805A0340
0080636340
0650531840
0000077840
0000000340
ENDCHAR
STARTCHAR uni0917094D092D
ENCODING -1
SWIDTH 755 0
DWIDTH 8 0
BBX 10 7 -1 0
BITMAP
17B79129A3
0080450440
0080350440
00803A7940
0650350440
0000110440
0000000340
ENDCHAR
STARTCHAR uni0917094D092E
ENCODING -1
SWIDTH 754 0
DWIDTH 8 0
BBX 10 7 -1 0
BITMAP
17B79A79A3
0080440440
0080440440
00804A7940
0650440440
0000110440
0000000440
ENDCHAR
STARTCHAR uni0917094D092F
ENCODING -1
SWIDTH 828 0
DWIDTH 9 0
BBX 11 7 -1 0
BITMAP
17B778B7B820
008000807100
008048507100
008053007100
065035009100
00000677A100
000000006100
ENDCHAR
STARTCHAR uni0917094D0932
ENCODING -1
SWIDTH 924 0
DWIDTH 10 0
BBX 12 7 -1 0
BITMAP
17B777777A92
008000000620
008018858A20
008062090720
065070070620
000071000620
000029600620
ENDCHAR
STARTCHAR uni0917094D0935
ENCODING -1
SWIDTH 747 0
DWIDTH 8 0
BBX 10 7 -1 0
BITMAP
17B7777A92
0080076430
0080530430
0080620430
0650530630
0000077930
0000000430
ENDCHAR
STARTCHAR uni0917094D0938
ENCODING -1
SWIDTH 839 0
DWIDTH 9 0
BBX 11 7 -1 0
BITMAP
17B778B7A930
008001705400
008002705400
00808A88A400
065045005400
000009005400
000002605300
ENDCHAR
STARTCHAR uni0918094D092E
ENCODING -1
SWIDTH 818 0
DWIDTH 9 0
BBX 11 7 -1 0
BITMAP
18B77B77C710
036008008000
01B808008000
01500888C000
036008008000
007886008000
000000008000
ENDCHAR
STARTCHAR uni0918094D092F
ENCODING -1
SWIDTH 867 0
DWIDTH 10 0
BBX 11 7 -1 0
BITMAP
18C777B87B50
036000530800
00B809800800
026008000800
026008002800
007886776800
000000000800
ENDCHAR
STARTCHAR uni091A094D091A
ENCODING -1
SWIDTH 868 0
DWIDTH 10 0
BBX 11 7 -1 0
BITMAP
177777777B50
000000000800
069918A70800
008006200800
008007201800
004876877800
000000000800
ENDCHAR
STARTCHAR uni091A094D091B
ENCODING -1
SWIDTH 922 0
DWIDTH 10 0
BBX 12 7 -1 0
BITMAP
177779A77B82
000006200710
069945304B10
008001B40350
008005300350
007008200350
001447A88910
ENDCHAR
STARTCHAR uni091A094D092E
ENCODING -1
SWIDTH 830 0
DWIDTH 9 0
BBX 11 7 -1 0
BITMAP
17777A87B820
000006206200
06A946206200
00800687A200
008007106200
004886006200
000000006200
ENDCHAR
STARTCHAR uni091A094D092F
ENCODING -1
SWIDTH 904 0
DWIDTH 10 0
BBX 11 7 -1 0
BITMAP
1777778B7C70
000000080800
059846830800
008008000800
008008300A00
004885788A00
000000000800
ENDCHAR
STARTCHAR uni091B094D092F
ENCODING -1
SWIDTH 1068 0
DWIDTH 12 0
BBX 13 7 -1 0
BITMAP
17C77777777C60
02602997840800
01600080090800
00700084840800
02600084400A00
02600080777800
00888920000800
ENDCHAR
STARTCHAR uni091B094D0935
ENCODING -1
SWIDTH 581 0
DWIDTH 6 0
BBX 8 8 -1 -1
BITMAP
18C77A94
02700440
00A60350
01700080
01700170
00988940
00900530
00577700
ENDCHAR
STARTCHAR uni091C094D0915
ENCODING -1
SWIDTH 1054 0
DWIDTH 12 0
BBX 13 7 -1 0
BITMAP
17777777B77750
00000174878400
018A8A00900800
00080800800800
00081800900800
05860287928400
00000000700000
ENDCHAR
STARTCHAR uni091C094D091C
ENCODING -1
SWIDTH 903 0
DWIDTH 10 0
BBX 11 7 -1 0
BITMAP
177777777C70
000000000800
018A828A8B00
000800080800
000810090800
058606860800
000000000800
ENDCHAR
STARTCHAR uni091C094D091D
ENCODING -1
SWIDTH 990 0
DWIDTH 11 0
BBX 12 8 -1 -1
BITMAP
17777778B7C7
000002785080
018A8B000080
00080488A7B0
000810008080
058608008080
000008686080
000003000000
ENDCHAR
STARTCHAR uni091C094D091F
ENCODING -1
SWIDTH 815 0
DWIDTH 9 0
BBX 11 7 -1 0
BITMAP
17777777C710
000000008000
028A87888000
000809100000
000808000200
000808002600
057503889100
ENDCHAR
STARTCHAR uni091C094D0921
ENCODING -1
SWIDTH 797 0
DWIDTH 9 0
BBX 10 7 -1 0
BITMAP
17777777B6
0000000080
028A7A8770
0008080000
0009037770
0586060081
0000057790
ENDCHAR
STARTCHAR uni091C094D0924
ENCODING -1
SWIDTH 830 0
DWIDTH 9 0
BBX 11 7 -1 0
BITMAP
17777777B820
000000006200
029B9999C200
000808106200
000908006200
058608006200
000004826100
ENDCHAR
STARTCHAR uni091C094D0926
ENCODING -1
SWIDTH 817 0
DWIDTH 9 0
BBX 11 7 -1 0
BITMAP
17777777B710
000000008000
018A8A989000
000808000000
000818005200
058602879200
000000005200
ENDCHAR
STARTCHAR uni091C094D092C
ENCODING -1
SWIDTH 820 0
DWIDTH 9 0
BBX 11 7 -1 0
BITMAP
17777777B710
000001748000
018A8B608000
000808368000
00081802C000
05860287B000
000000008000
ENDCHAR
STARTCHAR uni091C094D092E
ENCODING -1
SWIDTH 813 0
DWIDTH 9 0
BBX 10 7 -1 0
BITMAP
17777C77C7
0000080080
018A8B0080
00080877B0
0008160080
0586000080
0000000080
ENDCHAR
STARTCHAR uni091C094D092F
ENCODING -1
SWIDTH 893 0
DWIDTH 10 0
BBX 11 7 -1 0
BITMAP
1777779A7C70
000000180800
028A8A820800
000808000800
000908100A00
058601877900
000000000800
ENDCHAR
STARTCHAR uni091C094D0935
ENCODING -1
SWIDTH 813 0
DWIDTH 9 0
BBX 10 7 -1 0
BITMAP
17777777C7
0000017480
018A8A0080
0008080080
0008180090
05860287A0
0000000080
ENDCHAR
STARTCHAR uni091D094D092E
ENCODING -1
SWIDTH 936 0
DWIDTH 10 0
BBX 12 8 -1 -1
BITMAP
1777C79A79A3
007780340440
036000340440
0077A79A7940
000062340440
044052120440
04A790000440
033000000000
ENDCHAR
STARTCHAR uni091D094D092F
ENCODING -1
SWIDTH 1000 0
DWIDTH 11 0
BBX 13 8 -1 -1
BITMAP
1777C778B7B710
00778000808000
03600058408000
0077A7A1008000
0000624300A000
0440520777B000
04A79000008000
03300000000000
ENDCHAR
STARTCHAR uni091E094D091B
ENCODING -1
SWIDTH 913 0
DWIDTH 10 0
BBX 12 7 -1 0
BITMAP
177779A77B71
000007100800
000208205A00
000515C40530
000699100440
048808100530
000004988800
ENDCHAR
STARTCHAR uni091E094D091C
ENCODING -1
SWIDTH 932 0
DWIDTH 10 0
BBX 12 7 -1 0
BITMAP
177777777A93
000000000440
0265007A8A40
000520044440
000694044440
037803780440
000000000430
ENDCHAR
STARTCHAR uni091E094D0936
ENCODING -1
SWIDTH 975 0
DWIDTH 11 0
BBX 12 7 -1 0
BITMAP
1777719850A6
028702408080
000620008080
000499882080
000621700080
048700630080
000000090080
ENDCHAR
STARTCHAR uni091F094D091F
ENCODING -1
SWIDTH 494 0
DWIDTH 5 0
BBX 7 11 -1 -4
BITMAP
1777A940
00006200
00779100
04400000
04400800
0077A400
0037A200
02700000
05300300
03500800
00778200
ENDCHAR
STARTCHAR uni091F094D0920
ENCODING -1
SWIDTH 495 0
DWIDTH 5 0
BBX 7 11 -1 -4
BITMAP
1777A940
00006200
00779100
04400000
04400800
00779500
0037A200
02701700
04400800
03600800
00788300
ENDCHAR
STARTCHAR uni091F094D092F
ENCODING -1
SWIDTH 990 0
DWIDTH 11 0
BBX 12 7 -1 0
BITMAP
1777A97777C7
000053000080
007898886080
035000009080
044003296080
035008260090
0098850877B0
ENDCHAR
STARTCHAR uni091F094D0935
ENCODING -1
SWIDTH 501 0
DWIDTH 6 0
BBX 7 8 -1 -1
BITMAP
1777A950
00004400
00778200
03500100
03500800
00B87900
02700800
00777200
ENDCHAR
STARTCHAR uni0920094D092F
ENCODING -1
SWIDTH 998 0
DWIDTH 11 0
BBX 13 7 -1 0
BITMAP
17779A7777C710
00004400008000
0077B577608000
03500B00808000
04400819608000
04400817009000
0098850777B000
ENDCHAR
STARTCHAR uni0921094D0921
ENCODING -1
SWIDTH 493 0
DWIDTH 5 0
BBX 7 11 -1 -4
BITMAP
17779940
00778200
02600000
00777300
02300800
00B77300
02600000
00778200
01100800
03500800
00778200
ENDCHAR
STARTCHAR uni0921094D0922
ENCODING -1
SWIDTH 493 0
DWIDTH 5 0
BBX 7 10 -1 -3
BITMAP
17779940
00004400
00778200
02600000
00656300
02400800
0095B400
03544800
03521700
00988600
ENDCHAR
STARTCHAR uni0921094D092F
ENCODING -1
SWIDTH 973 0
DWIDTH 11 0
BBX 12 7 -1 0
BITMAP
1777A97777C6
000043000080
007788784080
026000009080
007783594190
034018177790
019785000080
ENDCHAR
STARTCHAR uni0921094D0935
ENCODING -1
SWIDTH 493 0
DWIDTH 5 0
BBX 7 9 -1 -2
BITMAP
17779940
00778200
02600000
00777300
02300800
00B77800
01700800
01701800
00688100
ENDCHAR
STARTCHAR uni0922094D092F
ENCODING -1
SWIDTH 981 0
DWIDTH 11 0
BBX 12 7 -1 0
BITMAP
1777A97777C7
000044000080
006788775080
026174009080
044527485080
035318440090
008885087890
ENDCHAR
STARTCHAR uni0923094D091F
ENCODING -1
SWIDTH 908 0
DWIDTH 10 0
BBX 12 7 -1 0
BITMAP
18B7B8777C71
016071000800
016071188800
016071810000
007080800000
006850800160
000000398920
ENDCHAR
STARTCHAR uni0923094D0920
ENCODING -1
SWIDTH 936 0
DWIDTH 10 0
BBX 12 7 -1 0
BITMAP
18B7B8777B73
016071000800
016071188A10
016071810350
007080800170
006850800260
000000398920
ENDCHAR
STARTCHAR uni0923094D0921
ENCODING -1
SWIDTH 892 0
DWIDTH 10 0
BBX 11 7 -1 0
BITMAP
18B7B8777C70
016071000800
016071488800
018080700000
007860010400
000000600620
000000577900
ENDCHAR
STARTCHAR uni0923094D0922
ENCODING -1
SWIDTH 908 0
DWIDTH 10 0
BBX 12 7 -1 0
BITMAP
18B7B8777C71
016071000800
016071187800
016071710000
005050805820
000100803160
000000388930
ENDCHAR
STARTCHAR uni0923094D0923
ENCODING -1
SWIDTH 1127 0
DWIDTH 12 0
BBX 14 7 -1 0
BITMAP
18B7B89A7B78A4
01607135080260
01607135080260
01808026080260
00786007860260
00000000000260
00000000000260
ENDCHAR
STARTCHAR uni0923094D092E
ENCODING -1
SWIDTH 932 0
DWIDTH 10 0
BBX 12 7 -1 0
BITMAP
18B7B8997A93
016071440440
016071440440
018080497A40
007970330440
000000000440
000000000430
ENDCHAR
STARTCHAR uni0923094D092F
ENCODING -1
SWIDTH 998 0
DWIDTH 11 0
BBX 13 7 -1 0
BITMAP
18B7B878B7C710
01607100808000
01607158308000
01808071008000
0078605300A000
0000000777A000
00000000008000
ENDCHAR
STARTCHAR uni0923094D0935
ENCODING -1
SWIDTH 923 0
DWIDTH 10 0
BBX 12 7 -1 0
BITMAP
18B7B8777A82
016071186620
016071620620
018080710620
007860620720
000000187A20
000000000520
ENDCHAR
STARTCHAR uni0924094D0915
ENCODING -1
SWIDTH 992 0
DWIDTH 11 0
BBX 12 7 -1 0
BITMAP
1777777A9777
000006658760
007893054062
035062053044
044054063062
044018793770
019400053000
ENDCHAR
STARTCHAR uni0924094D0916
ENCODING -1
SWIDTH 1014 0
DWIDTH 11 0
BBX 13 7 -1 0
BITMAP
1777779A77A820
00000035006200
00888144566200
04502B80806200
04400810807200
04400180579200
01940054006200
ENDCHAR
STARTCHAR uni0924094D0924
ENCODING -1
SWIDTH 542 0
DWIDTH 6 0
BBX 8 7 -1 0
BITMAP
17777C71
00000800
05A98C00
00800800
00800800
00800800
00581800
ENDCHAR
STARTCHAR uni0924094D0925
ENCODING -1
SWIDTH 869 0
DWIDTH 10 0
BBX 11 7 -1 0
BITMAP
177719860B50
000003080800
008899830800
035044000800
044026002800
044006876800
019400000800
ENDCHAR
STARTCHAR uni0924094D092A
ENCODING -1
SWIDTH 757 0
DWIDTH 8 0
BBX 10 7 -1 0
BITMAP
1777A979A3
0000530350
0078A30350
0450440450
0440077850
0440000350
0194000350
ENDCHAR
STARTCHAR uni0924094D092B
ENCODING -1
SWIDTH 992 0
DWIDTH 11 0
BBX 12 7 -1 0
BITMAP
1777A97A9777
000053058760
0078A3054062
045044063044
0440078A3062
044000053770
019400053000
ENDCHAR
STARTCHAR uni0924094D092E
ENCODING -1
SWIDTH 764 0
DWIDTH 8 0
BBX 10 7 -1 0
BITMAP
17778B78A4
0000260260
0078860260
03502B7960
0440260260
0440000260
0194000260
ENDCHAR
STARTCHAR uni0924094D092F
ENCODING -1
SWIDTH 830 0
DWIDTH 9 0
BBX 11 7 -1 0
BITMAP
177778B7A820
000000806200
008899506200
035053006200
044035008200
044006779200
019400006200
ENDCHAR
STARTCHAR uni0924094D0932
ENCODING -1
SWIDTH 957 0
DWIDTH 11 0
BBX 12 7 -1 0
BITMAP
1777777777B5
000000000080
006667858780
045037090180
044026080080
044017000080
019408810080
ENDCHAR
STARTCHAR uni0924094D0935
ENCODING -1
SWIDTH 751 0
DWIDTH 8 0
BBX 10 7 -1 0
BITMAP
1777777993
0000056440
0078940440
0350630440
0440540540
0440087940
0194000440
ENDCHAR
STARTCHAR uni0924094D0938
ENCODING -1
SWIDTH 876 0
DWIDTH 10 0
BBX 11 7 -1 0
BITMAP
177777C77C60
000000800800
008880900800
04505AA88900
044009000800
044004500800
019400900800
ENDCHAR
STARTCHAR uni0925094D092F
ENCODING -1
SWIDTH 931 0
DWIDTH 10 0
BBX 11 7 0 0
BITMAP
098447C7A930
050800804400
000828604400
488234004400
440037007400
078876889400
000000004300
ENDCHAR
STARTCHAR uni0925094D0935
ENCODING -1
SWIDTH 862 0
DWIDTH 9 0
BBX 10 7 0 0
BITMAP
09844778B4
0408067170
0008170170
4882260170
4400370270
0788777770
0000000170
ENDCHAR
STARTCHAR uni0926094D0917
ENCODING -1
SWIDTH 489 0
DWIDTH 5 0
BBX 7 8 -1 -1
BITMAP
17778A40
00688400
02600000
04400100
02601800
00798800
00270700
02820000
ENDCHAR
STARTCHAR uni0926094D0918
ENCODING -1
SWIDTH 686 0
DWIDTH 8 0
BBX 9 8 -1 -1
BITMAP
1777777C50
0000000800
0287800200
0621700000
02B4700700
0620788900
0620610700
0177600000
ENDCHAR
STARTCHAR uni0926094D0926
ENCODING -1
SWIDTH 506 0
DWIDTH 6 0
BBX 7 8 -1 -1
BITMAP
17778B50
00000800
00777500
02700000
00A83000
02700700
00978A00
00000800
ENDCHAR
STARTCHAR uni0926094D0927
ENCODING -1
SWIDTH 686 0
DWIDTH 8 0
BBX 9 8 -1 -1
BITMAP
1777777C50
0000000800
0281300200
0621700000
02B4800700
0620888900
0620610700
0177600000
ENDCHAR
STARTCHAR uni0926094D092C
ENCODING -1
SWIDTH 481 0
DWIDTH 5 0
BBX 7 9 -1 -2
BITMAP
17778A30
00002600
00888400
03500000
03500600
00B88800
01890700
01729700
00678100
ENDCHAR
STARTCHAR uni0926094D092D
ENCODING -1
SWIDTH 499 0
DWIDTH 5 0
BBX 7 9 -1 -2
BITMAP
17778B40
00788500
02600000
02602700
00788700
04501700
00801700
00877700
00401600
ENDCHAR
STARTCHAR uni0926094D092E
ENCODING -1
SWIDTH 706 0
DWIDTH 8 0
BBX 9 7 -1 0
BITMAP
1777B87C60
0088910800
0540000800
0530110800
0087930800
0000597A00
0000530800
ENDCHAR
STARTCHAR uni0926094D092F
ENCODING -1
SWIDTH 583 0
DWIDTH 6 0
BBX 8 7 -1 0
BITMAP
1779A8A4
00783260
02700260
00A70260
01600260
02600260
00887960
ENDCHAR
STARTCHAR uni0926094D0935
ENCODING -1
SWIDTH 483 0
DWIDTH 5 0
BBX 7 9 -1 -2
BITMAP
17778A30
00002600
00888400
03500000
03500600
00B87800
01700800
01701700
00678100
ENDCHAR
STARTCHAR uni0927094D092E
ENCODING -1
SWIDTH 817 0
DWIDTH 9 0
BBX 11 7 -1 0
BITMAP
18C51B87B710
036008008000
00B808008000
02600887B000
026008008000
007886008000
000000008000
ENDCHAR
STARTCHAR uni0927094D092F
ENCODING -1
SWIDTH 886 0
DWIDTH 10 0
BBX 11 7 -1 0
BITMAP
18C517A97C60
036000260800
00B807820800
026008000800
026007100A00
007876777900
000000000800
ENDCHAR
STARTCHAR uni0927094D0935
ENCODING -1
SWIDTH 810 0
DWIDTH 9 0
BBX 10 7 -1 0
BITMAP
18C51777B7
0360028480
00B8080080
0260080080
0260080090
00787687A0
0000000070
ENDCHAR
STARTCHAR uni0928094D0915
ENCODING -1
SWIDTH 973 0
DWIDTH 11 0
BBX 12 7 -1 0
BITMAP
1777777B7776
000007486750
000051081080
0477B0080080
060081090080
0000387A1850
000000070000
ENDCHAR
STARTCHAR uni0928094D091A
ENCODING -1
SWIDTH 820 0
DWIDTH 9 0
BBX 11 7 -1 0
BITMAP
17777777B710
000000008000
00005A938000
038838008000
080008009000
01000687B000
000000008000
ENDCHAR
STARTCHAR uni0928094D091B
ENCODING -1
SWIDTH 781 0
DWIDTH 9 0
BBX 10 7 -1 0
BITMAP
1777C878B5
0000800080
0000901770
0387C80080
0710700080
0110800080
0000788850
ENDCHAR
STARTCHAR uni0928094D091F
ENCODING -1
SWIDTH 715 0
DWIDTH 8 0
BBX 9 7 -1 0
BITMAP
1777777C70
0000000800
0000178700
0487A00000
0800800010
0100800340
0000588910
ENDCHAR
STARTCHAR uni0928094D0921
ENCODING -1
SWIDTH 705 0
DWIDTH 8 0
BBX 9 7 -1 0
BITMAP
1777777C60
0000000800
0000388700
0487B00000
0700477700
0000300810
0000677900
ENDCHAR
STARTCHAR uni0928094D0924
ENCODING -1
SWIDTH 717 0
DWIDTH 8 0
BBX 9 7 -1 0
BITMAP
1777777C70
0000000800
0000288B00
0487800800
0700800800
0000800800
0000770800
ENDCHAR
STARTCHAR uni0928094D0925
ENCODING -1
SWIDTH 804 0
DWIDTH 9 0
BBX 10 7 -1 0
BITMAP
1773688097
0000808080
0000108080
0477975080
07008000A0
0000588890
0000000080
ENDCHAR
STARTCHAR uni0928094D0926
ENCODING -1
SWIDTH 724 0
DWIDTH 8 0
BBX 10 7 -1 0
BITMAP
1777777B71
0000000800
0000288900
0477A00000
0500800520
0000388A20
0000000520
ENDCHAR
STARTCHAR uni0928094D0927
ENCODING -1
SWIDTH 753 0
DWIDTH 8 0
BBX 10 7 -1 0
BITMAP
1777C529A3
0001700440
0000800440
0488D81440
0501800540
0000777940
0000000440
ENDCHAR
STARTCHAR uni0928094D092A
ENCODING -1
SWIDTH 742 0
DWIDTH 8 0
BBX 10 7 -1 0
BITMAP
1777B87A92
0000710520
0000710520
0387B20720
0510287920
0000000520
0000000520
ENDCHAR
STARTCHAR uni0928094D092B
ENCODING -1
SWIDTH 970 0
DWIDTH 11 0
BBX 12 7 -1 0
BITMAP
1777B77C7776
000080087750
000080091080
0477B1090080
0400387A0080
000000082850
000000080000
ENDCHAR
STARTCHAR uni0928094D092D
ENCODING -1
SWIDTH 739 0
DWIDTH 8 0
BBX 10 7 -1 0
BITMAP
1777904B82
0000620620
0000620620
0387A97B20
0710620620
0000000620
0000000620
ENDCHAR
STARTCHAR uni0928094D092E
ENCODING -1
SWIDTH 735 0
DWIDTH 8 0
BBX 10 7 -1 0
BITMAP
1777B87B81
0000710710
0000710710
0387B87B10
0710710710
0000000710
0000000710
ENDCHAR
STARTCHAR uni0928094D092F
ENCODING -1
SWIDTH 801 0
DWIDTH 9 0
BBX 10 7 -1 0
BITMAP
177779A7C7
0000017080
0387982080
0800800080
03007100A0
0000177790
0000000080
ENDCHAR
STARTCHAR uni0928094D0935
ENCODING -1
SWIDTH 732 0
DWIDTH 8 0
BBX 10 7 -1 0
BITMAP
1777777B81
0000075710
0000510710
0477B00710
0600810810
0000287B10
0000000710
ENDCHAR
STARTCHAR uni0928094D0938
ENCODING -1
SWIDTH 867 0
DWIDTH 10 0
BBX 11 7 -1 0
BITMAP
177777B77B50
000000800800
038870800800
08006A988800
040018000800
000006300800
000000900800
ENDCHAR
STARTCHAR uni0928094D0939
ENCODING -1
SWIDTH 714 0
DWIDTH 8 0
BBX 9 8 -1 -1
BITMAP
1777777B70
0000188800
0000610000
0387B10000
07103A7600
0000810700
0000800000
0000277600
ENDCHAR
STARTCHAR uni092A094D091F
ENCODING -1
SWIDTH 489 0
DWIDTH 5 0
BBX 7 7 -1 0
BITMAP
18A77C40
02600800
01700800
00A88500
03500000
04400800
00877500
ENDCHAR
STARTCHAR uni092A094D0920
ENCODING -1
SWIDTH 506 0
DWIDTH 6 0
BBX 7 7 -1 0
BITMAP
18A77C50
02600800
01700800
00A8A500
03500800
03500800
00877500
ENDCHAR
STARTCHAR uni092A094D0924
ENCODING -1
SWIDTH 495 0
DWIDTH 5 0
BBX 7 7 -1 0
BITMAP
19A78B40
03501700
02601700
00B88700
03501700
04401700
01941600
ENDCHAR
STARTCHAR uni092A094D092A
ENCODING -1
SWIDTH 770 0
DWIDTH 8 0
BBX 10 7 -1 0
BITMAP
18B79A78B4
0170250170
0170250170
0170260270
0068767770
0000000170
0000000170
ENDCHAR
STARTCHAR uni092A094D092B
ENCODING -1
SWIDTH 1003 0
DWIDTH 11 0
BBX 13 7 -1 0
BITMAP
18B79A79A77710
01703503977000
01703503604400
01702604403500
00567668404400
00000003467000
00000003400000
ENDCHAR
STARTCHAR uni092A094D092E
ENCODING -1
SWIDTH 774 0
DWIDTH 9 0
BBX 10 7 -1 0
BITMAP
18B77B78B5
0170080080
0170080080
01801B7880
0068880080
0000010080
0000000070
ENDCHAR
STARTCHAR uni092A094D092F
ENCODING -1
SWIDTH 855 0
DWIDTH 9 0
BBX 11 7 -1 0
BITMAP
18B777C78A40
017000712600
017009702600
017017002600
006878004600
000004777600
000000002600
ENDCHAR
STARTCHAR uni092A094D0932
ENCODING -1
SWIDTH 960 0
DWIDTH 11 0
BBX 12 7 -1 0
BITMAP
18B7777777B5
017000000080
017007858780
017018090180
006887030080
000007000080
000007710080
ENDCHAR
STARTCHAR uni092A094D0935
ENCODING -1
SWIDTH 780 0
DWIDTH 9 0
BBX 10 7 -1 0
BITMAP
18B77777B5
0170057180
0170080080
0170170080
0068880180
0000058780
0000000070
ENDCHAR
STARTCHAR uni092A094D0938
ENCODING -1
SWIDTH 880 0
DWIDTH 10 0
BBX 11 7 -1 0
BITMAP
18B777C77C60
017000800800
017000900800
01703AA88900
006878000800
000003500800
000000800800
ENDCHAR
STARTCHAR uni092B094D091C
ENCODING -1
SWIDTH 1100 0
DWIDTH 12 0
BBX 14 7 -1 0
BITMAP
18B78A77777B82
01702600000710
01702A836A8B10
01803700071710
00688600072710
00002605770710
00002600000610
ENDCHAR
STARTCHAR uni092B094D091F
ENCODING -1
SWIDTH 1006 0
DWIDTH 11 0
BBX 13 7 -1 0
BITMAP
18B78A7777C710
01702A77008000
01702705B89000
01803607100000
00689608000600
00002607101700
00002602989100
ENDCHAR
STARTCHAR uni092B094D0924
ENCODING -1
SWIDTH 1034 0
DWIDTH 11 0
BBX 13 7 -1 0
BITMAP
18B78A77779A40
01702977003500
01702704989500
01803605403500
00688605303500
00002605303500
00002601932500
ENDCHAR
STARTCHAR uni092B094D092A
ENCODING -1
SWIDTH 1021 0
DWIDTH 11 0
BBX 13 7 -1 0
BITMAP
18B78B7B87A930
01702606205300
01702A8B205300
01803706306300
0079860199A300
00002600005300
00002600005300
ENDCHAR
STARTCHAR uni092B094D092B
ENCODING -1
SWIDTH 1256 0
DWIDTH 14 0
BBX 15 7 -1 0
BITMAP
18B78B7A87B87770
0170260620777600
01702A8B20730710
0180370630810620
0068860188A10710
0000260000728600
0000260000610000
ENDCHAR
STARTCHAR uni092B094D092F
ENCODING -1
SWIDTH 1120 0
DWIDTH 12 0
BBX 14 7 -1 0
BITMAP
18B78A778B7B71
01702600080800
01702A79840800
01803707100800
00688605300A00
00002600787A00
00002600000800
ENDCHAR
STARTCHAR uni092B094D0932
ENCODING -1
SWIDTH 1202 0
DWIDTH 13 0
BBX 15 7 -1 0
BITMAP
18B78A777777A920
01702A7700005300
01702705C858A300
0180360530906300
0068860710405300
0000260620005300
0000260296005300
ENDCHAR
STARTCHAR uni092B094D0936
ENCODING -1
SWIDTH 1211 0
DWIDTH 13 0
BBX 15 7 -1 0
BITMAP
18B78A7668913A30
01702A7540443500
0170270700633500
0180360697703500
0068860090003500
0000260045003500
0000260008103500
ENDCHAR
STARTCHAR uni092C094D091C
ENCODING -1
SWIDTH 883 0
DWIDTH 10 0
BBX 11 7 -1 0
BITMAP
177777777C60
000000000800
006004998900
045700080800
044270080800
007798840800
000000000800
ENDCHAR
STARTCHAR uni092C094D091D
ENCODING -1
SWIDTH 962 0
DWIDTH 11 0
BBX 12 8 -1 -1
BITMAP
1777777A87B5
007707791080
039317000080
04364A798780
035084017080
007772017080
00000A783070
000007000000
ENDCHAR
STARTCHAR uni092C094D0924
ENCODING -1
SWIDTH 786 0
DWIDTH 9 0
BBX 10 7 -1 0
BITMAP
17777777C6
0077000080
03A1068890
0447280080
0440870080
0078770080
0000075080
ENDCHAR
STARTCHAR uni092C094D0926
ENCODING -1
SWIDTH 775 0
DWIDTH 9 0
BBX 10 7 -1 0
BITMAP
17777777C5
0087000080
03A0068860
0466170000
0441770070
0078768890
0000000070
ENDCHAR
STARTCHAR uni092C094D0927
ENCODING -1
SWIDTH 844 0
DWIDTH 9 0
BBX 11 7 -1 0
BITMAP
17777C529930
007717004400
03820A814400
043638004400
035088005400
007777779400
000000004400
ENDCHAR
STARTCHAR uni092C094D092C
ENCODING -1
SWIDTH 783 0
DWIDTH 9 0
BBX 10 7 -1 0
BITMAP
17777777C5
0077057280
03920B4080
0437375480
0350880690
0077757780
0000000080
ENDCHAR
STARTCHAR uni092C094D092D
ENCODING -1
SWIDTH 764 0
DWIDTH 8 0
BBX 10 7 -1 0
BITMAP
17779228A4
0077260260
03B1260260
04472B8960
0340860260
0077810260
0000000260
ENDCHAR
STARTCHAR uni092C094D092F
ENCODING -1
SWIDTH 852 0
DWIDTH 9 0
BBX 11 7 -1 0
BITMAP
177777C79A40
007700713500
039219703500
043727003500
045089005500
007775777500
000000002500
ENDCHAR
STARTCHAR uni092C094D0932
ENCODING -1
SWIDTH 961 0
DWIDTH 11 0
BBX 12 7 -1 0
BITMAP
1777777777C5
007700000080
03B007858780
045718081180
044177040080
007876000080
000005710080
ENDCHAR
STARTCHAR uni092C094D0935
ENCODING -1
SWIDTH 776 0
DWIDTH 9 0
BBX 10 7 -1 0
BITMAP
17777777B5
0077057180
03A2080080
0437270080
0450880180
0077757780
0000000080
ENDCHAR
STARTCHAR uni092C094D0936
ENCODING -1
SWIDTH 926 0
DWIDTH 10 0
BBX 12 7 -1 0
BITMAP
177736790592
007707061530
03A200071530
04372A860530
04408B200530
007871800530
000000540530
ENDCHAR
STARTCHAR uni092C094D0938
ENCODING -1
SWIDTH 897 0
DWIDTH 10 0
BBX 11 7 -1 0
BITMAP
177777A87B70
007700620800
03A200710800
04372AA88B00
04408B100800
007872700800
000000720700
ENDCHAR
STARTCHAR uni092D094D092F
ENCODING -1
SWIDTH 827 0
DWIDTH 9 0
BBX 11 7 -1 0
BITMAP
192278B7B820
026000807100
026048507100
02B7A3007100
026045009100
00000777A100
000000006100
ENDCHAR
STARTCHAR uni092D094D0932
ENCODING -1
SWIDTH 941 0
DWIDTH 10 0
BBX 12 7 -1 0
BITMAP
1922777779A3
026000000350
026018858950
02B7940A0450
026053070350
002044000350
000019700350
ENDCHAR
STARTCHAR uni092D094D0935
ENCODING -1
SWIDTH 755 0
DWIDTH 8 0
BBX 10 7 -1 0
BITMAP
19227779A3
0260067340
0260350340
02B7A30340
0250450440
0000087840
0000000340
ENDCHAR
STARTCHAR uni092E094D0924
ENCODING -1
SWIDTH 765 0
DWIDTH 8 0
BBX 10 7 -1 0
BITMAP
18A77778A4
0260000260
0260078960
02B8940260
0260530260
0000440260
0000194260
ENDCHAR
STARTCHAR uni092E094D0926
ENCODING -1
SWIDTH 766 0
DWIDTH 8 0
BBX 10 7 -1 0
BITMAP
18A77778B4
0260000170
0260088850
02A7960000
0150260070
0000078880
0000000070
ENDCHAR
STARTCHAR uni092E094D092A
ENCODING -1
SWIDTH 762 0
DWIDTH 8 0
BBX 10 7 -1 0
BITMAP
18A79A78A4
0260440260
0260440260
02A7950360
0140087860
0000000260
0000000250
ENDCHAR
STARTCHAR uni092E094D092C
ENCODING -1
SWIDTH 768 0
DWIDTH 8 0
BBX 10 7 -1 0
BITMAP
18A77778B4
0260067270
02602B2170
02A7947370
0150350770
0000077770
0000000160
ENDCHAR
STARTCHAR uni092E094D092D
ENCODING -1
SWIDTH 768 0
DWIDTH 8 0
BBX 10 7 -1 0
BITMAP
18A79318B4
0260170170
0260170170
02A78B7870
0260170170
0000000170
0000000160
ENDCHAR
STARTCHAR uni092E094D092E
ENCODING -1
SWIDTH 759 0
DWIDTH 8 0
BBX 10 7 -1 0
BITMAP
18A79A79A3
0260350350
0260350350
02A79A7950
0260350350
0000000350
0000000350
ENDCHAR
STARTCHAR uni092E094D092F
ENCODING -1
SWIDTH 834 0
DWIDTH 9 0
BBX 11 7 -1 0
BITMAP
18A778B7A920
026000805200
026038505200
02A794005200
026036007200
000006779200
000000005200
ENDCHAR
STARTCHAR uni092E094D0932
ENCODING -1
SWIDTH 945 0
DWIDTH 10 0
BBX 12 7 -1 0
BITMAP
18A7777778A4
026000000260
026008858860
02A7950A0360
026044070260
002034000260
000009700260
ENDCHAR
STARTCHAR uni092E094D0935
ENCODING -1
SWIDTH 761 0
DWIDTH 8 0
BBX 10 7 -1 0
BITMAP
18A77779A4
0260067250
0260250250
02A7940250
0250360450
0000077850
0000000250
ENDCHAR
STARTCHAR uni092E094D0936
ENCODING -1
SWIDTH 884 0
DWIDTH 10 0
BBX 11 7 -1 0
BITMAP
18A719850A60
026035080800
026000080800
02A798820800
026018000800
001006300800
000000900800
ENDCHAR
STARTCHAR uni092E094D0938
ENCODING -1
SWIDTH 816 0
DWIDTH 9 0
BBX 11 7 -1 0
BITMAP
18A77A97B710
026004408000
026006308000
02B8AA88B000
026072008000
001018008000
000006308000
ENDCHAR
STARTCHAR uni092E094D0939
ENCODING -1
SWIDTH 758 0
DWIDTH 8 0
BBX 10 8 -1 -1
BITMAP
18A77779A3
0260068840
0260080000
02A7870000
0260097820
0120170070
0000170000
0000067730
ENDCHAR
STARTCHAR uni092F094D092F
ENCODING -1
SWIDTH 897 0
DWIDTH 10 0
BBX 11 7 -1 0
BITMAP
178C779A7C70
000800080800
038506830800
044008000800
026009100A00
005775777900
000000000800
ENDCHAR
STARTCHAR uni0930094D092F
ENCODING -1
SWIDTH 713 0
DWIDTH 8 0
BBX 9 7 -1 0
BITMAP
17779A7C70
0200080800
058A820800
0008000800
0007100A00
0001777900
0000000800
ENDCHAR
STARTCHAR uni0930094D0939
ENCODING -1
SWIDTH 619 0
DWIDTH 7 0
BBX 8 8 -1 -1
BITMAP
177777B7
03028880
047B0000
00070000
0002A760
00080080
00080000
00027760
ENDCHAR
STARTCHAR uni0932094D0915
ENCODING -1
SWIDTH 1182 0
DWIDTH 13 0
BBX 15 7 -1 0
BITMAP
1777777779977710
0000000674877000
0078589504504400
0260904304403500
0350404505404400
0350000879477000
0097000004400000
ENDCHAR
STARTCHAR uni0932094D0916
ENCODING -1
SWIDTH 1195 0
DWIDTH 13 0
BBX 15 7 -1 0
BITMAP
177777779A77A820
0000000035006200
0078588144566200
0260A02B80806200
0350700810807200
0350000180579200
0097000054006200
ENDCHAR
STARTCHAR uni0932094D0917
ENCODING -1
SWIDTH 950 0
DWIDTH 10 0
BBX 12 7 -1 0
BITMAP
1777777B78B4
000000080170
007858380170
0260A0080170
035070650170
035000000170
009700000170
ENDCHAR
STARTCHAR uni0932094D091C
ENCODING -1
SWIDTH 1035 0
DWIDTH 11 0
BBX 13 7 -1 0
BITMAP
17777777778A40
00000000002600
00775826A89600
02609000262600
03503000262600
03500057812600
00970000002600
ENDCHAR
STARTCHAR uni0932094D091F
ENCODING -1
SWIDTH 929 0
DWIDTH 10 0
BBX 12 7 -1 0
BITMAP
177777777B83
000000000710
007848778A00
0260A0540000
035080620020
035000530080
009700198840
ENDCHAR
STARTCHAR uni0932094D0920
ENCODING -1
SWIDTH 953 0
DWIDTH 10 0
BBX 12 7 -1 0
BITMAP
177777777A94
000000000620
007848788B10
0260A0530170
035080620080
035000620080
009700198840
ENDCHAR
STARTCHAR uni0932094D0921
ENCODING -1
SWIDTH 916 0
DWIDTH 10 0
BBX 12 7 -1 0
BITMAP
177777777B81
000000000710
007848688900
0260A0540000
035080177810
035000100360
009700387930
ENDCHAR
STARTCHAR uni0932094D0922
ENCODING -1
SWIDTH 924 0
DWIDTH 10 0
BBX 12 7 -1 0
BITMAP
177777777B82
000000000710
006737777900
0260A0530000
035080623740
035020625080
009700198850
ENDCHAR
STARTCHAR uni0932094D0924
ENCODING -1
SWIDTH 929 0
DWIDTH 10 0
BBX 12 7 -1 0
BITMAP
177777777A92
000000000530
007878778A30
0260A0610530
035070800530
035000710530
009700382530
ENDCHAR
STARTCHAR uni0932094D0925
ENCODING -1
SWIDTH 1061 0
DWIDTH 12 0
BBX 13 7 -1 0
BITMAP
17777727860A60
00000008080800
00785881080800
02609049830800
03505026001900
03500006877900
00970000000800
ENDCHAR
STARTCHAR uni0932094D0926
ENCODING -1
SWIDTH 939 0
DWIDTH 10 0
BBX 12 7 -1 0
BITMAP
1777777779A3
000000000350
007858788830
026090440000
035040440160
035000088780
009700000070
ENDCHAR
STARTCHAR uni0932094D092A
ENCODING -1
SWIDTH 939 0
DWIDTH 10 0
BBX 12 7 -1 0
BITMAP
177777A979A3
000000430350
007758A30350
026090440450
035030087850
035000000350
009700000350
ENDCHAR
STARTCHAR uni0932094D092B
ENCODING -1
SWIDTH 1176 0
DWIDTH 13 0
BBX 14 7 -1 0
BITMAP
177777A97A9777
00000044058770
007758A4055053
02609045063044
03504008893053
03500000053770
00970000053000
ENDCHAR
STARTCHAR uni0932094D092C
ENCODING -1
SWIDTH 949 0
DWIDTH 10 0
BBX 12 7 -1 0
BITMAP
1777777778B4
000000067270
0077588B0170
026090457270
035040350870
035000077770
009700000160
ENDCHAR
STARTCHAR uni0932094D092D
ENCODING -1
SWIDTH 931 0
DWIDTH 10 0
BBX 12 7 -1 0
BITMAP
177777A13A93
000000540440
007858A40440
0260A0497A40
035070440440
035000110440
009700000430
ENDCHAR
STARTCHAR uni0932094D092E
ENCODING -1
SWIDTH 931 0
DWIDTH 10 0
BBX 12 7 -1 0
BITMAP
177777A97A93
000000440440
007858A40440
0260A0497A40
035070440440
035000110440
009700000430
ENDCHAR
STARTCHAR uni0932094D092F
ENCODING -1
SWIDTH 1033 0
DWIDTH 11 0
BBX 13 7 -1 0
BITMAP
17777777C79A30
00683860713500
0260A033703500
0350801A603500
03504007005500
02600004778500
00870000002500
ENDCHAR
STARTCHAR uni0932094D0932
ENCODING -1
SWIDTH 1112 0
DWIDTH 12 0
BBX 14 7 -1 0
BITMAP
17777777777A93
00000000000540
00784888848940
0260A0530A0640
03508062080540
03500062000540
00970029600530
ENDCHAR
STARTCHAR uni0932094D0935
ENCODING -1
SWIDTH 940 0
DWIDTH 10 0
BBX 12 7 -1 0
BITMAP
1777777779A3
000000067350
007858950350
026090440350
035040450450
035000087850
009700000250
ENDCHAR
STARTCHAR uni0932094D0938
ENCODING -1
SWIDTH 1068 0
DWIDTH 12 0
BBX 13 7 -1 0
BITMAP
17777777B77C60
00000000800800
00785880900800
0260904BA88A00
03506009000800
03500003600800
00970000810800
ENDCHAR
STARTCHAR uni0932094D0939
ENCODING -1
SWIDTH 922 0
DWIDTH 10 0
BBX 12 8 -1 -1
BITMAP
177777777A92
000000000520
007848788910
0260A0350000
0350800A7810
035000440350
009700440010
000000077710
ENDCHAR
STARTCHAR uni0933094D092F
ENCODING -1
SWIDTH 1050 0
DWIDTH 12 0
BBX 13 7 -1 0
BITMAP
17777777B87B50
00775771530800
0350900B800800
04408008000800
0350900B002800
00777885876800
00000000000800
ENDCHAR
STARTCHAR uni0935094D092F
ENCODING -1
SWIDTH 852 0
DWIDTH 9 0
BBX 11 7 -1 0
BITMAP
177777C79A40
007700713600
034019703600
043017003600
045029005600
007875777600
000000002500
ENDCHAR
STARTCHAR uni0935094D0932
ENCODING -1
SWIDTH 961 0
DWIDTH 11 0
BBX 12 7 -1 0
BITMAP
1777777777C5
007700000080
034007858880
043018081180
045027040080
007876000080
000005710080
ENDCHAR
STARTCHAR uni0935094D0935
ENCODING -1
SWIDTH 776 0
DWIDTH 9 0
BBX 10 7 -1 0
BITMAP
17777777B5
0077057180
0350080080
0430170080
0340280180
0067657680
0000000080
ENDCHAR
STARTCHAR uni0935094D0939
ENCODING -1
SWIDTH 754 0
DWIDTH 8 0
BBX 10 8 -1 -1
BITMAP
17777779A3
0077068830
0440170000
0530170000
04500A7830
0077870030
0000160000
0000057720
ENDCHAR
STARTCHAR uni0936094D0915
ENCODING -1
SWIDTH 1093 0
DWIDTH 12 0
BBX 13 7 0 0
BITMAP
19863779A77710
24080774988000
00083504604400
58834404403500
18003505404400
06300778467000
00900003400000
ENDCHAR
STARTCHAR uni0936094D091A
ENCODING -1
SWIDTH 950 0
DWIDTH 10 0
BBX 11 7 0 0
BITMAP
098637778B40
350800001700
010838A61700
588307101700
180008103700
063002877700
009000001700
ENDCHAR
STARTCHAR uni0936094D091B
ENCODING -1
SWIDTH 968 0
DWIDTH 11 0
BBX 11 7 0 0
BITMAP
19853C877C60
350808000800
110807007800
688207910800
280008000800
063008000800
009006888600
ENDCHAR
STARTCHAR uni0936094D091F
ENCODING -1
SWIDTH 854 0
DWIDTH 9 0
BBX 10 7 0 0
BITMAP
0986377A94
3508000440
1208068920
5883260000
1800350050
0630250080
0090088850
ENDCHAR
STARTCHAR uni0936094D0924
ENCODING -1
SWIDTH 864 0
DWIDTH 10 0
BBX 10 7 0 0
BITMAP
19863778B5
3508000080
0008078880
5883360080
1800350080
0630350080
0090094070
ENDCHAR
STARTCHAR uni0936094D092E
ENCODING -1
SWIDTH 885 0
DWIDTH 10 0
BBX 10 7 0 0
BITMAP
09863B77C6
3508080080
0108080080
58830A77A0
1800070080
0630000080
0090000080
ENDCHAR
STARTCHAR uni0936094D092F
ENCODING -1
SWIDTH 940 0
DWIDTH 10 0
BBX 11 7 0 0
BITMAP
198637C79A30
240800803500
000819603500
588326003500
180008005500
063004778500
009000003500
ENDCHAR
STARTCHAR uni0936094D0932
ENCODING -1
SWIDTH 1039 0
DWIDTH 11 0
BBX 12 7 0 0
BITMAP
0986377778B4
250800000260
120807868860
588326090360
180034060260
063035000260
009009700260
ENDCHAR
STARTCHAR uni0936094D0935
ENCODING -1
SWIDTH 850 0
DWIDTH 9 0
BBX 10 7 0 0
BITMAP
19863779A3
2408078350
0008350350
5883440350
1800350450
0630077850
0090000250
ENDCHAR
STARTCHAR uni0936094D0936
ENCODING -1
SWIDTH 1009 0
DWIDTH 11 0
BBX 12 7 0 0
BITMAP
198607780682
350808080710
000800080710
588319860710
180009100710
063002800710
009000630610
ENDCHAR
STARTCHAR uni0937094D0915
ENCODING -1
SWIDTH 1039 0
DWIDTH 11 0
BBX 13 7 -1 0
BITMAP
18C77777B77740
01840482978200
01734800900800
01805900800800
00687900900800
00000487838200
00000000700000
ENDCHAR
STARTCHAR uni0937094D091F
ENCODING -1
SWIDTH 493 0
DWIDTH 5 0
BBX 7 7 -1 0
BITMAP
18D77C40
02870800
01717800
00A88500
03500000
04400700
00877600
ENDCHAR
STARTCHAR uni0937094D0920
ENCODING -1
SWIDTH 511 0
DWIDTH 6 0
BBX 7 7 -1 0
BITMAP
18EFFD50
02FFFB00
01FFF900
00AAA600
03500800
03500800
00877600
ENDCHAR
STARTCHAR uni0937094D0923
ENCODING -1
SWIDTH 980 0
DWIDTH 11 0
BBX 12 7 -1 0
BITMAP
18C77B79A7C7
01A508025080
017448025080
01705B035080
005774770080
000000000080
000000000080
ENDCHAR
STARTCHAR uni0937094D092A
ENCODING -1
SWIDTH 980 0
DWIDTH 11 0
BBX 12 7 -1 0
BITMAP
18C77B79A7C7
01A508025080
017448025080
01705B035080
005774770080
000000000080
000000000080
ENDCHAR
STARTCHAR uni0937094D092B
ENCODING -1
SWIDTH 1036 0
DWIDTH 11 0
BBX 13 7 -1 0
BITMAP
18C77C77C77740
01840800A78200
01734800900800
01805B00900800
00687488900800
00000000848200
00000000800000
ENDCHAR
STARTCHAR uni0937094D092E
ENCODING -1
SWIDTH 791 0
DWIDTH 9 0
BBX 10 7 -1 0
BITMAP
18C77B77C6
01A4080080
0174380080
01805B7790
0079760080
0000000080
0000000080
ENDCHAR
STARTCHAR uni0937094D092F
ENCODING -1
SWIDTH 877 0
DWIDTH 10 0
BBX 11 7 -1 0
BITMAP
18C777B97B60
019500350800
017358810800
01705A000800
006879001900
000002876800
000000000700
ENDCHAR
STARTCHAR uni0937094D0935
ENCODING -1
SWIDTH 802 0
DWIDTH 9 0
BBX 10 7 -1 0
BITMAP
18C77777B7
0184038380
0173480080
01805A0080
0068790090
0000038790
0000000070
ENDCHAR
STARTCHAR uni0937094D0937
ENCODING -1
SWIDTH 804 0
DWIDTH 9 0
BBX 10 7 -1 0
BITMAP
18C77D87C7
01A5097080
0174482680
01705B02B0
00687488A0
0000000080
0000000080
ENDCHAR
STARTCHAR uni0938094D0915
ENCODING -1
SWIDTH 1089 0
DWIDTH 12 0
BBX 14 7 -1 0
BITMAP
177C7777997771
00080076487700
00180340450540
07A98A30440350
03600440540540
00810087947700
00170000440000
ENDCHAR
STARTCHAR uni0938094D0916
ENCODING -1
SWIDTH 990 0
DWIDTH 11 0
BBX 12 7 -1 0
BITMAP
177C77B877B7
000800710080
000800807480
07A999635080
036009035090
0081046077A0
001700810080
ENDCHAR
STARTCHAR uni0938094D091C
ENCODING -1
SWIDTH 970 0
DWIDTH 11 0
BBX 12 7 -1 0
BITMAP
177C777777C6
000800000080
000800499890
07A987008080
036000009080
008101783080
001700000080
ENDCHAR
STARTCHAR uni0938094D091F
ENCODING -1
SWIDTH 844 0
DWIDTH 9 0
BBX 11 7 -1 0
BITMAP
177C7777B830
000800006200
001801889100
07A98A500000
036005300400
008104400800
001700888400
ENDCHAR
STARTCHAR uni0938094D0924
ENCODING -1
SWIDTH 852 0
DWIDTH 9 0
BBX 11 7 -1 0
BITMAP
177C77779A40
000800003500
001801889500
07A98A403500
036005303500
008105303500
001701932500
ENDCHAR
STARTCHAR uni0938094D0925
ENCODING -1
SWIDTH 960 0
DWIDTH 11 0
BBX 12 7 -1 0
BITMAP
177C718850B5
000800808080
001700208080
07A989883080
036004500280
008100777680
001700000080
ENDCHAR
STARTCHAR uni0938094D0926
ENCODING -1
SWIDTH 851 0
DWIDTH 9 0
BBX 11 7 -1 0
BITMAP
177C77779A30
000800002600
001801888400
07A989500000
036003500700
008100787800
001700000700
ENDCHAR
STARTCHAR uni0938094D092A
ENCODING -1
SWIDTH 857 0
DWIDTH 9 0
BBX 11 7 -1 0
BITMAP
177C79A78B40
000803502600
001803502600
07A989603600
036000787600
008100002600
001700001600
ENDCHAR
STARTCHAR uni0938094D092B
ENCODING -1
SWIDTH 1092 0
DWIDTH 12 0
BBX 14 7 -1 0
BITMAP
177C79A79A7771
00080350497700
00180350450440
07A98960540350
03600068940440
00810000447700
00170000440000
ENDCHAR
STARTCHAR uni0938094D092C
ENCODING -1
SWIDTH 857 0
DWIDTH 9 0
BBX 11 7 -1 0
BITMAP
177C77778B40
000800672600
001803A22600
07A98A473600
036003508600
008100777600
001700001600
ENDCHAR
STARTCHAR uni0938094D092E
ENCODING -1
SWIDTH 850 0
DWIDTH 9 0
BBX 11 7 -1 0
BITMAP
177C79A79A30
000803503500
001803503500
079879A79500
036003503500
008100103500
001700003500
ENDCHAR
STARTCHAR uni0938094D092F
ENCODING -1
SWIDTH 920 0
DWIDTH 10 0
BBX 12 7 -1 0
BITMAP
177C778B7B82
000800080620
001804850620
07A98A300620
036003500820
008100677920
001700000610
ENDCHAR
STARTCHAR uni0938094D0932
ENCODING -1
SWIDTH 1027 0
DWIDTH 11 0
BBX 13 7 -1 0
BITMAP
177C7777779A30
00080000004400
00180198589400
07A98A40A05400
03600530604400
00810530004400
00170187004400
ENDCHAR
STARTCHAR uni0938094D0935
ENCODING -1
SWIDTH 842 0
DWIDTH 9 0
BBX 11 7 -1 0
BITMAP
177C77779930
000800774400
001804404400
07A98A304400
036005405400
008100879400
001700004400
ENDCHAR
STARTCHAR uni0938094D0938
ENCODING -1
SWIDTH 871 0
DWIDTH 10 0
BBX 11 7 -1 0
BITMAP
177C77C77C50
000800800800
001800900800
07A99AA88800
036008000800
008105400800
001700900800
ENDCHAR
STARTCHAR uni0939094D0923
ENCODING -1
SWIDTH 1136 0
DWIDTH 13 0
BBX 14 10 -1 -3
BITMAP
17779A8B7B88B4
00003526071180
00788326071180
01700026071180
00978117080180
02701706750180
02600200000170
00677200000000
00015000000000
00007200000000
ENDCHAR
STARTCHAR uni0939094D092E
ENCODING -1
SWIDTH 746 0
DWIDTH 8 0
BBX 10 8 -1 -1
BITMAP
17779A7A92
0000350530
0088830530
0260000530
00A7840530
03502A7A30
0350250530
0077720210
ENDCHAR
STARTCHAR uni0939094D092F
ENCODING -1
SWIDTH 785 0
DWIDTH 9 0
BBX 10 9 -1 -2
BITMAP
17779A77C6
0088840080
0260000080
00A7773080
0350008080
0440584080
0350530190
0067477680
0000000040
ENDCHAR
STARTCHAR uni0939094D0932
ENCODING -1
SWIDTH 1110 0
DWIDTH 12 0
BBX 14 10 -1 -3
BITMAP
17779A77777A92
00688300000530
01700018858A30
017000620A0630
00978271080530
02701762000530
02600129600530
00677200000000
00023000000000
00008100000000
ENDCHAR
STARTCHAR uni0939094D0935
ENCODING -1
SWIDTH 920 0
DWIDTH 10 0
BBX 12 10 -1 -3
BITMAP
17779A777A82
000035000620
007883186620
017000710620
009783710720
027004187A20
026000000620
006772000000
000240000000
000081000000
ENDCHAR
STARTCHAR uni0915093C094D0915093C
ENCODING -1
SWIDTH 1275 0
DWIDTH 14 0
BBX 16 8 -1 -1
BITMAP
17779977779A7771
0076487777397700
0440450550360440
0530440440340350
0440540350440440
0077940077846700
0000440000340000
0050000041000000
ENDCHAR
STARTCHAR uni0915093C094D0924
ENCODING -1
SWIDTH 1016 0
DWIDTH 11 0
BBX 13 8 -1 -1
BITMAP
1777997777A920
00764877005200
0440450698B200
05304407105200
04405408005200
00779408005200
00004403825200
00500000000000
ENDCHAR
STARTCHAR uni0915093C094D092B
ENCODING -1
SWIDTH 1246 0
DWIDTH 14 0
BBX 15 8 -1 -1
BITMAP
1777997B77B77760
0076440800867500
0440498B00810800
0530450710900800
0440540288B00800
0077940000818500
0000440000800000
0050000000000000
ENDCHAR
STARTCHAR uni0915093C094D092B093C
ENCODING -1
SWIDTH 1247 0
DWIDTH 14 0
BBX 15 8 -1 -1
BITMAP
1777997B77B77760
0076440800867500
0440498B00810800
0530450710900710
0440540288B00800
0077940000818500
0000440000700000
0050000050000000
ENDCHAR
STARTCHAR uni0915093C094D092C
ENCODING -1
SWIDTH 1043 0
DWIDTH 11 0
BBX 13 8 -1 -1
BITMAP
17779977778B40
00764877771700
04404505A31700
05304404463700
04505403608700
00889400788700
00004400001700
00500000000000
ENDCHAR
STARTCHAR uni0915093C094D092E
ENCODING -1
SWIDTH 998 0
DWIDTH 11 0
BBX 13 8 -1 -1
BITMAP
1777997C77C710
00764408008000
0440498B008000
0530450877B000
04405407008000
00779400008000
00004400008000
00500000000000
ENDCHAR
STARTCHAR uni0916093C094D0924
ENCODING -1
SWIDTH 984 0
DWIDTH 11 0
BBX 12 8 -1 -1
BITMAP
177C777777C7
000800000080
0009182488B0
079471080080
027071080080
007318790080
000900087080
000002300000
ENDCHAR
STARTCHAR uni0916093C094D092E
ENCODING -1
SWIDTH 965 0
DWIDTH 11 0
BBX 12 8 -1 -1
BITMAP
177C777C77C5
000800080080
000918280080
0794710B7790
027061080080
007317720080
000900000080
000001400000
ENDCHAR
STARTCHAR uni0916093C094D092F
ENCODING -1
SWIDTH 1045 0
DWIDTH 12 0
BBX 13 8 -1 -1
BITMAP
177C7777B88B40
00080000531800
00091209701800
07947108001800
0270720A003800
00731877877800
00090000001700
00000220000000
ENDCHAR
STARTCHAR uni0916093C094D0935
ENCODING -1
SWIDTH 972 0
DWIDTH 11 0
BBX 12 8 -1 -1
BITMAP
177C777777C6
000800047280
000918280080
079471080080
0270511A0090
007301278790
000900000080
000002200000
ENDCHAR
STARTCHAR uni0916093C094D0936
ENCODING -1
SWIDTH 1123 0
DWIDTH 12 0
BBX 14 8 -1 -1
BITMAP
177C77448913A3
00080008044350
00091824054350
06847139780350
0270711B000350
00731877500350
00090000810350
00000220000000
ENDCHAR
STARTCHAR uni0916093C094D0938
ENCODING -1
SWIDTH 1066 0
DWIDTH 12 0
BBX 13 8 -1 -1
BITMAP
177C7777B77C60
00080000800800
00091820900800
0694712AA88A00
0270711C000800
00631876600800
00090000910800
00000220000000
ENDCHAR
STARTCHAR uni091C093C094D091C093C
ENCODING -1
SWIDTH 934 0
DWIDTH 10 0
BBX 11 8 -1 -1
BITMAP
177777777C70
000000000800
018A828A8B00
000800080800
000810090800
058606860800
000000000800
004000500000
ENDCHAR
STARTCHAR uni091C093C094D092F
ENCODING -1
SWIDTH 893 0
DWIDTH 10 0
BBX 11 8 -1 -1
BITMAP
1777779A7C70
000000170800
028A8A820800
000808000800
000908100A00
058601877900
000000000800
004000000000
ENDCHAR
STARTCHAR uni092B093C094D091C093C
ENCODING -1
SWIDTH 1100 0
DWIDTH 12 0
BBX 14 8 -1 -1
BITMAP
18B78A77777B82
01702600000710
01702A836A8B10
01803700071710
00688600072710
00002605770710
00002600000610
00500000500000
ENDCHAR
STARTCHAR uni092B093C094D0924
ENCODING -1
SWIDTH 1036 0
DWIDTH 11 0
BBX 13 8 -1 -1
BITMAP
18B78A77778A40
01702977002600
01702704989600
01803604402600
00688605302600
00002605302600
00002601942600
00400000000000
ENDCHAR
STARTCHAR uni092B093C094D092B093C
ENCODING -1
SWIDTH 1256 0
DWIDTH 14 0
BBX 15 8 -1 -1
BITMAP
18B78B7A87B87770
0170260620777600
01702A8B20730710
0180370630810620
0068860187A10710
0000260000728600
0000260000610000
0050000050000000
ENDCHAR
STARTCHAR uni092B093C094D0938
ENCODING -1
SWIDTH 1141 0
DWIDTH 13 0
BBX 14 8 -1 -1
BITMAP
18B78A777C77B5
01702A75080080
01702707090080
01803606A98880
00688601800080
00002600630080
00002600090080
00500000000000
ENDCHAR
STARTCHAR uni092C094D091C093C
ENCODING -1
SWIDTH 883 0
DWIDTH 10 0
BBX 11 8 -1 -1
BITMAP
177777777C60
000000000800
006004998900
045700080800
044270080800
007798840800
000000000800
000004100000
ENDCHAR
STARTCHAR uni0932094D091C093C
ENCODING -1
SWIDTH 1062 0
DWIDTH 12 0
BBX 13 8 -1 -1
BITMAP
17777777778A40
00000000002600
00775826A89600
02609000262600
03503000262600
03500057812600
00970000002600
00000005000000
ENDCHAR
STARTCHAR uni0936094D0915093C
ENCODING -1
SWIDTH 1093 0
DWIDTH 12 0
BBX 13 8 0 -1
BITMAP
19863779A77710
24080774977000
00083504604400
58834404403500
18003505404400
06300778467000
00900003400000
00000500000000
ENDCHAR
STARTCHAR uni0924094D0924094D
ENCODING -1
SWIDTH 309 0
DWIDTH 3 0
BBX 6 7 -1 0
BITMAP
177774
000000
05A984
008000
008000
008000
005700
ENDCHAR
STARTCHAR uni0928094D092D094D
ENCODING -1
SWIDTH 505 0
DWIDTH 6 0
BBX 8 5 -1 2
BITMAP
17779036
00007100
00007100
0477B876
05007100
ENDCHAR
STARTCHAR uni0928094D0938094D
ENCODING -1
SWIDTH 635 0
DWIDTH 7 0
BBX 10 7 -1 0
BITMAP
177777C772
0000008000
0398708000
07105AA882
0310090000
0000054000
0000009000
ENDCHAR
STARTCHAR uni092E094D092D094D
ENCODING -1
SWIDTH 533 0
DWIDTH 6 0
BBX 8 5 -1 2
BITMAP
18A79227
02602600
02602600
02A78B77
02602600
ENDCHAR
STARTCHAR uni0932094D092D094D
ENCODING -1
SWIDTH 694 0
DWIDTH 8 0
BBX 10 7 -1 0
BITMAP
177777A136
0000005400
007858A400
0260A04976
0350704400
0350001100
0097000000
ENDCHAR
STARTCHAR uni0938094D0924094D0930094D
ENCODING -1
SWIDTH 575 0
DWIDTH 6 0
BBX 9 7 -1 0
BITMAP
177C777500
0008000000
0018058830
07A9870070
0360000270
0081004800
0017066000
ENDCHAR
STARTCHAR uni0915094D0924094D092F
ENCODING -1
SWIDTH 1356 0
DWIDTH 15 0
BBX 16 7 -1 0
BITMAP
177799777779A7C7
0076487700008080
0440450698A83080
0530440710800080
04405408006200A0
0077940710077790
0000440282000080
ENDCHAR
STARTCHAR uni0915094D0924094D0930
ENCODING -1
SWIDTH 997 0
DWIDTH 11 0
BBX 13 7 -1 0
BITMAP
1777997777C710
00764776008000
0440450887B000
05304408009000
0440540201B000
00779400388000
00004404708000
ENDCHAR
STARTCHAR uni0915094D0924094D0935
ENCODING -1
SWIDTH 1242 0
DWIDTH 14 0
BBX 15 7 -1 0
BITMAP
1777997777777B60
0076487600372800
0440450888800800
0530440800800800
0440540800800900
0077940800587800
0000440670000700
ENDCHAR
STARTCHAR uni0915094D092A094D0930
ENCODING -1
SWIDTH 1007 0
DWIDTH 11 0
BBX 13 7 -1 0
BITMAP
1777997B77B810
0076497B007100
04404508007100
05304407108100
0440540179B100
00779400367100
00004402707100
ENDCHAR
STARTCHAR uni0915094D0935094D092F
ENCODING -1
SWIDTH 1384 0
DWIDTH 15 0
BBX 17 7 -1 0
BITMAP
177799777778C7A920
007649778600805300
044045062029605300
053044071044005300
045054063057007300
008894018875779300
000044000000005300
ENDCHAR
STARTCHAR uni0915094D0938094D091F
ENCODING -1
SWIDTH 1376 0
DWIDTH 15 0
BBX 17 7 -1 0
BITMAP
177799777C7777B720
007648760800008000
044045062901889000
05304404AA8B300000
044054009007100600
007794004506200700
000044000901889200
ENDCHAR
STARTCHAR uni0915094D0938094D0921
ENCODING -1
SWIDTH 1388 0
DWIDTH 15 0
BBX 17 7 -1 0
BITMAP
177799777C77779930
007648760800004400
044045062900889200
05304404AA88700000
045054009000577300
008994004502400800
000044000900978500
ENDCHAR
STARTCHAR uni0915094D0938094D0924
ENCODING -1
SWIDTH 1423 0
DWIDTH 16 0
BBX 17 7 -1 0
BITMAP
177799777C77777C60
007648760800000800
044045062900688900
05304404AA88800800
044054009001700800
007794004501700800
000044000900850800
ENDCHAR
STARTCHAR uni0915094D0938094D092A094D0930
ENCODING -1
SWIDTH 1437 0
DWIDTH 16 0
BBX 17 7 -1 0
BITMAP
177799777C77C77C70
007648760800800800
044045062900800800
05304404AA88A00900
04405400900047AA00
007794004500063800
000044000900440800
ENDCHAR
STARTCHAR uni0915094D0938094D092A094D0932
ENCODING -1
SWIDTH 1866 0
DWIDTH 21 0
BBX 22 7 -1 0
BITMAP
177799777C77C7777777B5
0076487608008000000080
0440450629008007868780
05304404AA88A017090180
0440540090004886030080
0077940045000016000080
0000440009000007710080
ENDCHAR
STARTCHAR uni0917094D0927094D092F
ENCODING -1
SWIDTH 1156 0
DWIDTH 13 0
BBX 14 7 -1 0
BITMAP
17B78B447A97C6
00804500026080
00801B70781080
00803500800080
065035008001A0
00000787677790
00000000000080
ENDCHAR
STARTCHAR uni0917094D0927094D0935
ENCODING -1
SWIDTH 1084 0
DWIDTH 12 0
BBX 13 7 -1 0
BITMAP
17B78B44777B70
00803500284800
00800B70800800
00803500800800
06503500800900
00000787687A00
00000000000700
ENDCHAR
STARTCHAR uni0917094D0928094D092F
ENCODING -1
SWIDTH 1069 0
DWIDTH 12 0
BBX 13 7 -1 0
BITMAP
17B77777A97C60
00800000260800
00804879820800
00808008000800
06606007100A00
00000001777900
00000000000800
ENDCHAR
STARTCHAR uni0917094D092D094D092F
ENCODING -1
SWIDTH 1102 0
DWIDTH 12 0
BBX 14 7 -1 0
BITMAP
17B793178B7B82
00801600080620
00801704850620
00801B7A300620
06501704500820
00000000777A20
00000000000610
ENDCHAR
STARTCHAR uni0917094D0930094D092F
ENCODING -1
SWIDTH 817 0
DWIDTH 9 0
BBX 11 8 -1 -1
BITMAP
17B778B7B710
008000808000
008058408000
008071008000
06505300A000
0000077BB000
000001928000
000004200000
ENDCHAR
STARTCHAR uni091A094D091B094D0935
ENCODING -1
SWIDTH 913 0
DWIDTH 10 0
BBX 12 8 -1 -1
BITMAP
17777AA77C71
000007200800
006102B40710
008006200440
008007200530
003886B87B00
000002700800
000000778500
ENDCHAR
STARTCHAR uni091C094D091C094D091E
ENCODING -1
SWIDTH 945 0
DWIDTH 10 0
BBX 12 8 -1 -1
BITMAP
1777777778A4
000000000260
018A8A100260
000808000260
000813876260
058608008260
000008678260
000006000000
ENDCHAR
STARTCHAR uni091C094D091C094D092F
ENCODING -1
SWIDTH 1252 0
DWIDTH 14 0
BBX 15 7 -1 0
BITMAP
1777777777A97B70
0000000000170800
018A71897A820800
0008100808000800
0008100808100A00
0587078501877800
0000000000000800
ENDCHAR
STARTCHAR uni091C094D091C094D0935
ENCODING -1
SWIDTH 1243 0
DWIDTH 14 0
BBX 14 7 -1 0
BITMAP
177777777777C7
00000000017480
018A81898A0080
00081008080080
00081008080090
058707850287A0
00000000000080
ENDCHAR
STARTCHAR uni0924094D0915094D092F
ENCODING -1
SWIDTH 1346 0
DWIDTH 15 0
BBX 16 7 -1 0
BITMAP
1777777A9779A7C7
0000056430017080
0078940487A82080
0350530440800080
04405406307100A0
0440087930177790
0194000430000080
ENDCHAR
STARTCHAR uni0924094D0915094D0930
ENCODING -1
SWIDTH 995 0
DWIDTH 11 0
BBX 13 8 -1 -1
BITMAP
1777777A977710
00000564877000
00789404505300
03505304304400
04405406305300
0440089B377000
01940284300000
00000400000000
ENDCHAR
STARTCHAR uni0924094D0915094D0935
ENCODING -1
SWIDTH 1282 0
DWIDTH 14 0
BBX 16 7 -1 0
BITMAP
1777777A97777B82
0000056487885610
0078940450810610
0350530440800610
0440440640720810
0440087940187A10
0194000430000610
ENDCHAR
STARTCHAR uni0924094D0915094D0937
ENCODING -1
SWIDTH 943 0
DWIDTH 10 0
BBX 12 7 -1 0
BITMAP
1777748832A4
000007116350
007788998950
045027000350
044017025350
044007787350
019400016250
ENDCHAR
STARTCHAR uni0924094D0916094D0930
ENCODING -1
SWIDTH 1008 0
DWIDTH 11 0
BBX 13 8 -1 -1
BITMAP
177777A977B810
00000043007100
00888163657100
04504A80807100
04400910808100
0440027068B100
01940063366100
00000000400000
ENDCHAR
STARTCHAR uni0924094D0924094D092F
ENCODING -1
SWIDTH 888 0
DWIDTH 10 0
BBX 11 7 -1 0
BITMAP
177777A97B60
000000170800
059883260800
008009810800
008008000900
008002777900
006700000800
ENDCHAR
STARTCHAR uni0924094D0924094D0935
ENCODING -1
SWIDTH 788 0
DWIDTH 9 0
BBX 10 7 -1 0
BITMAP
17777777B6
0000037280
05A8890080
0080080080
0080090090
0080058780
0057000070
ENDCHAR
STARTCHAR uni0924094D0928094D092F
ENCODING -1
SWIDTH 1098 0
DWIDTH 12 0
BBX 14 7 -1 0
BITMAP
177777778B7B81
00000000080710
00777779840710
04404406200710
04401203400910
04400000677A10
01940000000710
ENDCHAR
STARTCHAR uni0924094D092A094D0930
ENCODING -1
SWIDTH 763 0
DWIDTH 8 0
BBX 10 7 -1 0
BITMAP
17779A78A4
0000440260
0078940260
0350350360
0440078A60
0440018260
0194081260
ENDCHAR
STARTCHAR uni0924094D092A094D0932
ENCODING -1
SWIDTH 1219 0
DWIDTH 13 0
BBX 15 7 -1 0
BITMAP
17779A7777778A40
0000440000002600
0078940088788600
0350350450903600
0440078A40302600
0440000350002600
0194000087002600
ENDCHAR
STARTCHAR uni0924094D092E094D092F
ENCODING -1
SWIDTH 1096 0
DWIDTH 12 0
BBX 14 7 -1 0
BITMAP
17779A778B7B81
00004400080710
00779404840710
03504A7A200710
04404405400910
04400000777A10
01940000000710
ENDCHAR
STARTCHAR uni0924094D0930094D092F
ENCODING -1
SWIDTH 848 0
DWIDTH 9 0
BBX 11 7 -1 0
BITMAP
177777C79A30
000000703500
008870803500
04403A603500
021047005500
000645778500
018200003500
ENDCHAR
STARTCHAR uni0924094D0938094D092F
ENCODING -1
SWIDTH 1234 0
DWIDTH 14 0
BBX 15 7 -1 0
BITMAP
177777A977B87C50
0000006300440800
0077827208800800
04501CA889000800
0440081008002800
0440018003876800
0194007200000800
ENDCHAR
STARTCHAR uni0924094D0938094D0935
ENCODING -1
SWIDTH 1155 0
DWIDTH 13 0
BBX 14 7 -1 0
BITMAP
177777A97777B6
00000063047280
00888172080080
04501BA8890080
04400810090090
04400180048780
01940072000070
ENDCHAR
STARTCHAR uni0926094D0917094D0930
ENCODING -1
SWIDTH 493 0
DWIDTH 5 0
BBX 7 9 -1 -2
BITMAP
17778A40
00002600
00888400
03500000
03500700
00797800
00272800
02837800
00080400
ENDCHAR
STARTCHAR uni0926094D092C094D0930
ENCODING -1
SWIDTH 483 0
DWIDTH 5 0
BBX 7 10 -1 -3
BITMAP
17778A30
00002600
00788400
03600000
04400200
02601800
00B98800
01754700
0077C200
00083000
ENDCHAR
STARTCHAR uni0926094D092F094D092D
ENCODING -1
SWIDTH 607 0
DWIDTH 7 0
BBX 8 9 -1 -2
BITMAP
1777B7C6
00676080
00800080
00981080
00800090
00678A90
03718280
022B2080
00026080
ENDCHAR
STARTCHAR uni0926094D092F094D0930
ENCODING -1
SWIDTH 595 0
DWIDTH 7 0
BBX 8 8 -1 -1
BITMAP
1778B7B5
00774080
02700080
00A70080
01600080
02600080
00877880
00013000
ENDCHAR
STARTCHAR uni0927094D0928094D092F
ENCODING -1
SWIDTH 1138 0
DWIDTH 13 0
BBX 14 7 -1 0
BITMAP
18C537777B87B5
02600000053080
00A70577980080
02600800800080
02600A00800280
00678800387780
00000000000080
ENDCHAR
STARTCHAR uni0928094D0915094D0938
ENCODING -1
SWIDTH 1384 0
DWIDTH 15 0
BBX 17 7 -1 0
BITMAP
1777777B7778B7A930
000007486821705300
000051081082705300
0400800800AA88A300
040081090045005300
0000287B0009005300
000000080003605300
ENDCHAR
STARTCHAR uni0928094D0924094D092F
ENCODING -1
SWIDTH 1073 0
DWIDTH 12 0
BBX 13 7 -1 0
BITMAP
17777777AA7C70
00000000170800
00000679820800
04779008000800
06008007100A00
00008001777900
00004810000800
ENDCHAR
STARTCHAR uni0928094D0924094D0930
ENCODING -1
SWIDTH 732 0
DWIDTH 8 0
BBX 10 7 -1 0
BITMAP
1777777B81
0000000710
0000177B10
0487A00910
0800700710
0000006A10
0000371710
ENDCHAR
STARTCHAR uni0928094D0924094D0938
ENCODING -1
SWIDTH 1134 0
DWIDTH 12 0
BBX 14 7 -1 0
BITMAP
177777777C78B4
00000000080170
00001887080170
04108007A98870
05008001800170
00008000720170
00004810080170
ENDCHAR
STARTCHAR uni0928094D0925094D092F
ENCODING -1
SWIDTH 1168 0
DWIDTH 13 0
BBX 14 7 -1 0
BITMAP
1776299169A7C7
00003234008080
00000044682080
03879770800080
061080008100A0
00002888588890
00000000000080
ENDCHAR
STARTCHAR uni0928094D0925094D0935
ENCODING -1
SWIDTH 1089 0
DWIDTH 12 0
BBX 14 7 -1 0
BITMAP
17762991677B71
00003134284800
00000044800800
03879770800800
06108000900900
00002887687A00
00000000000700
ENDCHAR
STARTCHAR uni0928094D0926094D0930
ENCODING -1
SWIDTH 734 0
DWIDTH 8 0
BBX 10 8 -1 -1
BITMAP
1777777B81
0000000710
0000188910
0477B10000
0500800430
0000289B40
000001A440
0000032000
ENDCHAR
STARTCHAR uni0928094D0926094D0935
ENCODING -1
SWIDTH 732 0
DWIDTH 8 0
BBX 10 9 -1 -2
BITMAP
1777777B81
0000000710
0000188900
0487B00000
0500800320
00003C7940
0000620440
0000620630
0000177700
ENDCHAR
STARTCHAR uni0928094D0927094D092F
ENCODING -1
SWIDTH 1097 0
DWIDTH 12 0
BBX 14 7 -1 0
BITMAP
1777B8078B7B81
00008000080710
0388BA34840710
07109006200710
03108004400910
00003887677A10
00000000000710
ENDCHAR
STARTCHAR uni0928094D0927094D0930
ENCODING -1
SWIDTH 783 0
DWIDTH 9 0
BBX 10 8 -1 -1
BITMAP
1777B807B5
0000800080
0000800080
0387B93080
0510800180
0000488A80
000001A170
0000041000
ENDCHAR
STARTCHAR uni0928094D0927094D0935
ENCODING -1
SWIDTH 1036 0
DWIDTH 11 0
BBX 13 7 -1 0
BITMAP
1777B807778A40
00008000672600
0388BA32602600
07109003502600
02108002603600
00003887778600
00000000002600
ENDCHAR
STARTCHAR uni0928094D0928094D092F
ENCODING -1
SWIDTH 1071 0
DWIDTH 12 0
BBX 13 7 -1 0
BITMAP
17777777A97C70
00000000270800
03879879820800
08008008000800
03003007100A00
00000001777900
00000000000800
ENDCHAR
STARTCHAR uni0928094D092A094D0930
ENCODING -1
SWIDTH 737 0
DWIDTH 8 0
BBX 10 7 -1 0
BITMAP
1777B77B82
0000800620
0387B00620
0800710720
0400179B20
0000036620
0000270610
ENDCHAR
STARTCHAR uni0928094D092B094D0930
ENCODING -1
SWIDTH 975 0
DWIDTH 11 0
BBX 12 7 -1 0
BITMAP
1777B77C7776
000080087750
0387B0081080
080061090071
050017AC0080
000004581850
000037080000
ENDCHAR
STARTCHAR uni0928094D092D094D092F
ENCODING -1
SWIDTH 1071 0
DWIDTH 12 0
BBX 13 7 -1 0
BITMAP
17779047A97C70
00008100170800
00007107820800
0477B87A000800
05007108100A00
00000001877900
00000000000800
ENDCHAR
STARTCHAR uni0928094D092D094D0935
ENCODING -1
SWIDTH 995 0
DWIDTH 11 0
BBX 12 7 -1 0
BITMAP
1777904777B7
000081018480
000071070080
0477B87A0080
050061090090
0000000387A0
000000000070
ENDCHAR
STARTCHAR uni0928094D092E094D092F
ENCODING -1
SWIDTH 1071 0
DWIDTH 12 0
BBX 13 7 -1 0
BITMAP
1777B877A97C70
00007100170800
00007107820800
0477B87A000800
05007108100A00
00000001877900
00000000000800
ENDCHAR
STARTCHAR uni0928094D0938094D091F
ENCODING -1
SWIDTH 1113 0
DWIDTH 12 0
BBX 14 7 -1 0
BITMAP
177777C7777B83
00000080000710
02885180140200
07108A98A30000
04102700530040
00000810430080
00000180098830
ENDCHAR
STARTCHAR uni0928094D0938094D092E094D092F
ENCODING -1
SWIDTH 1453 0
DWIDTH 16 0
BBX 18 7 -1 0
BITMAP
177777B79A778B7C71
000000803500080800
038851703505840800
080099879A7B100800
041036003505300A00
000008100000777A00
000002700000000800
ENDCHAR
STARTCHAR uni0928094D0938094D092F
ENCODING -1
SWIDTH 1194 0
DWIDTH 13 0
BBX 15 7 -1 0
BITMAP
177777B778B7B810
0000008000808000
0388417048408000
08009A88B2008000
0400360044009000
000008100777A000
0000027000007000
ENDCHAR
STARTCHAR uni092A094D0924094D092F
ENCODING -1
SWIDTH 1119 0
DWIDTH 12 0
BBX 14 7 -1 0
BITMAP
18B777777C79A3
01700000080450
01700688970450
01701802600450
00689601700550
00001700477850
00000850000350
ENDCHAR
STARTCHAR uni092C094D091C094D092F
ENCODING -1
SWIDTH 1235 0
DWIDTH 14 0
BBX 15 7 -1 0
BITMAP
1777777777B87C50
0000000000440800
007004998A810800
0458000808000800
0441700809001900
0077988403876800
0000000000000800
ENDCHAR
STARTCHAR uni092C094D0927094D0935
ENCODING -1
SWIDTH 1097 0
DWIDTH 12 0
BBX 14 7 -1 0
BITMAP
17777C60777B81
00770800175710
04820981710710
05362800800710
04508800710810
00787677787A10
00000000000710
ENDCHAR
STARTCHAR uni092C094D092D094D0930
ENCODING -1
SWIDTH 764 0
DWIDTH 8 0
BBX 10 7 -1 0
BITMAP
17779228A4
0077260260
04B1260260
05483B8960
0440960860
0077817360
0000072260
ENDCHAR
STARTCHAR uni092C094D0932094D092F
ENCODING -1
SWIDTH 480 0
DWIDTH 5 0
BBX 16 7 -1 0
BITMAP
17777777777C78B4
0067058487053170
03D2080921562170
0449270800B70170
0441870400700370
0078760000377770
0000057100000170
ENDCHAR
STARTCHAR uni092D094D0930094D092F
ENCODING -1
SWIDTH 830 0
DWIDTH 9 0
BBX 11 7 -1 0
BITMAP
192178B7A820
026000806200
026038506200
02B7A3006200
0260A5008200
000817779200
007200006200
ENDCHAR
STARTCHAR uni092E094D092A094D0930
ENCODING -1
SWIDTH 765 0
DWIDTH 8 0
BBX 10 7 -1 0
BITMAP
18A79A78A4
0260440260
0260440260
02A7950360
0150078A60
0000018260
0000081260
ENDCHAR
STARTCHAR uni092E094D092C094D092F
ENCODING -1
SWIDTH 1124 0
DWIDTH 12 0
BBX 14 7 -1 0
BITMAP
18A777777C79A3
02600770081350
02603911970350
02A7A372700350
02604408900550
00000877577850
00000000000250
ENDCHAR
STARTCHAR uni092E094D092C094D0930
ENCODING -1
SWIDTH 768 0
DWIDTH 8 0
BBX 10 8 -1 -1
BITMAP
18A77778B4
0260067270
02602B2170
02A7947370
0150350870
0000078A70
0000019260
0000031000
ENDCHAR
STARTCHAR uni092E094D092D094D092F
ENCODING -1
SWIDTH 1101 0
DWIDTH 12 0
BBX 14 7 -1 0
BITMAP
18A792278B7B82
02602600080610
02602604850610
02A78B7A300610
02601604500810
00000000777910
00000000000610
ENDCHAR
STARTCHAR uni092E094D092D094D0930
ENCODING -1
SWIDTH 759 0
DWIDTH 8 0
BBX 10 7 -1 0
BITMAP
18A79229A3
0260350350
0260350350
02A79A7950
0260351A50
0000008450
0000072350
ENDCHAR
STARTCHAR uni092E094D092D094D0935
ENCODING -1
SWIDTH 1028 0
DWIDTH 11 0
BBX 13 7 -1 0
BITMAP
18A79227779A30
02602600673400
02602603503400
02A78B7A303400
02501504504400
00000000878400
00000000003400
ENDCHAR
STARTCHAR uni0932094D0915094D092F
ENCODING -1
SWIDTH 1534 0
DWIDTH 17 0
BBX 18 7 -1 0
BITMAP
1777777779A779A7C7
000000067440008080
007878950497A82080
026090440450800080
0350504505407100A0
035000077940177790
009700000340000080
ENDCHAR
STARTCHAR uni0932094D0925094D092F
ENCODING -1
SWIDTH 1397 0
DWIDTH 15 0
BBX 17 7 -1 0
BITMAP
177777278637C79A40
000000080800712500
003182310819702500
025080398317002500
035050260019004500
035000057775777500
009700000000002500
ENDCHAR
STARTCHAR uni0932094D0926094D0930
ENCODING -1
SWIDTH 933 0
DWIDTH 10 0
BBX 12 8 -1 -1
BITMAP
1777777779A3
000000000440
007858788930
026090530000
035040530160
035000188B70
009700009370
000000013000
ENDCHAR
STARTCHAR uni0932094D0932094D092F
ENCODING -1
SWIDTH 1476 0
DWIDTH 16 0
BBX 18 7 -1 0
BITMAP
1777777777778C7A93
006838888385080440
0260A0550A04180440
035080530803950440
035040530401600740
026000440000577940
008700196000000430
ENDCHAR
STARTCHAR uni0932094D0935094D0921
ENCODING -1
SWIDTH 1247 0
DWIDTH 14 0
BBX 15 7 -1 0
BITMAP
1777777777777B60
0000000570000800
0077487400488700
0260905300800000
0350504502433500
0350000778400800
0097000000877900
ENDCHAR
STARTCHAR uni0937094D0915094D0930
ENCODING -1
SWIDTH 1042 0
DWIDTH 11 0
BBX 13 8 -1 -1
BITMAP
18C77777C77740
01840383978300
01734800900800
01805A00800800
00687900900800
0000048B938300
00000073800000
00000130000000
ENDCHAR
STARTCHAR uni0937094D091F094D092F
ENCODING -1
SWIDTH 997 0
DWIDTH 11 0
BBX 13 7 -1 0
BITMAP
18D77B7777C710
02771B77608000
01619800908000
00701119608000
0340031800A000
0450080577A000
00977500008000
ENDCHAR
STARTCHAR uni0937094D091F094D0930
ENCODING -1
SWIDTH 493 0
DWIDTH 5 0
BBX 7 9 -1 -2
BITMAP
18D77C40
02870800
01717800
00A88500
03500000
04400700
01977600
00289000
00803500
ENDCHAR
STARTCHAR uni0937094D091F094D0935
ENCODING -1
SWIDTH 493 0
DWIDTH 5 0
BBX 7 10 -1 -3
BITMAP
18D77C40
02870800
01727800
00A89500
03500100
03500800
00A88800
01801700
02602600
00677100
ENDCHAR
STARTCHAR uni0937094D0920094D092F
ENCODING -1
SWIDTH 1006 0
DWIDTH 11 0
BBX 13 7 -1 0
BITMAP
18EFFD7777B810
01FFFD77707100
00DFF700817100
01934809707100
03500808009100
0250080477A100
00867600007100
ENDCHAR
STARTCHAR uni0937094D0920094D0930
ENCODING -1
SWIDTH 512 0
DWIDTH 6 0
BBX 7 9 -1 -2
BITMAP
18EFFD50
02FFFB00
01FFF900
00AAA600
03500800
03500800
00977600
00469100
00401300
ENDCHAR
STARTCHAR uni0937094D0923094D092F
ENCODING -1
SWIDTH 1273 0
DWIDTH 14 0
BBX 16 7 -1 0
BITMAP
18C77C79978B7B71
0195080440080800
0173580445840800
01705A0537100800
0067757705300A00
0000000000777A00
0000000000000800
ENDCHAR
STARTCHAR uni0937094D092A094D0930
ENCODING -1
SWIDTH 798 0
DWIDTH 9 0
BBX 10 7 -1 0
BITMAP
18C77B77C7
01A5080080
0174480080
01705A0090
0068746A90
0000006380
0000054080
ENDCHAR
STARTCHAR uni0937094D092E094D092F
ENCODING -1
SWIDTH 1121 0
DWIDTH 12 0
BBX 14 7 -1 0
BITMAP
18C77B777C79A3
01940800080350
01742801960350
01805B78600350
00687601800550
00000000577750
00000000000350
ENDCHAR
STARTCHAR uni0938094D0915094D0930
ENCODING -1
SWIDTH 1084 0
DWIDTH 12 0
BBX 13 8 -1 -1
BITMAP
177C7777A97770
00080076587700
00180430540630
07A98A20530440
03600540630630
0081008AB37700
00170028530000
00000040000000
ENDCHAR
STARTCHAR uni0938094D0915094D0935
ENCODING -1
SWIDTH 1369 0
DWIDTH 15 0
BBX 17 7 -1 0
BITMAP
177C7777A97777B810
000800765877857100
001804305408107100
07A98A205308007100
036005406307108100
00810087930187A100
001700005300007100
ENDCHAR
STARTCHAR uni0938094D0924094D092F
ENCODING -1
SWIDTH 1185 0
DWIDTH 13 0
BBX 15 7 -1 0
BITMAP
177C777778B7B810
0008000000808000
0018007898408000
07A9893062008000
036006204400A000
008105300677A000
0017019300007000
ENDCHAR
STARTCHAR uni0938094D0924094D0930
ENCODING -1
SWIDTH 818 0
DWIDTH 9 0
BBX 11 7 -1 0
BITMAP
177C7777C710
000800008000
00180487B000
07A989009000
03600001B000
008100299000
001704708000
ENDCHAR
STARTCHAR uni0938094D0924094D0935
ENCODING -1
SWIDTH 1126 0
DWIDTH 12 0
BBX 14 7 -1 0
BITMAP
177C77777778A4
00080000047260
00180187850260
07A98A30440260
03600620360360
00810530077860
00170193000250
ENDCHAR
STARTCHAR uni0938094D0925094D092F
ENCODING -1
SWIDTH 1303 0
DWIDTH 14 0
BBX 16 7 -1 0
BITMAP
177C7198537C79A3
0008005080080350
0018000081960350
07A9898822600350
0360025002800550
0081006887588850
0017000000000350
ENDCHAR
STARTCHAR uni0938094D092A094D0930
ENCODING -1
SWIDTH 850 0
DWIDTH 9 0
BBX 11 7 -1 0
BITMAP
177C7A979A30
000804403500
001804403500
07A989404500
03600078A500
008100183500
001700813500
ENDCHAR
STARTCHAR uni0938094D092E094D092F
ENCODING -1
SWIDTH 1189 0
DWIDTH 13 0
BBX 15 7 -1 0
BITMAP
177C79A778B7B810
0008044000807100
0018044048407100
07A989A8A2007100
0360034045009100
008100000777A100
0017000000007100
ENDCHAR
STARTCHAR uni093F.a01
ENCODING -1
SWIDTH 231 0
DWIDTH 3 0
BBX 7 10 -1 0
BITMAP
00888910
00800350
00800010
17B50000
00800000
00800000
00800000
00800000
00800000
00800000
ENDCHAR
STARTCHAR uni093F.a04
ENCODING -1
SWIDTH 231 0
DWIDTH 3 0
BBX 8 10 -1 0
BITMAP
00888887
00800008
00800001
17B50000
00800000
00800000
00800000
00800000
00800000
00800000
ENDCHAR
STARTCHAR uni093F.a05
ENCODING -1
SWIDTH 231 0
DWIDTH 3 0
BBX 9 10 -1 0
BITMAP
0088888920
0080000260
0080000010
17B5000000
0080000000
0080000000
0080000000
0080000000
0080000000
0080000000
ENDCHAR
STARTCHAR uni093F.a06
ENCODING -1
SWIDTH 231 0
DWIDTH 3 0
BBX 9 10 -1 0
BITMAP
0088888870
0080000080
0080000010
17B5000000
0080000000
0080000000
0080000000
0080000000
0080000000
0080000000
ENDCHAR
STARTCHAR uni093F.a07
ENCODING -1
SWIDTH 231 0
DWIDTH 3 0
BBX 10 10 -1 0
BITMAP
0088888893
0080000017
0080000001
17B5000000
0080000000
0080000000
0080000000
0080000000
0080000000
0080000000
ENDCHAR
STARTCHAR uni093F.a08
ENCODING -1
SWIDTH 231 0
DWIDTH 3 0
BBX 10 10 -1 0
BITMAP
0088888888
0080000008
0080000001
17B5000000
0080000000
0080000000
0080000000
0080000000
0080000000
0080000000
ENDCHAR
STARTCHAR uni093F.a09
ENCODING -1
SWIDTH 231 0
DWIDTH 3 0
BBX 11 10 -1 0
BITMAP
008888888930
008000000170
008000000010
17B500000000
008000000000
008000000000
008000000000
008000000000
008000000000
008000000000
ENDCHAR
STARTCHAR uni093F.a10
ENCODING -1
SWIDTH 231 0
DWIDTH 3 0
BBX 11 10 -1 0
BITMAP
008888888780
008000000080
008000000010
17B500000000
008000000000
008000000000
008000000000
008000000000
008000000000
008000000000
ENDCHAR
STARTCHAR uni093F.a11
ENCODING -1
SWIDTH 231 0
DWIDTH 3 0
BBX 12 10 -1 0
BITMAP
008888888883
008000000008
008000000001
17B500000000
008000000000
008000000000
008000000000
008000000000
008000000000
008000000000
ENDCHAR
STARTCHAR uni093F.a12
ENCODING -1
SWIDTH 231 0
DWIDTH 3 0
BBX 13 10 -1 0
BITMAP
00888888887800
00800000000710
00800000000100
17B50000000000
00800000000000
00800000000000
00800000000000
00800000000000
00800000000000
00800000000000
ENDCHAR
STARTCHAR uni093F.a13
ENCODING -1
SWIDTH 231 0
DWIDTH 3 0
BBX 13 10 -1 0
BITMAP
00888888888830
00800000000080
00800000000010
17B50000000000
00800000000000
00800000000000
00800000000000
00800000000000
00800000000000
00800000000000
ENDCHAR
STARTCHAR uni093F.a14
ENCODING -1
SWIDTH 231 0
DWIDTH 3 0
BBX 14 10 -1 0
BITMAP
00888888888780
00800000000071
00800000000010
17B50000000000
00800000000000
00800000000000
00800000000000
00800000000000
00800000000000
00800000000000
ENDCHAR
STARTCHAR uni093F.a15
ENCODING -1
SWIDTH 231 0
DWIDTH 3 0
BBX 14 10 -1 0
BITMAP
00888888888884
00800000000008
00800000000001
17B50000000000
00800000000000
00800000000000
00800000000000
00800000000000
00800000000000
00800000000000
ENDCHAR
STARTCHAR uni093F.a16
ENCODING -1
SWIDTH 231 0
DWIDTH 3 0
BBX 15 10 -1 0
BITMAP
0088888888887800
0080000000000620
0080000000000100
17B5000000000000
0080000000000000
0080000000000000
0080000000000000
0080000000000000
0080000000000000
0080000000000000
ENDCHAR
STARTCHAR uni093F.a17
ENCODING -1
SWIDTH 231 0
DWIDTH 3 0
BBX 15 10 -1 0
BITMAP
0088888888888840
0080000000000080
0080000000000010
17B5000000000000
0080000000000000
0080000000000000
0080000000000000
0080000000000000
0080000000000000
0080000000000000
ENDCHAR
STARTCHAR uni093F.a18
ENCODING -1
SWIDTH 231 0
DWIDTH 3 0
BBX 16 10 -1 0
BITMAP
0088888888888890
0080000000000062
0080000000000010
17B5000000000000
0080000000000000
0080000000000000
0080000000000000
0080000000000000
0080000000000000
0080000000000000
ENDCHAR
STARTCHAR uni093F.a19
ENCODING -1
SWIDTH 231 0
DWIDTH 3 0
BBX 16 10 -1 0
BITMAP
0088888888888885
0080000000000008
0080000000000001
17B5000000000000
0080000000000000
0080000000000000
0080000000000000
0080000000000000
0080000000000000
0080000000000000
ENDCHAR
STARTCHAR uni093F.a20
ENCODING -1
SWIDTH 231 0
DWIDTH 3 0
BBX 17 10 -1 0
BITMAP
008888888888888900
008000000000000530
008000000000000100
17B500000000000000
008000000000000000
008000000000000000
008000000000000000
008000000000000000
008000000000000000
008000000000000000
ENDCHAR
STARTCHAR uni093F.a21
ENCODING -1
SWIDTH 231 0
DWIDTH 3 0
BBX 17 10 -1 0
BITMAP
008888888888888850
008000000000000080
008000000000000010
17B500000000000000
008000000000000000
008000000000000000
008000000000000000
008000000000000000
008000000000000000
008000000000000000
ENDCHAR
STARTCHAR uni093F.a22
ENCODING -1
SWIDTH 231 0
DWIDTH 3 0
BBX 18 10 -1 0
BITMAP
008888888888888790
008000000000000053
008000000000000011
17B500000000000000
008000000000000000
008000000000000000
008000000000000000
008000000000000000
008000000000000000
008000000000000000
ENDCHAR
STARTCHAR uni093F.a23
ENCODING -1
SWIDTH 231 0
DWIDTH 3 0
BBX 18 10 -1 0
BITMAP
008888888888888885
008000000000000008
008000000000000001
17B500000000000000
008000000000000000
008000000000000000
008000000000000000
008000000000000000
008000000000000000
008000000000000000
ENDCHAR
STARTCHAR uni093F.a24
ENCODING -1
SWIDTH 231 0
DWIDTH 3 0
BBX 19 10 -1 0
BITMAP
00888888888888887910
00800000000000000440
00800000000000000110
17B50000000000000000
00800000000000000000
00800000000000000000
00800000000000000000
00800000000000000000
00800000000000000000
00800000000000000000
ENDCHAR
STARTCHAR uni093F.a25
ENCODING -1
SWIDTH 231 0
DWIDTH 3 0
BBX 19 10 -1 0
BITMAP
00888888888888888860
00800000000000000080
00800000000000000010
17B50000000000000000
00800000000000000000
00800000000000000000
00800000000000000000
00800000000000000000
00800000000000000000
00800000000000000000
ENDCHAR
STARTCHAR uni093F.a26
ENCODING -1
SWIDTH 231 0
DWIDTH 3 0
BBX 20 10 -1 0
BITMAP
00888888888888888791
00800000000000000044
00800000000000000011
17B50000000000000000
00800000000000000000
00800000000000000000
00800000000000000000
00800000000000000000
00800000000000000000
00800000000000000000
ENDCHAR
STARTCHAR uni093F.a32
ENCODING -1
SWIDTH 231 0
DWIDTH 3 0
BBX 24 10 -1 0
BITMAP
008888888888888888888790
008000000000000000000053
008000000000000000000011
17B500000000000000000000
008000000000000000000000
008000000000000000000000
008000000000000000000000
008000000000000000000000
008000000000000000000000
008000000000000000000000
ENDCHAR
STARTCHAR uni093E0901
ENCODING -1
SWIDTH 231 0
DWIDTH 3 0
BBX 4 10 -1 0
BITMAP
0050
5106
1776
17B5
0080
0080
0080
0080
0080
0080
ENDCHAR
STARTCHAR dvNG_GA
ENCODING -1
SWIDTH 562 0
DWIDTH 6 0
BBX 8 11 -1 -4
BITMAP
17777C72
00000800
00777700
02600050
00777700
01200720
01988900
00442600
00532600
04702600
00001300
ENDCHAR
STARTCHAR dvNG_MA
ENCODING -1
SWIDTH 728 0
DWIDTH 8 0
BBX 10 10 -1 -3
BITMAP
17779A7B71
0077830800
0260000800
0077821800
0000080800
0350080800
0097940800
0000977B00
0000800800
0000000800
ENDCHAR
STARTCHAR dvNY_CA
ENCODING -1
SWIDTH 963 0
DWIDTH 11 0
BBX 12 7 -1 0
BITMAP
1777777777C5
028700000080
0006228A7080
000494630080
000620620180
048700188780
000000000080
ENDCHAR
STARTCHAR dvTT_GA
ENCODING -1
SWIDTH 510 0
DWIDTH 6 0
BBX 7 10 -1 -3
BITMAP
17778B60
00000800
00677500
02600000
04400410
03600700
00898800
00442600
04812600
00002600
ENDCHAR
STARTCHAR dvTTH_TTHA
ENCODING -1
SWIDTH 511 0
DWIDTH 6 0
BBX 7 11 -1 -4
BITMAP
17779A50
00004400
0078B300
04500800
04500800
0078A500
0047A200
02701700
04400800
03500800
00788300
ENDCHAR
STARTCHAR dvDD_GA
ENCODING -1
SWIDTH 541 0
DWIDTH 6 0
BBX 7 11 -1 -4
BITMAP
17777C70
00000800
00777700
02600000
00777700
01200720
01888900
00442600
00532600
04702600
00001300
ENDCHAR
STARTCHAR dvDDH_DDHA
ENCODING -1
SWIDTH 487 0
DWIDTH 5 0
BBX 7 10 -1 -3
BITMAP
1777A930
00678200
02600000
03428500
02631800
00A87400
02606200
03544800
02610800
00688400
ENDCHAR
STARTCHAR dvSHA_MatraVocalicR
ENCODING -1
SWIDTH 558 0
DWIDTH 6 0
BBX 7 10 0 -3
BITMAP
19856820
45086200
19556200
18A56200
4105C200
00006200
0002A200
00080000
00070020
00067820
ENDCHAR
STARTCHAR dvT_KH_NA
ENCODING -1
SWIDTH 1341 0
DWIDTH 15 0
BBX 16 7 -1 0
BITMAP
177777A9777777C6
0000004300000080
0088816368700080
04504A8180870080
0440091080780080
0440028067500080
0194006300000080
ENDCHAR
STARTCHAR dvT_S_NA
ENCODING -1
SWIDTH 1169 0
DWIDTH 13 0
BBX 14 7 -1 0
BITMAP
177777A97777C7
00000063000080
00888272000080
04501CA8880080
04400810050080
04400180000080
01940072000080
ENDCHAR
ENDFONT
